/* XPM */
static char *Sol1666787120[] = {
/* columns rows colors chars-per-pixel */
"50 50 3 1 ",
"  c #B5A9C9",
". c #BBB7D0",
"X c #BBB8D0",
/* pixels */
"XXXXXXXXXXXXXXXXXXXXXXXXX                         ",
"XXXXXXXXXXXXXXXXXXXXXXXXX                         ",
"XXXXXXXXXXXXXXXXXXXXXXXXX                         ",
"XXXXXXXXXXXXXXXXXXXXXXXXX                         ",
"XXXXXXXXXXXXXXXXXXXXXXXXX                         ",
"XXXXXXXXXXXXXXXXXXXXXXXXX                         ",
"XXXXXXXXXXXXXXXXXXXXXXXXX                         ",
"XXXXXXXXXXXXXXXXXXXXXXXXX                         ",
"XXXXXXXXXXXXXXXXXXXXXXXXX                         ",
"XXXXXXXXXXXXXXXXXXXXXXXXX                         ",
"XXXXXXXXXXXXXXXXXXXXXXXXX                         ",
"XXXXXXXXXXXXXXXXXXXXXXXXX                         ",
"XXXXXXXXXXXXXXXXXXXXXXXXX                         ",
"XXXXXXXXXXXXXXXXXXXXXXXXX                         ",
"XXXXXXXXXXXXXXXXXXXXXXXXX                         ",
"XXXXXXXXXXXXXXXXXXXXXXXXX                         ",
"XXXXXXXXXXXXXXXXXXXXXXXXX                         ",
"XXXXXXXXXXXXXXXXXXXXXXXXX                         ",
"XXXXXXXXXXXXXXXXXXXXXXXXX                         ",
"XXXXXXXXXXXXXXXXXXXXXXXXX                         ",
"XXXXXXXXXXXXXXXXXXXXXXXXX                         ",
"XXXXXXXXXXXXXXXXXXXXXXXXX                         ",
"XXXXXXXXXXXXXXXXXXXXXXXXX                         ",
"XXXXXXXXXXXXXXXXXXXXXXXXX                         ",
"XXXXXXXXXXXXXXXXXXXXXXXX.                         ",
"                         XXXXXXXXXXXXXXXXXXXXXXXXX",
"                         XXXXXXXXXXXXXXXXXXXXXXXXX",
"                         XXXXXXXXXXXXXXXXXXXXXXXXX",
"                         XXXXXXXXXXXXXXXXXXXXXXXXX",
"                         XXXXXXXXXXXXXXXXXXXXXXXXX",
"                         XXXXXXXXXXXXXXXXXXXXXXXXX",
"                         XXXXXXXXXXXXXXXXXXXXXXXXX",
"                         XXXXXXXXXXXXXXXXXXXXXXXXX",
"                         XXXXXXXXXXXXXXXXXXXXXXXXX",
"                         XXXXXXXXXXXXXXXXXXXXXXXXX",
"                         XXXXXXXXXXXXXXXXXXXXXXXXX",
"                         XXXXXXXXXXXXXXXXXXXXXXXXX",
"                         XXXXXXXXXXXXXXXXXXXXXXXXX",
"                         XXXXXXXXXXXXXXXXXXXXXXXXX",
"                         XXXXXXXXXXXXXXXXXXXXXXXXX",
"                         XXXXXXXXXXXXXXXXXXXXXXXXX",
"                         XXXXXXXXXXXXXXXXXXXXXXXXX",
"                         XXXXXXXXXXXXXXXXXXXXXXXXX",
"                         XXXXXXXXXXXXXXXXXXXXXXXXX",
"                         XXXXXXXXXXXXXXXXXXXXXXXXX",
"                         XXXXXXXXXXXXXXXXXXXXXXXXX",
"                         XXXXXXXXXXXXXXXXXXXXXXXXX",
"                         XXXXXXXXXXXXXXXXXXXXXXXXX",
"                         XXXXXXXXXXXXXXXXXXXXXXXXX",
"                         XXXXXXXXXXXXXXXXXXXXXXXXX"
};
