/* XPM */
static char *_bb1993886d543d5a0c31eae0fae3638U0XTK6fg5o5VjPHD[] = {
/* columns rows colors chars-per-pixel */
"50 50 194 2 ",
"   c None",
".  c #000001",
"X  c #010D02",
"o  c #0D0502",
"O  c #031402",
"+  c #021D03",
"@  c #1F0E0A",
"#  c #23100C",
"$  c #281A0D",
"%  c #3A1E0C",
"&  c #351709",
"*  c #351C15",
"=  c #2C0E06",
"-  c #062A06",
";  c #042908",
":  c #003D01",
">  c #08380C",
",  c #043E11",
"<  c #103710",
"1  c #39251B",
"2  c #3E3325",
"3  c #451D0D",
"4  c #47271F",
"5  c #4B2916",
"6  c #532D15",
"7  c #5B341C",
"8  c #483A14",
"9  c #64381C",
"0  c #693B1B",
"q  c #703D1C",
"w  c #4B2A20",
"e  c #463C23",
"r  c #5C3320",
"t  c #463D30",
"y  c #6F3F20",
"u  c #0D420D",
"i  c #014007",
"p  c #0D4710",
"a  c #0D4B12",
"s  c #064815",
"d  c #0E5417",
"f  c #075219",
"g  c #0B5B1B",
"h  c #075315",
"j  c #1D5612",
"k  c #374919",
"l  c #0F641E",
"z  c #296E19",
"x  c #26701B",
"c  c #2D7A1D",
"v  c #2A751B",
"b  c #0E6C23",
"n  c #0B6520",
"m  c #0E7225",
"M  c #0F7B29",
"N  c #007625",
"B  c #107B29",
"V  c #167827",
"C  c #196C23",
"Z  c #276A26",
"A  c #3C7027",
"S  c #494619",
"D  c #5E441C",
"F  c #75441E",
"G  c #63471E",
"H  c #4C4336",
"J  c #554E29",
"K  c #614723",
"L  c #744221",
"P  c #774A29",
"I  c #6C5723",
"U  c #7D5430",
"Y  c #4E6725",
"T  c #706B2A",
"R  c #004B6A",
"E  c #796345",
"W  c #637B65",
"Q  c #85582C",
"!  c #916737",
"~  c #887B3A",
"^  c #9C743D",
"/  c #8F6B31",
"(  c #A37B3C",
")  c #826D52",
"_  c #957859",
"`  c #8C765A",
"'  c #A47B41",
"]  c #A87F42",
"[  c #1C8329",
"{  c #2A8C29",
"}  c #328620",
"|  c #368D22",
" . c #3A9424",
".. c #3C9A26",
"X. c #3A9C29",
"o. c #3FA229",
"O. c #60981F",
"+. c #538423",
"@. c #769032",
"#. c #41A429",
"$. c #7BB625",
"%. c #718C73",
"&. c #9B9B01",
"*. c #BFB417",
"=. c #899B2C",
"-. c #AC873D",
";. c #B6993C",
":. c #87A423",
">. c #98A53D",
",. c #B9A72C",
"<. c #BFA838",
"1. c #C5BB1F",
"2. c #C7B826",
"3. c #CAB834",
"4. c #D3BF36",
"5. c #B4D11E",
"6. c #C8C800",
"7. c #C9C014",
"8. c #CAD919",
"9. c #D2D70F",
"0. c #FFFF00",
"q. c #FAF80C",
"w. c #E8E817",
"e. c #EDED00",
"r. c #D8CB2D",
"t. c #D1C231",
"y. c #C3C636",
"u. c #E6DE24",
"i. c #E8D636",
"p. c #E9E228",
"a. c #F5EA2A",
"s. c #A78040",
"d. c #AE8444",
"f. c #B68944",
"g. c #BA9741",
"h. c #B28952",
"j. c #A8A841",
"k. c #9C8767",
"l. c #9D8D73",
"z. c #BA9769",
"x. c #B69874",
"c. c #A68260",
"v. c #CB9C4C",
"b. c #CAA149",
"n. c #D5A64D",
"m. c #D7B148",
"M. c #D7A650",
"N. c #DEAC52",
"B. c #E1B44F",
"V. c #C4A47C",
"C. c #E7C547",
"Z. c #EEE35A",
"A. c #F2E954",
"S. c #FEF47E",
"D. c #2B4F9B",
"F. c #3D4D90",
"G. c #00719D",
"H. c #37759B",
"J. c #007EAE",
"K. c #5F7B91",
"L. c #64699A",
"P. c #65648F",
"I. c #00BAFF",
"U. c #55ADE3",
"Y. c #B0998D",
"T. c #88A88B",
"R. c #BDA585",
"E. c #B6B5B5",
"W. c #C6A782",
"Q. c #CCAC84",
"!. c #C7A981",
"~. c #D5B48B",
"^. c #D9BF87",
"/. c #D6BE99",
"(. c #D6C09D",
"). c #E2C59C",
"_. c #FFF580",
"`. c #E8CBA3",
"'. c #EBD2AA",
"]. c #EDD9B0",
"[. c #F6DBB3",
"{. c #F8DEB5",
"}. c #FFE6BD",
"|. c #F7E0B7",
" X c #A9C3D7",
".X c #9DCAEC",
"XX c #D4D5D8",
"oX c #C7C6C6",
"OX c #EFDEC8",
"+X c #FCE9CB",
"@X c #FFEFD6",
"#X c #EEEEED",
"$X c #E2E4EC",
"%X c white",
/* pixels */
"                                                                                                    ",
"                                                                                                    ",
"                                                                                                    ",
"                                ' ' Q L Y M l u c #.#.#.#.#.X.M B                                   ",
"                                t.t.2.*.:.{ C u c #.#.#.#.#.#.{ {                                   ",
"                        ' ' N.N.a.0.0.0.5.#.} u v #.#.#.#.#.#.#.#.B B B B                           ",
"                        3.3.b.v.i.u.p.a.y.>.@.x c | ..#.#.#.#.#.#.{ { B B                           ",
"                    ' ' q.0.;.( ' ' v.N.N.N.j.o.} u z #.#.#.#.#.#.#.#.B B p p                       ",
"                    <.<.p.w.v.f.s.' m.C.N.v.>.o.} u x #.#.#.#.#.#...X.B B g d                       ",
"                ' s.0.0.-.' n.N.f.( u.0.t.' =.o.} u x #.#.#.#.#.X.M M B B B B a p                   ",
"                ^ ( 0.0.g.d.v.v.h.h.i.0.t.' >.$.O.j c ............B B B B B B d u                   ",
"                q P 0.0.B.N.Q q V.~.A.0.t.' r.0.8.#. .u u u > u p B B B B B B a u                   ",
"                F P q.q.N.n.! U V.~.Z.q.3.' r.0.8.#.| u u a a u a B B B B B B d p                   ",
"                    ' ' L q Q.~.~.~.z.' ' ' r.0.8.B b u d B B B B B B B B B B B B d u               ",
"                    ' ' P q V.~.~.~.z.( ' ] r.0.8.V C u d B B B B B B B B B B B B d u               ",
"                        o . Q.~.[.}.).Q.Z.0.r.] ] ( ~ B m u d B B u p u u B B B B d u               ",
"                        . . W.~.[.}.).~.Z.0.r.' ' ' ~ V m u a B M u u u u B M B B d u               ",
"                        . . P U H H (.}.S.0.r.' ! L G p d B V p p u u X X u u V B s X               ",
"                        . . 0 F = . (.}.S.0.r.' ! L G : h N N : : u u . . > u B B , .               ",
"                    . . V.!.P.F.XX#X@X}.(.;.v.n.-.L _ V.~.].].].'.i u X . u u a a ; .               ",
"                    . . ~.~.L.D.$X%X@X}.Q.( v.N.f.F _ ^.(.}.}.}.|.i u . . > u u u + .               ",
"                    . . Q.~.L.D.$X%X@X}.W.Q 2.a.1.% k.[.[.}.|.z.z.+ +     + + b m > .               ",
"                    . . Q.~.L.D.$X%X@X}.R.L 1.0.6.. l.}.}.}.[.( ' . .     . . m M , .               ",
"                        ) ) Y.Y.OX@X+X}.W.y 7.0.6.. K..X XV.V.K K . .     . . f g - .               ",
"                        . . !.~.[.}.}.}.R.L 7.0.6.. G.I.U.( ^ . . . .     . . u u + .               ",
"                            ` _ /.`.`.).x.L 7.0.6.. R J.H.P U -.-.6.6.        - - +                 ",
"                            . . V.~.~.~._ L 7.0.6.. . . . . D B.N.0.0.        . .                   ",
"                                ` k.k.c.) 6 ,.i.,.. > g f - k -.-.              .                   ",
"                                . . > u ; . ( N.-.. s B b u > . .                                   ",
"                                s h g g g f T f./ 5 S g g l g . .                                   ",
"                            . . b B B B M M g . 5 F 9 . , B m . .                                   ",
"                            &.&.+.B B B m n g s k I S . , B m . .                                   ",
"                        . . e.0.:.V [ M h . g B B B l . s M m . .                                   ",
"                        . . 9.w.@.A A A j . W T.T.T.%.. < Z Z @ #                                   ",
"                        . . N N I G L L 5 . E.%X%X%XXX. @ w w 4 w . .                               ",
"                        . . V [ T I I I 8 . E.#X#X#XoX. @ w w H e . .                               ",
"                        . . ..#.#.o.#.#.z . & 3 3 3 & . # w S M m . .                               ",
"                        . .  .#.o.#.o.o.z . * w 6 4 1 . $ e S m m . .                               ",
"                            . .  .#.{ B f . 5 L L y 9 . j #.#.. .                                   ",
"                            . . | o.{ B f . r P P P 9 . j #. .. .                                   ",
"                                O O O X . . R.}.'.~.x.. . O O                                       ",
"                                . . . . . . R.}.'.~.x.. . . .                                       ",
"                            . . 9 y 7 4 w w t H t 2 1 . .                                           ",
"                            . . 9 y r w w w * . . . . . .                                           ",
"                            . . 9 q y y r w * . . . .                                               ",
"                            . . 9 L L L r w * . . . .                                               ",
"                                % % % % $ # @                                                       ",
"                                . . . . . . .                                                       ",
"                                                                                                    ",
"                                                                                                    "
};
