/* XPM */
static char *_076529c94614ab080e5c110a52af7a0sMxNYwojsGy56P9B[] = {
/* columns rows colors chars-per-pixel */
"50 50 168 2 ",
"   c None",
".  c #000001",
"X  c #080903",
"o  c #1A0B08",
"O  c #021503",
"+  c #021E05",
"@  c #1E1A11",
"#  c #200E08",
"$  c #2D1608",
"%  c #2A1509",
"&  c #381D0C",
"*  c #2A1510",
"=  c #2F1812",
"-  c #311A14",
";  c #062C07",
":  c #0B2D06",
">  c #032C09",
",  c #042405",
"<  c #093509",
"1  c #0A3D0B",
"2  c #03300C",
"3  c #043E11",
"4  c #3C2219",
"5  c #15283B",
"6  c #411E02",
"7  c #442410",
"8  c #48271D",
"9  c #483714",
"0  c #59321A",
"q  c #572E10",
"w  c #703F1F",
"e  c #4A2920",
"r  c #573020",
"t  c #743F20",
"y  c #0C420D",
"u  c #0D4000",
"i  c #10460E",
"p  c #064513",
"a  c #094311",
"s  c #0D4C13",
"d  c #044B16",
"f  c #154E10",
"g  c #0E5417",
"h  c #075119",
"j  c #0E5F1C",
"k  c #0E5F16",
"l  c #1C5A14",
"z  c #185A16",
"x  c #3B4111",
"c  c #35541A",
"v  c #0F621D",
"b  c #236416",
"n  c #266E19",
"m  c #246718",
"M  c #27701A",
"N  c #0F6B22",
"B  c #006B21",
"V  c #116C22",
"C  c #0E7125",
"Z  c #0E7B29",
"A  c #007A28",
"S  c #107B29",
"D  c #306C25",
"F  c #307528",
"G  c #5F431C",
"H  c #6D4C1F",
"J  c #62461E",
"K  c #73411F",
"L  c #5D4522",
"P  c #6B4822",
"I  c #734120",
"U  c #704E21",
"Y  c #7C4D27",
"T  c #6B5524",
"R  c #7C532A",
"E  c #76582D",
"W  c #694A30",
"Q  c #557122",
"!  c #636123",
"~  c #78632C",
"^  c #1A2F44",
"/  c #213A53",
"(  c #413C4A",
")  c #315273",
"_  c #735740",
"`  c #484E66",
"'  c #6F7C6D",
"]  c #81542B",
"[  c #8A5E31",
"{  c #8A6535",
"}  c #926736",
"|  c #AC7D3B",
" . c #885F40",
".. c #8E684B",
"X. c #857347",
"o. c #926E52",
"O. c #947154",
"+. c #A47B41",
"@. c #1D8329",
"#. c #238629",
"$. c #268929",
"%. c #288B29",
"&. c #368E22",
"*. c #399424",
"=. c #399725",
"-. c #3DA329",
";. c #509527",
":. c #41A429",
">. c #6C8076",
",. c #949401",
"<. c #AEAE01",
"1. c #BCBC01",
"2. c #8C8A3A",
"3. c #939438",
"4. c #A39522",
"5. c #AE873D",
"6. c #B89C3A",
"7. c #C0B51A",
"8. c #C8B536",
"9. c #C0A838",
"0. c #D4CC16",
"q. c #CACE16",
"w. c #D7E615",
"e. c yellow",
"r. c #E7EB16",
"t. c #EDED00",
"y. c #D1C231",
"u. c #E1D332",
"i. c #F2E135",
"p. c #A9855C",
"a. c #AE8643",
"s. c #BDAB47",
"d. c #AFA243",
"f. c #9C8A65",
"g. c #A18D68",
"h. c #A7926D",
"j. c #B69262",
"k. c #A2AE73",
"l. c #AFBB7B",
"z. c #DFAD52",
"x. c #CEA64D",
"c. c #E1B44F",
"v. c #C29F73",
"b. c #088BB1",
"n. c #5D86A8",
"m. c #528EBD",
"M. c #0396C8",
"N. c #03A7E2",
"B. c #00BAFF",
"V. c #839B85",
"C. c #A59D9B",
"Z. c #BBAE8A",
"A. c #9EB6A0",
"S. c #B9BABA",
"D. c #A1A3A9",
"F. c #CEAE86",
"G. c #D5B48B",
"H. c #C6B392",
"J. c #DCC29D",
"K. c #D5EB9D",
"L. c #E4C8A1",
"P. c #ECD0A7",
"I. c #F7DFB7",
"U. c #FEE6BD",
"Y. c #FAE0B7",
"T. c #D5D7D5",
"R. c #E2E2E2",
"E. c white",
/* pixels */
"                                                                                                    ",
"                                                                                                    ",
"                                          I                 I                                       ",
"                                          I I +.+.+.+.+.+.R I                                       ",
"                                        J | 5.y.y.y.y.a.+.} [ 0.                                    ",
"                                      . J z.c.e.e.e.e.a.+.+.+.r.e.8.+.                              ",
"                                      b Q s.s.w.w.w.w.3.2.2.2.r.e.8.+.+.                            ",
"                                  . l :.:.:.:.:.-.-.:.:.:.:.:.r.e.x.+.+.+.+.                        ",
"                                  l m *.*.*.=.=.*.*.=.=.*.=.*.q.r.8.a.d.9.6.                        ",
"                              . b :.*.y 1 y y y 1 a y y y 1 y =.-.x.z.i.e.q.t t                     ",
"                            > > m =.&.l l l l l l l l l l l l &.=.d.x.u.t.1.Y Y                     ",
"                        . . h S V 1 m :.:.:.:.:.:.:.:.:.:.:.:.m 1 B A d . E +.+.                    ",
"                          . h S V f n :.:.:.:.:.:.:.:.:.:.:.:.n f V S h . E +.+.                    ",
"                          . ; y M :.:.:.:.:.:.:.:.:.:.:.:.:.:.:.:.M 1 : .                           ",
"                        @ . ; y M :.:.:.:.:.:.:.:.:.:.:.:.:.:.:.:.M a ; . @                         ",
"                +.+.v.G.f.y v S V i m :.:.:.:.:.:.:.:.:.:.:.-.m y V S N a f.G.v.+.+.                ",
"                +.+.v.G.f.y j S V 1 m :.:.:.:.:.:.:.:.:.:.:.:.m y N S j y f.G.v.| +.                ",
"            I K J.Y.Y.U.Z.y j S S S #.:.:.:.:.:.:.:.:.:.:.:.:.#.S S S j y Z.U.U.I.G.I I             ",
"            I K J.U.U.U.Z.y j Z S S #.:.:.:.:.:.:.:.:.:.:.:.:.$.Z S S j y Z.U.U.U.J.I I             ",
"                O.O.p.j.X.y j S V s k #.%.:.:.:.:.:.:.:.:.$.@.z s N S j y X.j.p.O.O.                ",
"                I I } +.~ u k S N y g S #.:.:.:.:.:.:.:.:.@.S g y N Z k 1 ~ +.} I I                 ",
"                    R ] n.N.b.g a + a S S #.%.:.:.:.:.%.$.S S p + s g b.N.n.] R                     ",
"                    K I m.B.M.1 < . 3 S S S S :.:.:.:.S S S S 3 . < y M.B.m.I I                     ",
"                    7 7 k.K.l.G 9 . 3 S S S S %.%.%.%.S S S S 3 . q J l.K.k.7 7                     ",
"                    . . 1.e.0.w 0 . 3 S S S S Z S S S S S S S 3 . 0 I 0.e.1.. .                     ",
"                        ,.<.4.} R . > j N S S S S S S S S N j > . E } 4.<.,.                        ",
"                          . E +.{ . + y s S S S S S S S S g y + . { +.T .                           ",
"                            L E P . O : 3 S S S S S S S S 3 : O . P E L                             ",
"                              . . . . . > S S S S S S S S 2 . . . . .                               ",
"                            p h d ; , . > V N S S S S V N , . , ; d h p                             ",
"                          . h S N y 1 . O y a S S S S s a O . 1 y N S h .                           ",
"                        # * ' A.V.y y d p < 1 S S S S 1 < p p a y V.A.>.^ 5                         ",
"                    . . - e S.E.T.i k S C . + Z Z S S , . C S g y T.E.S.) / . .                     ",
"                    & - 8 r C.R.S.x c Z C . + C C V N + . C Z c x S.R.D.` ( & &                     ",
"                . . 0 I t t q . 6 U T S C . O y y y y O . C A T H 6 . q t I K 0 . .                 ",
"                . . E O...{ W O 4 T T F D $ $ 1 1 1 1 % $ D F T ~ 4 O W { ..O._ . .                 ",
"                . . H.U.P.G.h.a M :.;.w I I w . . . . w I I t ;.-.M y h.G.P.U.H.. .                 ",
"                . . H.I.L.F.g.1 n :.;.U U U H : : : : H U U U ;.:.M y g.F.L.I.H.. .                 ",
"                    . . . . . . b :.:.:.:.:.:.:.:.:.:.:.:.:.:.:.:.b . . . . . .                     ",
"                    . . . . . . b -.:.:.:.:.:.:.:.:.:.:.:.:.:.:.:.b . . . . . .                     ",
"                        . . - e 4 O p S @.:.:.:.:.:.:.:.:.@.S p O e e - . .                         ",
"                        . . - e 4 . 3 Z @.:.:.:.:.:.:.:.:.@.Z p . - e - . .                         ",
"                              X * e r I U U H : : : : H U P I r e * X                               ",
"                              . * e r I K I w . . . . w I I I r e * .                               ",
"                                  o # $ $ $ $         $ $ $ $ # o                                   ",
"                                  . . . . . .         . . . . . .                                   ",
"                                                                                                    ",
"                                                                                                    ",
"                                                                                                    ",
"                                                                                                    "
};
