/* XPM */
static char *Trap1667227464[] = {
/* columns rows colors chars-per-pixel */
"50 50 10 1 ",
"  c None",
". c black",
"X c #403070",
"o c #586080",
"O c #7050A0",
"+ c #0000F8",
"@ c #2828F8",
"# c #1880F8",
"$ c #70A8F8",
"% c #9888C0",
/* pixels */
"                       ......                     ",
"                      X++++++X                    ",
"                   XXX++@@@@+XXX                  ",
"                  .++++@#$$#++++X                 ",
"                 XX+++@#$$$$@@+++X                ",
"                .X++++#$$$$$$@++++X               ",
"               ..X++++#$$$$$$@++++X.              ",
"               .X+++++#$$$$$$@++++X..             ",
"               X++++++@#$$$$@@+++++X.             ",
"               X+++++++@#$$#++++++++.             ",
"              .X++++++++@@@@++++++++X             ",
"             .+++++++++++++++++++++++X            ",
"             .++++++@@@+++++@@@++++++X.           ",
"             .++++++@$#@++++@$$@+++++X.           ",
"             .++++++@$$@++++@$$@+++++X.           ",
"             .++++++@$$@X..+@$$@+++++X.           ",
"             .++++++@$$X...Xo$$@+++++X.           ",
"             .O#@+++@$OX....X$$@+++@#X.           ",
"             .O$@+++@$OX....X$$@++@#$o.           ",
"             .O#@+++@Oo.....Xo@@+++@#X.           ",
"             .@@@++++X........+++++@@X.           ",
"             .O$@++++X........++++@#$o.           ",
"             .O$#++++X........+++++$$o.           ",
"             .O$#@+++X........++++@$$o.           ",
"             .O$$#@++X........+++@$$$o.           ",
"             .o$$$@++X........+++#$$$o            ",
"              Xo$$@++X........+++#$OX             ",
"               X$$$@++X.....X++@#$$O.             ",
"               X$$$#+++.....X++@$$$O.             ",
"               X@$$#+++.....X++@$$#@.             ",
"               X+#$$#@++X..X++@#$$@X.             ",
"                .o$$$#@+X..++@#$$$X.              ",
"                .X#$$$#@X..+@$$$$@X               ",
"                .X@$$$$@X..+@$$$#+X               ",
"                  X$$$$@X..+@$$$oX                ",
"                  XO$$$@X..+@$$$o.                ",
"                  X%$$#@X..+@$$$o.                ",
"                ..X%$#@+X..+@@$$o..               ",
"                XXo$#@++X..X++#$OoXX              ",
"        .XXXXXXX+#$#@++X....X++@$$@+XXXXXXX.      ",
"       X+O%%%%%$@@#@++X......X++##@#$%%%%O@+.     ",
"      .X+#$$$$$$@++++X........X+++@#$$$$$$@+.     ",
"      .X+@@$$$$@@+++X..........X+++@#$$$$@@+.     ",
"      .X##@#$$#++++X..XOOOOOoX..X+++@#$#@@#O.     ",
"      .X$$@@@@++XXXXXXo$$$$$$oXXXXX++@@@@#$OX     ",
"      .X$$$@++XX.o$$$$Ooooooo$$$$OXXXX+@#$$OX     ",
"      .XO$$$#ooooo$$$$o.....XO$$$%ooooO#$$$o.     ",
"       .Xo$$$$$$$%XXXXX      XXXXo$$$$$$$$o..     ",
"       ..Xoooooooo               XooooooooX.      ",
"        ..........                ..........      "
};
