/* XPM */
static char *wall1666787002[] = {
/* columns rows colors chars-per-pixel */
"50 50 217 2 ",
"   c #414052",
".  c #424153",
"X  c #434254",
"o  c #434156",
"O  c #444154",
"+  c #444355",
"@  c #454456",
"#  c #444557",
"$  c #47435A",
"%  c #464459",
"&  c #474658",
"*  c #464759",
"=  c #47455A",
"-  c #46475B",
";  c #46475C",
":  c #484759",
">  c #48455A",
",  c #48445B",
"<  c #48465B",
"1  c #49465B",
"2  c #49455C",
"3  c #49475C",
"4  c #4A475C",
"5  c #4A465D",
"6  c #4C475D",
"7  c #47485A",
"8  c #47485C",
"9  c #48495B",
"0  c #4A495B",
"q  c #48495D",
"w  c #4A485D",
"e  c #4B485D",
"r  c #4A4B5D",
"t  c #4B495E",
"y  c #4C4B5D",
"u  c #4C495E",
"i  c #4C485F",
"p  c #4D4A5F",
"a  c #4D4B60",
"s  c #4E4B60",
"d  c #4E4F63",
"f  c #504E63",
"g  c #4D5063",
"h  c #4F5064",
"j  c #4E5164",
"k  c #505362",
"l  c #515463",
"z  c #505165",
"x  c #535166",
"c  c #545766",
"v  c #555867",
"b  c #57556A",
"n  c #565968",
"m  c #575A69",
"M  c #56596C",
"N  c #575A6D",
"B  c #565B6E",
"V  c #595868",
"C  c #5A5969",
"Z  c #585B6A",
"A  c #595A6E",
"S  c #585B6E",
"D  c #595C6F",
"F  c #5B5C6E",
"G  c #5C5D6F",
"H  c #5E6170",
"J  c #5C6174",
"K  c #5D6275",
"L  c #5E6376",
"P  c #5F6477",
"I  c #606376",
"U  c #626574",
"Y  c #616477",
"T  c #606578",
"R  c #626578",
"E  c #616679",
"W  c #606779",
"Q  c #636679",
"!  c #63657A",
"~  c #61667A",
"^  c #62677A",
"/  c #62677B",
"(  c #64677A",
")  c #61687A",
"_  c #63687B",
"`  c #62697B",
"'  c #65687B",
"]  c #656B7B",
"[  c #636A7C",
"{  c #64697C",
"}  c #64697D",
"|  c #666B7E",
" . c #666C7C",
".. c #676C7F",
"X. c #6D707F",
"o. c #6A6F82",
"O. c #6B7083",
"+. c #6C7280",
"@. c #6F7581",
"#. c #6E7482",
"$. c #6C7184",
"%. c #6E7386",
"&. c #737486",
"*. c #717787",
"=. c #737B86",
"-. c #727888",
";. c #737989",
":. c #747A8A",
">. c #767C8A",
",. c #74798C",
"<. c #797F8B",
"1. c #7B838E",
"2. c #7D8590",
"3. c #7F8792",
"4. c #7E8693",
"5. c #7F8595",
"6. c #7F8794",
"7. c #7F8696",
"8. c #808692",
"9. c #808694",
"0. c #818795",
"q. c #808893",
"w. c #818994",
"e. c #818B94",
"r. c #828A95",
"t. c #838B96",
"y. c #848A96",
"u. c #858B97",
"i. c #828C95",
"p. c #838C95",
"a. c #828C96",
"s. c #838D96",
"d. c #838D97",
"f. c #858E95",
"g. c #848C97",
"h. c #848E97",
"j. c #858E97",
"k. c #818898",
"l. c #828999",
"z. c #838B98",
"x. c #858D98",
"c. c #868C98",
"v. c #878D99",
"b. c #858F98",
"n. c #868F98",
"m. c #868E99",
"M. c #858D9A",
"N. c #878F9A",
"B. c #888E9A",
"V. c #869099",
"C. c #879099",
"Z. c #86909A",
"A. c #87919B",
"S. c #88909B",
"D. c #89919C",
"F. c #8A929D",
"G. c #8B939E",
"H. c #8A979F",
"J. c #8C949F",
"K. c #8D95A0",
"L. c #8E96A1",
"P. c #8F97A2",
"I. c #9096A2",
"U. c #9197A3",
"Y. c #9098A3",
"T. c #9199A4",
"R. c #9298A4",
"E. c #929AA5",
"W. c #939BA6",
"Q. c #949CA7",
"!. c #959DA8",
"~. c #93A0A8",
"^. c #94A1A9",
"/. c #95A2AA",
"(. c #96A3AB",
"). c #97A4AC",
"_. c #98A0AB",
"`. c #98A2AB",
"'. c #99A1AC",
"]. c #9AA2AD",
"[. c #9CA4AF",
"{. c #9DA5B0",
"}. c #9CA9B1",
"|. c #9EA8B2",
" X c #9FA9B3",
".X c #9DAAB3",
"XX c #9EABB3",
"oX c #9EABB4",
"OX c #9FACB4",
"+X c #A0A8B3",
"@X c #A1A9B4",
"#X c #A0AAB4",
"$X c #A1ABB5",
"%X c #A2AAB5",
"&X c #A3ABB6",
"*X c #A0ADB5",
"=X c #A1AEB6",
"-X c #AAB4BD",
";X c #A9B6BF",
":X c #AAB7C0",
">X c #ABB8C0",
",X c #ABB8C1",
"<X c #ACB9C1",
"1X c #AEB8C1",
"2X c #ADBAC2",
"3X c #ADBAC3",
"4X c #AEBBC3",
"5X c #AEBBC4",
"6X c #AFBCC4",
"7X c #AFBCC5",
"8X c #B1BAC3",
"9X c #B1BBC4",
"0X c #B0BDC5",
"qX c #B2BCC5",
"wX c #B0BDC6",
"eX c #B1BEC6",
"rX c #B1BEC7",
/* pixels */
"B.g.u.M.M.s.s.M.g.g.g.g.g.g.g.g.g.g.g.S.g.g.g.g.g.S.g.g.g.g.g.S.g.g.g.g.g.g.g.g.S.g.g.g.S.g.g.S.*X;X",
">.4.M.M.g.C.b.s.S.g.g.g.S.g.g.g.S.g.g.g.S.g.S.g.g.g.S.g.S.g.g.g.S.g.g.g.S.g.g.g.g.g.g.S.g.q.J.].%X%X",
" .:.7.z.g.b.b.e.g.g.g.S.g.S.g.S.g.g.g.g.g.g.g.g.g.g.g.g.g.g.g.g.g.g.g.S.g.S.g.S.g.g.S.g.S.J.].%XW.J.",
"_  .-.9.S.g.f.g.S.g.g.g.g.g.g.g.g.g.S.g.g.g.S.g.g.S.g.g.g.g.S.g.S.g.g.g.g.g.g.g.S.S.g.q.J.].{.].J.g.",
"/ ^  .;.q.r.M.C.g.S.g.g.g.g.C.g.S.g.S.g.S.g.S.g.S.g.S.g.S.g.S.g.C.g.M.g.v.g.M.g.g.g.g.J.].%X].S.S.g.",
"! / ^ ] =.9.M.g.g.g.g.g.g.g.g.g.g.g.g.g.g.g.g.g.g.g.g.g.g.g.g.g.g.g.g.g.g.g.g.g.g.g.J.].%X].J.S.q.g.",
"^ ! ^ ^  .;.9.z.M.g.C.g.B.g.b.g.g.g.g.g.g.g.g.g.g.g.g.S.S.g.g.S.g.g.B.g.g.b.M.g.g.J.].%X].J.g.g.g.M.",
"( ( ( ^ ^ ] ;.k.S.F.S.S.G.S.S.S.J.J.J.S.J.J.J.S.S.J.S.J.S.S.J.S.G.S.S.S.G.S.S.F.S.].&X].S.g.g.g.S.g.",
"! ^  .^ ^ ^  .,.L.=XOX=XXX*XXXXXXXXXXXXX*X*XOX*X*XXXXXXXXXXXXXXXXXXXXXXXXXXXXXXX}.%X!.J.v.q.S.g.g.C.",
"_ ^ _ P ^ ^ / $.).5X4X5X;X4X4X0X4X4X4X4X;XqX;XeX4X4X4X4X4X4X4X4X4X4X4X4X4X4X4X4X;X%XJ.g.g.g.S.g.g.g.",
"P ^  .^ ^ L ^ o.(.4X4X5X4XeX0X0X4X4X4X4XqX4XqX;X4X4X4X4X4X4X4X4X4X4X4X2X4X4X4X4X0X=XS.q.u.g.S.g.B.g.",
"^ ^ / ^ ^ ^ ^ o.~.;X4X5X;X4X4X4X4X<X4XqX;X4XeX;X2X2X2X2X2X2X2X2X2X2X2X2X2X2X2X2X2X%XJ.g.g.g.g.g.g.g.",
"^ ^ / ^ ^ ^ ^ $.^.2X4X0X2X0X0X4X4X4XqX4XeX0X;XeX0X0X0X0X0X0X4X0X0X0X2X0X0X2X0X0X2X}.L.M.v.g.g.g.g.C.",
"/ P ^ P ^ ^ L o.~.2X2X0X2X4X;X4X4X<X4X4X0X;X0X;X4X;X4X;X2X2X4X;X2X2X2X2X2X2X2X2X5X%XM.u.v.B.S.g.M.g.",
"/ ^ ^ L ^ ^ ^ o.(.4X4XeX4X0X0X4X4X4X4X4X;XeX0X0X0X;X4X4X4X4X0X4X4X4X4X4X2X4X4X4X0X%XS.g.v.g.S.g.g.g.",
"/ ^ ^ ^ ^ ^ ^ o.^.2X2X4X;X0X4X4X4X4X4X4X0X0X;X;X0X0X4X4X4X4X4X4X4X4X4X4X4X4X2X2X2X*XJ.g.g.g.g.g.g.S.",
"_ P [ P _ [ P O.^.<X4X0X<X0X4X4X4X4X4X4X4X4X4X4X4X4X4X4X4X4X4X4X4X4X4X4X4X4X4X4X5X%XC.r.v.g.g.S.g.S.",
"_ _ _ _ _ P P $.^.<X<X4X<X4X4X4X4X4X4X4X4X4X4X4X4X4X4X4X4X4X4X4X4X4X4X4X4X4X4X4X5X=XF.h.v.g.g.g.g.g.",
"_ P _ P P [ P $.^.<X4X4X<X4X4X4X4X4X4X4X4X4X4X4X4X4X4X4X4X4X4X4X4X4X4X4X4X4X4X4X5X%XN.z.v.g.g.g.g.S.",
"_ _ _ P _ _ P O.^.<X4X4X<X0X4X4X4X4X4X4X4X4X4X4X4X4X4X4X4X4X4X4X4X4X4X4X4X4X4X4X5X%XF.r.v.g.S.M.g.g.",
"P _ _ P [ ] P $.^.<X4X4X<X0X4X4X4X4X4X4X4X4X4X4X4X4X4X4X4X4X4X4X4X4X4X4X4X4X4X4X5X=XF.r.M.g.C.g.g.g.",
"_ P _ _ P ] P $.^.<X4X4X<X4X4X4X4X4X4X4X4X4X4X4X4X4X4X4X4X4X4X4X4X4X4X4X4X4X4X4X5X%XF.r.B.g.g.g.S.g.",
"_ _ _ P ] P P X.^.<X4X4X<X0X4X4X4X4X4X4X4X4X4X4X4X4X4X4X4X4X4X4X4X4X4X4X4X4X4X4X5X%XF.r.M.u.g.M.g.S.",
"_ P _ _ P ] P X.^.<X4X4X<X4X4X4X4X4X4X4X4X4X4X4X4X4X4X4X4X4X4X4X4X4X4X4X4X4X4X4X5XoXF.r.B.u.g.g.g.g.",
"P _ _ P _ _ P O.^.<X4X0X<X4X4X4X4X4X4X4X4X4X4X4X4X4X4X4X4X4X4X4X4X4X4X4X4X4X4X4X4X%XS.g.v.g.g.g.g.S.",
"_ P _ _ _ _ P O.^.<X<X4X<X0X4X4X4X4X4X4X4X4X4X4X4X4X4X4X4X4X4X4X4X4X4X4X4X4X4X4X4X*XS.g.v.g.S.g.g.g.",
"_ P _ P _ _ P O.^.<X4X0X<X0X4X4X4X4X4X4X4X4X4X4X4X4X4X4X4X4X4X4X4X4X4X4X4X4X4X4X4X=XS.g.v.g.g.S.g.g.",
"_ P _ _ _ _ P O.^.<X<X4X<X4X4X4X4X4X4X4X4X4X4X4X4X4X4X4X4X4X4X4X4X4X4X4X4X4X4X4X2X%XS.g.v.g.g.g.S.g.",
"_ P _ P P _ P O.^.<X4X0X<X4X4X4X4X4X4X4X4X4X4X4X4X4X4X4X4X4X4X4X4X4X4X4X4X4X4X4X5X=XF.r.v.g.g.S.g.S.",
"_ _ _ _ _ _ P O.^.<X<X4X<X4X4X4X4X4X4X4X4X4X4X4X4X4X4X4X4X4X4X4X4X4X4X4X4X4X4X4X5X%XS.u.v.g.g.g.g.g.",
"_ P _ P _ _ P O.^.<X4X0X<X4X4X4X4X4X4X4X4X4X4X4X4X4X4X4X4X4X4X4X4X4X4X4X4X4X4X4X5X%XF.r.B.g.g.S.g.S.",
"_ _ _ P _ _ P O./.;X4X4X<X0X4X4X4X4X4X4X4X4X4X4X4X4X4X4X4X4X4X4X4X4X4X4X4X4X4X4X5X%XF.r.B.g.g.g.g.g.",
"P _ _ P P _ P O.(.2X4X4X4X4X4X4X4X4X4X4X4X4X4X4X4X4X4X4X4X4X4X4X4X4X4X4X4X4X4X4X5X=XF.r.M.g.g.M.g.g.",
"_ P _ _ _ _ P O.~.2X4X5X3X4X4X4X4X4X4X4X4X4X4X4X4X4X4X4X4X4X4X4X4X4X4X4X4X4X4X4X2X%XF.r.B.u.g.g.S.g.",
"_ _ _ P P _ P O.~.3X4X5X3X0X4X4X4X4X4X4X4X4X4X4X4X4X4X4X4X4X4X4X4X4X4X4X4X4X4X4X5X=XF.g.v.g.M.g.g.g.",
"_ P _ _ _ _ _ O.~.5X4X5X4X4X4X4X4X4X4X4X4X4X4X4X4X4X4X4X4X4X4X4X4X4X4X4X4X4X4X4X5X%XB.r.v.g.S.g.S.g.",
"P _ _ P _ _ P O.(.;X4X4X;X0X4X4X4X4X4X4X4X4X4X4X4X4X4X4X4X4X4X4X4X4X4X4X4X4X4X4X4X%XS.g.v.g.g.g.g.g.",
"_ P _ _ _ _ P O.(.4X4XeX4XeX4X0X4X4X4X4X4X4X4X5X4X4X4X4X4X4X4X4X4X4X4X4X4X4X4X4X4X*XS.g.v.g.S.g.S.g.",
"_ P _ P P _ P O.(.;X4XeX4X0X4X4X0X4X0X4X0X4X0X5X0X4X0X4X0X4X0X4X0X4X0X4X0X4X0X4X4X=XS.g.v.g.g.g.g.g.",
"_ P _ _ _ _ P O.(.0X4XeX;X0X4X0X4X0X4X0X4X0X5X9X4X0X4X0X4X0X4X0X4X0X4X0X4X0X4X0X2X%XS.g.v.g.S.g.S.g.",
"P _ _ _ P ^  .O.).-X0X;X;XqXqX;X2X2X2X2X2X2X2X2X2X2X2X2X2X2X2X2X4X4X4X4X4X5X2X5X9X%XG.q.s.S.C.r.S.g.",
"P _ _ _ _ P L J e.H.W.P.R.Q.R.R.R.R.R.R.R.R.R.R.R.R.R.R.R.R.R.R.R.I.R.I.R.I.R.R.I.8.1.6.S.M.h.C.g.g.",
"[ P ^ _ _ ^ M h k m m v V m V m C C C C C C C C C C C C C C C C V V V V V V b C F z v X.4.s.s.s.g.S.",
"P [ ^ ^ ^ A h 8 O @ @ O @     @ O O O O O O O O O O O O O O O O O O O O O O O O O o 9 C #.6.C.s.g.M.",
"[ [ _ ^ A h 9 1 y a 6 9 y 6 1 y 5 9 y 5 a 9 6 9 5 9 5 9 5 9 y 5 9 5 9 y 9 5 9 9 $ y 9 r Z #.q.g.g.M.",
"[ _ Y B d 5 5 5 , 5 , 1 y 1 $ 5 ; ; ; ; ; ; ; ; 8 ; 8 5 ; ; ; ; ; ; ; ; ; 5 5 8 1 6 9 : 7 c X.q.g.C.",
"^ L M z 9 1 5 5 5 5 - 5 a 9 1 5 5 9 5 9 5 5 9 5 5 5 5 9 5 9 5 9 1 5 5 5 1 9 1 1 y 6 5 p 1 9 G &.1.g.",
"L B h 7 5 6 9 6 ; 9 8 ; 5 8 7 9 5 9 1 5 1 5 5 5 9 9 5 5 5 9 1 5 9 9 5 5 5 6 9 1 9 1 & 9 1 - p b =.1.",
"z f 9 5 9 5 9 5 9 5 1 5 9 5 7 5 9 5 5 5 7 5 5 7 7 5 9 7 5 9 9 5 5 5 5 5 9 9 5 5 5 5 9 9 5 5 5 7 H Y ",
"a y 5 5 5 9 5 5 5 - 9 5 9 1 5 5 7 5 9 5 5 9 9 5 5 5 5 5 5 5 5 7 5 9 9 1 5 1 5 9 9 1 5 1 5 7 5 9 # 7 "
};
