/* XPM */
static char *Rubis1666785317[] = {
/* columns rows colors chars-per-pixel */
"50 50 99 2 ",
"   c None",
".  c #0F1019",
"X  c #16111A",
"o  c #18111A",
"O  c #24131F",
"+  c #28131F",
"@  c #251520",
"#  c #2B1622",
"$  c #341524",
"%  c #3C1727",
"&  c #331927",
"*  c #351928",
"=  c #3C1B2A",
"-  c #50171E",
";  c #54181F",
":  c #461924",
">  c #421A2A",
",  c #4B1B28",
"<  c #5E1A20",
"1  c #561E2B",
"2  c #5D1D2C",
"3  c #451F31",
"4  c #4B1F31",
"5  c #601C22",
"6  c #6A1C22",
"7  c #671F2E",
"8  c #701D22",
"9  c #462133",
"0  c #4A2235",
"q  c #4D2539",
"w  c #512335",
"e  c #5D2335",
"r  c #502539",
"t  c #5D2639",
"y  c #66272B",
"u  c #65282D",
"i  c #682B2F",
"p  c #642435",
"a  c #6D2637",
"s  c #692C30",
"d  c #63273A",
"f  c #6A283A",
"g  c #772938",
"h  c #7E2A3A",
"j  c #7B3336",
"k  c #84232A",
"l  c #952529",
"z  c #98252A",
"x  c #812A36",
"c  c #8C2836",
"v  c #812B3B",
"b  c #8D2C3B",
"n  c #912A37",
"m  c #9E2B37",
"M  c #942D3B",
"N  c #9D2D3A",
"B  c #8C3A3C",
"V  c #903C3E",
"C  c #A2282C",
"Z  c #A52F3B",
"A  c #AB2E3A",
"S  c #B42C35",
"D  c #BA2D33",
"F  c #A7303C",
"G  c #A9303D",
"H  c #BE3136",
"J  c #B4313C",
"K  c #BB323B",
"L  c #C22F34",
"P  c #C33136",
"I  c #CB3236",
"U  c #C23239",
"Y  c #C8373B",
"T  c #D13336",
"R  c #D4393C",
"E  c #C23D41",
"W  c #CD3E41",
"Q  c #BE4F50",
"!  c #BE5051",
"~  c #CE474A",
"^  c #C54D4E",
"/  c #C75354",
"(  c #CC5355",
")  c #DF5354",
"_  c #DE5758",
"`  c #DF5E5E",
"'  c #E15656",
"]  c #E55E5F",
"[  c #DF6465",
"{  c #E66161",
"}  c #E96363",
"|  c #E76969",
" . c #E86E6E",
".. c #E27272",
"X. c #E97575",
"o. c #E37B7B",
"O. c #E97E7E",
"+. c #EA8383",
"@. c #EC8B8B",
/* pixels */
"                                                                                                    ",
"                                                                                                    ",
"                                                                                                    ",
"                                                                                                    ",
"                                                                                                    ",
"                                              u s y 6 ; <                                           ",
"                                          X B / ( ^ H D C -                                         ",
"                                          V Q { } ' R T P z 6                                       ",
"                                        j / ] { } ' R I T I l ;                                     ",
"                                    X B / ` { { { ' R T T T L C -                                   ",
"                                    B ! { { { { { ) R T T T T L l 6                                 ",
"                                  j / ] { { } | { ) R T T T T T I l ;                               ",
"                              . B / ` { { { X.+.| R T T T T T T T P C ;                             ",
"                              V ! { } ] } X.O.o.( P U I T T T T T T L z 8                           ",
"                            u ^ ` } } |  .+.o.~ J G J P I T T T T T I H k @                         ",
"                        X , x E ) } +.@.+...( K G F G G P T T T T T P n d > @                       ",
"                        X 1 c A W _ ..+.o.( D G G G G F J U I T T H N t q 9 @                       ",
"                        X 1 h v F Y Y W W K A G G G G G F G U I U n t r q 9 @                       ",
"                        X 1 v v b N N S I J F G G G G G G G J G b d q q r 9 @                       ",
"                        X 1 h v v h h Z I J G G G G G G G G G M t q r r r 9 @                       ",
"                        o 1 h v v v v Z I K G G G G G G G G G N t q r r r 9 @                       ",
"                        X 1 h v h v v F P K G G G G G G G G G M t q r r r 0 @                       ",
"                        o 1 h v v v h N H J G G G G G G G G G M d q r r r 9 @                       ",
"                        o 1 h v v v v M G G G G G G G G G G G N t q r r r 9 @                       ",
"                        o 1 v v v v v N K J G G G G G G F G G M t q q r r 9 @                       ",
"                        o 1 h v v v v N K J G G G G G G G G G M d q r r r 9 @                       ",
"                        o 1 h v v v v M G G G F G G G G G G G M t q r r r 9 @                       ",
"                        X 1 h v v v v M G G G G G G G G G G G M t q r r r 9 @                       ",
"                        X 1 h v v v v b F G G G G G G G G G G M d q q r r 9 @                       ",
"                        X w h v v h v b Z G G G G G G G G G G M t q q r r 0 @                       ",
"                        X 1 v v h f d f h N G G G G G G G G b f 4 > 3 w r 9 @                       ",
"                        o 1 h h d r q q t v N G G G G G Z M f 3 % % > 0 q 9 @                       ",
"                        X 1 g d r r r r r t h F G G G G n 2 > % % % > % 0 3 @                       ",
"                          : 1 w r r r r q q d j N G Z b 7 > % % % % % % * &                         ",
"                            O = 0 q r q r r q t v M b 7 % % % % % % % $ + X                         ",
"                              @ = q r q r r r r t e 1 > % % % % % % $ @                             ",
"                                # = 0 q r r r q q 3 % % % % % % % $ +                               ",
"                                  @ 3 9 r r r r r 0 % % % % % % $ + o                               ",
"                                    @ = q q r r r 4 = % % % % $ @                                   ",
"                                      # = q q q r 0 > % % % $ @                                     ",
"                                        @ = 0 q w 0 > % % $ @ o                                     ",
"                                          @ = q q 0 % % $ O                                         ",
"                                            # = = * # + +                                           ",
"                                              o o o o o o                                           ",
"                                                                                                    ",
"                                                                                                    ",
"                                                                                                    ",
"                                                                                                    ",
"                                                                                                    ",
"                                                                                                    "
};
