/* XPM */
static char *Chest_open1666786016[] = {
/* columns rows colors chars-per-pixel */
"50 50 22 1 ",
"  c #31302F",
". c #5B5C5C",
"X c #737273",
"o c gray83",
"O c #472E06",
"+ c white",
"@ c #B0B0B4",
"# c #78480B",
"$ c #CA7C1E",
"% c #E6E6E6",
"& c gray75",
"* c #DE8A27",
"= c #8B8B8B",
"- c #77787A",
"; c #62471C",
": c #818080",
"> c #FFFF25",
", c #716A61",
"< c #DBAA6B",
"1 c #FFFF27",
"2 c #FFFF13",
"3 c #FFFF29",
/* pixels */
"oooooooooo===&oo&======&oo&=======================",
"oooooooooo===&oo&======&oo&=======================",
"oooooooooo===&oo&======&oo&=======================",
"oooooooooo===&oo&======&oo&=======================",
"ooo@@@@@@@,,,=@@=,,,,,,=@@=,,,,,,,,,,,,,,,,,,,-===",
"ooo:OOOOOOOOOOOOOOOOOOOOOOOOOOOOOOOOOOOOOOOOOO.===",
"ooo:OOOOOOOOOOOOOOOOOOOOOOOOOOOOOOOOOOOOOOOOOO.===",
"ooo:OOOOOOOOOOOOOOOOOOOOOOOOOOOOOOOOOOOOOOOOOO.===",
"ooo:OOOOOOOOOOOOOOOOOOOOOOOOOOOOOOOOOOOOOOOOOO.===",
"===.OOOOOOOOOOOOOOOOOOOOOOOOOOOOOOOOOOOOOOOOOO.===",
"===.OOOOOOOOOOOOOOOOOOOOOOOOOOOOOOOOOOOOOOOOOO.===",
"===.OOOOOOOOOOOOOOOOOOOOOOOOOOOOOOOOOOOOOOOOOO.===",
"===.OOOOOOOOOOOOOOOOOOOOOOOOOOOOOOOOOOOOOOOOOO.===",
"===.OOOOOOOOOOOOOOOOOOOOOOOOOOOOOOOOOOOOOOOOOO.===",
"===.OOOOOOOOOOOOOOOOOOOOOOOOOOOOOOOOOOOOOOOOOO.===",
"===.OOOOOOOOOOOOOOOOOOOOOOOOOOOOOOOOOOOOOOOOOO.===",
"===.OOOOOOOOOOOOOOOOOOOOOOOOOOOOOOOOOOOOOOOOOO.===",
"===.OOOOOOOOOOOOOOOOOOOOOOOOOOOOOOOOOOOOOOOOOO.===",
" ...................&&&&&&&&&&....................",
"   .................&&&ooooooo.................   ",
"   .................&&oooooooo.................   ",
"   .................&&oooooooo.................   ",
"   ........,,......,oooo&&oooo.,,....,,........   ",
"   ;######XXX.;;.XXXooo&@@&oooXXX.##,XXX######;   ",
"   ;######XXX.;;.XXXooo&@@&oooXXX.##,XXX######;   ",
"   ;######XXX.;;.XXXooo&@@&oooXXX.##,XXX######;   ",
"   ;######XXX.;;.XXXooo&@@&oooXXX.##,XXX######;   ",
"   ;######;;;,,,XXXXooo&@@&oooXXXX,,,;;;######;   ",
"   ;#########,XXXXXXooo&@@&oooXXXXXX,#########;   ",
"   ;#########,XXXXXXooo&@@&oooXXXXXX,#########;   ",
"   ;#########,XXXXXXooo&@@&oooXXXXXX,#########;   ",
"   ;#########,,,,XXXooo&@@&oooXXX,,,,#########;   ",
"   ;############,XXX&&&@@@@&&&XXX.############;   ",
"   ;############,XXX&&&@@@@&&&XXX.############;   ",
"   ;############,XXX&&&@@@@&&&XXX.############;   ",
"   ;############,XXX&&&@@@@&&&XXX.############;   ",
"   ;############;,,,:::@@@@:::,,,;############;   ",
"   ;###################@@@=###################;   ",
"   ;###################@@@=###################;   ",
"   ;###################@@@=###################;   ",
"   ;###################@@@@###################;   ",
"   ;###################>>>>>>>################;   ",
"   ;###################>>>>>>>################;   ",
"   ;###################>>>>>>>################;   ",
"   ;###################>>>>>>>################;   ",
"   ;;;;;;;;;;;;;;;;;;;;$$$$$$$;;;;;;;;;;;;;;;;    ",
"                                                  ",
"                                                  ",
"                                                  ",
"..  ..  ..  ...  ..  ...  ..  ..   ..  ..   ..  .."
};
