/* XPM */
static char *Chest_closed1666785918[] = {
/* columns rows colors chars-per-pixel */
"50 50 22 1 ",
"  c #31302F",
". c #5B5C5C",
"X c #737273",
"o c gray83",
"O c #472E06",
"+ c white",
"@ c #B0B0B4",
"# c #78480B",
"$ c #CA7C1E",
"% c #E6E6E6",
"& c gray75",
"* c #DE8A27",
"= c #8B8B8B",
"- c #77787A",
"; c #62471C",
": c #818080",
"> c #FFFF25",
", c #716A61",
"< c #DBAA6B",
"1 c #FFFF27",
"2 c #FFFF13",
"3 c #FFFF29",
/* pixels */
"oo&&<<<<<<<<<<<<<<<<<<<<<<<<<<<<<<<<<<<<<<<<<<<&oo",
"&@@<*$*****$$$$$$$$$$$$********$$$$$$****$$$$$*<&&",
"&@@<*$*****$$$$$$$$$$$$********$$$$$$***$$$$$$*<&&",
"&@@<*$*****$$$$$$$$$$$$********$$$$$$***$$$$$$*<&&",
"&@@<*$*****$$$$$$$$$$$$********$$$$$$***$$$$$$*<@@",
"&@@<*$*****$$$$$$$$$$$$********$$$$$$***$$$$$$*<@@",
"&@@<*$*****$$$$$$$$$$$$********$$$$$$***$$$$$$*<@@",
"&@@<*$*****$$$$$$$$$$$$********$$$$$$***$$$$$$*<@@",
"&@@<*$*****$$$$$$$$$$$$********$$$$$$***$$$$$$*<@@",
"&@@<*$*****$$$$$$$$$$$$********$$$$$$***$$$$$$*<@@",
"&@@<*$*****$$$$$$$$$$$$********$$$$$$***$$$$$$*<@@",
"&@@<*$*****$$$$$$$$$$$$********$$$$$$***$$$$$$*<@@",
"&@@<*$*****$$$$$$$$$$$$********$$$$$$***$$$$$$*<@@",
"&@@<*$*****$$$$$$$$$$$$********$$$$$$***$$$$$$*<@@",
"&@@<*$*****$$$$$$$$$$$$********$$$$$$***$$$$$$*<@@",
"&@@<*$$***$$$$$$$$$$$$$$*******$$$$$$***$$$$$$*<@@",
"&@@@<<<<<<<<<<<<<<<<<<<<<<<<<<<<<<<<<<<<<<<<<<<@@@",
"&@@@@@@@@@@@@@@@@@@@@@@@@@@@@@@@=@@@@@@@@@@@@@@@@@",
"&@@@@@@@@@@@@@@@@@@@@@@@@@@@@@@@@@@@@@@@@@@@@@@@@@",
"&@@@@@@@@@@@@@@@@@@&@@@@@@@@@@@@@@@@@@@@@@@@@@@@@@",
"@@@@@@@@@@@@@@@@@@@@@@@@@@@@@@@@@@@@@@@@@@@@@@@@@@",
":--:================@&&&&&&&&&@===============:-XX",
"   .................@&&ooooooo@.................  ",
"   .................@&&ooooooo@.................  ",
"   .................@&&ooooooo@.................  ",
"   ;.......,,,...,,,@oo&@=@&oo@,,,...,,,.......;  ",
"   ;;;;;#.,XX,;;;XXX@oo@X ,@oo@XXX;;;,XX,,;;;;;;  ",
"   ;#####,,XX,;;;XXX@oo@, .@oo@-XX;##,XXX,#####;  ",
"   ;#####,,XX,;;;XXX@oo@, .@oo@-XX;##,XX,,#####;  ",
"   ;#####;.,,,,,,XXX@oo@, .@oo@-XX,,,,,,.;#####;  ",
"   ;######;;;.XXXXXX@oo@, .@oo@-XXXXX.;;;######;  ",
"   ;#########;XXXXXX@oo@, .@oo@-XXXXX.#########;  ",
"   ;#########;XXXXXX@oo@. .@oo@-XXXXX.#########;  ",
"   ;#########;,,,XXX@&&@=X=@&&@-XXX,,;#########;  ",
"   ;#########;;.,XXX@&&&@@@&&&@-XX,..##########;  ",
"   ;#############XXX@&&&&&&&&&@-XX;############;  ",
"   ;############;XXX@&&&&&&&&&@-XX;############;  ",
"   ;############;,XX=@@@@@@@@@=XX,;############;  ",
"   ;#############,,,,XXXXXXXXX,,,,#############;  ",
"   ;###########################################;  ",
"   ;###########################################;  ",
"   ;###########################################;  ",
"   ;###########################################;  ",
"   ;###########################################;  ",
"   ;###########################################;  ",
"   ;###########################################;  ",
"   ;;;;;;;;;;;;;;;;;;;;;;;;;;;;;;;;;;;;;;;;;;;;;  ",
"                                                  ",
"                                                  ",
"                                                  "
};
