/* XPM */
static char *_e1445c2a4724422c231958b11fb1d6dzq1jzr791EKjE2hK[] = {
/* columns rows colors chars-per-pixel */
"50 50 187 2 ",
"   c None",
".  c #000001",
"X  c #010D02",
"o  c #0B0302",
"O  c #031502",
"+  c #021D03",
"@  c #1F1811",
"#  c #27130C",
"$  c #3A1E0C",
"%  c #281610",
"&  c #022206",
"*  c #062B06",
"=  c #003E02",
"-  c #0B3D0B",
";  c #093509",
":  c #043E11",
">  c #1B3810",
",  c #242501",
"<  c #312713",
"1  c #3E3325",
"2  c #47271F",
"3  c #4D2A17",
"4  c #532D15",
"5  c #593218",
"6  c #483A14",
"7  c #6E3E1F",
"8  c #703E1E",
"9  c #4A2920",
"0  c #532E20",
"q  c #473B2E",
"w  c #4E3829",
"e  c #6B3D21",
"r  c #0D420D",
"t  c #0D4911",
"y  c #084813",
"u  c #075219",
"i  c #0C5C1B",
"p  c #0A5618",
"a  c #1D5612",
"s  c #2F4A18",
"d  c #0B631C",
"f  c #19641D",
"g  c #296F19",
"h  c #2E7C1D",
"j  c #27701A",
"k  c #0C6520",
"l  c #0E6B22",
"z  c #0F7325",
"x  c #0F7B29",
"c  c #007927",
"v  c #107B29",
"b  c #1D7B2A",
"n  c #3C7027",
"m  c #307124",
"M  c #55431B",
"N  c #474A1B",
"B  c #73411E",
"V  c #544B2F",
"C  c #694823",
"Z  c #744121",
"A  c #794A29",
"S  c #6D5B22",
"D  c #665525",
"F  c #7D5031",
"G  c #6B5136",
"H  c #597225",
"J  c #787B37",
"K  c #1D3B57",
"L  c #273950",
"P  c #2E425C",
"I  c #005B7F",
"U  c #39516F",
"Y  c #274D70",
"T  c #637B65",
"R  c #947B1D",
"E  c #81592B",
"W  c #855A32",
"Q  c #8A6433",
"!  c #977538",
"~  c #8D6A34",
"^  c #A57A3C",
"/  c #836E54",
"(  c #94785C",
")  c #936C4D",
"_  c #A47B41",
"`  c #A97F42",
"'  c #30811F",
"]  c #1D8229",
"[  c #2B8D29",
"{  c #258829",
"}  c #338620",
"|  c #368B21",
" . c #3D9C26",
".. c #3A9D29",
"X. c #359728",
"o. c #3FA229",
"O. c #558B1C",
"+. c #568828",
"@. c #6D982C",
"#. c #41A429",
"$. c #7BB625",
"%. c #718C73",
"&. c #9D9D01",
"*. c #AEAE01",
"=. c #AEA41B",
"-. c #AD873E",
";. c #B49839",
":. c #A39525",
">. c #91A73B",
",. c #8AA435",
"<. c #BFA739",
"1. c #B0B938",
"2. c #C1B519",
"3. c #C0A838",
"4. c #C3AE37",
"5. c #C9B635",
"6. c #CCB831",
"7. c #AFC21F",
"8. c #B4D11E",
"9. c #91C023",
"0. c #C8C800",
"q. c #DDD70F",
"w. c #FFFF00",
"e. c #FAF90C",
"r. c #E7E717",
"t. c #F9F516",
"y. c #D2C232",
"u. c #D9CB28",
"i. c #E6DE24",
"p. c #E4DA29",
"a. c #EFDB3A",
"s. c #F5E92C",
"d. c #F7F339",
"f. c #AB8242",
"g. c #B68C45",
"h. c #AC8553",
"j. c #B08851",
"k. c #9C8565",
"l. c #A48465",
"z. c #AB8B66",
"x. c #B7986D",
"c. c #CD9D4D",
"v. c #D3A34E",
"b. c #D7AB4D",
"n. c #DEAC52",
"m. c #D7A650",
"M. c #D5AF49",
"N. c #C09E71",
"B. c #CAAD76",
"V. c #E7C547",
"C. c #F5EF47",
"Z. c #FFFA62",
"A. c #2D509B",
"S. c #3B559C",
"D. c #3E4E91",
"F. c #007EAE",
"G. c #48618E",
"H. c #0088BC",
"J. c #7294AD",
"K. c #00BAFF",
"L. c #6FA3CB",
"P. c #B39B91",
"I. c #88A88B",
"U. c #BAA687",
"Y. c #B6B6B7",
"T. c #C8A982",
"R. c #D0AF87",
"E. c #D5B48B",
"W. c #D9BD96",
"Q. c #D5C09A",
"!. c #E3C79F",
"~. c #E8CBA3",
"^. c #E5CBA3",
"/. c #ECD4AC",
"(. c #EDD9B0",
"). c #F6DBB2",
"_. c #FEE6BD",
"`. c #FAE0B7",
"'. c #B1BDC6",
"]. c #9DCAEB",
"[. c #CECECF",
"{. c #FEE9C7",
"}. c #FDEDD5",
"|. c #EAEAEB",
" X c #EEEFF0",
".X c white",
"XX c #F7F8FA",
/* pixels */
"                                                                                                    ",
"                                                                                                    ",
"                                                                                                    ",
"                                v v X.#.#.#.#.#.| r i v H Z A _ _                                   ",
"                                [ [ ..#.#.#.#.#.} r f [ @.=.=.u.y.                                  ",
"                        v v v x ..#.#.#.#.#.#.#.} r g #.9.w.w.w.t.n.n._ _                           ",
"                        v v { { ..#.#.#.#.#. .| } g +.>.1.s.s.i.p.c.c.5.5.                          ",
"                    r r v x o.o.#.#.#.#.#.#.h r h #.>.n.n.n.m._ _ _ f.w.w.f._                       ",
"                    p p v x X...o.#.o.o.o.o.' r j #.>.c.m.V.M.f._ g.g.i.r.5.3.                      ",
"                r r v v v v x x  .#.#.o.#.o.' t h #.@._ 3.w.t._ ` n.n._ _ e.w.;._                   ",
"                r r v v ] x v v X. . . . . .' a O.$.,._ <.w.t.h.j.v.v.f.f.e.w.;.!                   ",
"                r r v v v v v v p - - r r r ' o.8.w.i._ <.w.d.E.R.Z Z m.n.t.w.R Z                   ",
"                t t v v v v v v p t t t r r m o.8.w.i._ <.e.d.E.R.F F m.m.t.e.R Z                   ",
"            r t v v v v v v v v v v v v i r d ] 7.w.i._ _ _ h.E.E.E.E.A 8 _ _                       ",
"            r r v v v v v v v v v v v v d r f b 7.w.i._ _ _ h.E.E.E.E.A 8 _ _                       ",
"            r t v v v v t r r r l v i r l x J _ _ _ 5.w.C.E.W.{._.E.R.% o                           ",
"            r t v v v v r r r r z v i r d ] J ^ _ _ 5.w.C.E.W._._.E.E.% .                           ",
"            X & v v t t O X - r r t f v d r N B ~ _ 5.w.Z._./.q q E F o .                           ",
"            . + v v r r X . - r = r d ] i r 6 B W ^ 6.w.Z._.(.. o B 8 . .                           ",
"            . O t p r r X . - = Q.(.(.(.Q.T.l.Z ^ n.c.;.B._.{. X|.D.D.T.T.1 .                       ",
"            . X r - r r X . - = ^._._._.^.E.z.B ^ n.c._ N._.{..XXXA.S.E.E.1 .                       ",
"            . + z z & +     + + z.x./._.`.).U.$ =.s.u.E z._.{..XXXA.S.E.E.1 .                       ",
"            . + v v X .     . . ~ _ ^.{._._.U.. *.w.q.Z l._.{..XXXA.S.E.E.1 .                       ",
"            . O i i X .     . . M D z.B.'.].J.. *.w.q.Z l._.{.}.}.P.P./ /                           ",
"            . X r r . .     . . . . Q _ L.K.H.. *.w.q.Z l._._._._.R.E.@ .                           ",
"                * *         0.0.;.f.Q S G.F.I . *.w.q.8 ( ~.~.~.^.( (                               ",
"                . .         w.w.V.n.Q . X . . . *.w.q.Z ) E.E.E.R.. .                               ",
"                .               ;.-.D * y i : . :.a.6.4 G k.k.k.k.                                  ",
"                                . . ; r l v p . ! n.g.. & r - . .                                   ",
"                                . . u i i d s 3 E f.! u i i i p u                                   ",
"                                . . d v u . 4 C 5 X y x v v v v v . .                               ",
"                                . . k v u . N D N y p k l v v v h &.&.                              ",
"                                . . k z u . p x x x k . : x x x +.w.w., .                           ",
"                                : : m n s . T I.I.I.%.. > H n n +.q.q., .                           ",
"                            . . l x D 8 3 . Y..X.X.X[.. $ Z Z 8 C c ] O .                           ",
"                            . . l x H S 6 . Y. X X X[.. < S S S S ] ] X .                           ",
"                            . . l v X.#.g . K Y Y Y K . a #.#.#.o.#.#.O .                           ",
"                            . . l v X.#.g . L U U U P . a #.o.#.#.o. .O .                           ",
"                                . . } #.g . 4 8 B Z 5 . : v ] #.o.. .                               ",
"                                . . } #.g . 4 A A A e . : v ] #. .. .                               ",
"                                    O O X . k.E.^._.W.. . X X O O                                   ",
"                                    . . . . k.E.^.{.Q.. . . . . .                                   ",
"                                        . . < 1 q V q 9 9 9 0 8 7 . .                               ",
"                                        . . . . . . % 9 9 9 3 Z 8 . .                               ",
"                                            . . . . % 9 0 Z 8 Z 8 . .                               ",
"                                            . . . . % 9 0 Z Z Z B . .                               ",
"                                                      # % $ $ $ $                                   ",
"                                                      . . . . . .                                   ",
"                                                                                                    ",
"                                                                                                    "
};
