/* XPM */
static char *_de3cf06477347ee8a2c193213452613CiuP0NCo0NyznESf[] = {
/* columns rows colors chars-per-pixel */
"50 50 191 2 ",
"   c None",
".  c #000001",
"X  c #0A0201",
"o  c #000C02",
"O  c #02060C",
"+  c #1E0D07",
"@  c #011E06",
"#  c #0C1003",
"$  c #1F1811",
"%  c #201707",
"&  c #22110B",
"*  c #271A08",
"=  c #2B1610",
"-  c #321910",
";  c #220C09",
":  c #012006",
">  c #07380C",
",  c #113E0C",
"<  c #043D11",
"1  c #252617",
"2  c #272701",
"3  c #14273A",
"4  c #3E3325",
"5  c #492408",
"6  c #442410",
"7  c #47271C",
"8  c #433016",
"9  c #57331A",
"0  c #703A0D",
"q  c #6D3E1E",
"w  c #66391C",
"e  c #713F1D",
"r  c #4A2920",
"t  c #522D20",
"y  c #563020",
"u  c #6C3D20",
"i  c #713C20",
"p  c #0B410C",
"a  c #16430C",
"s  c #054A16",
"d  c #054715",
"f  c #075219",
"g  c #304111",
"h  c #0C6A22",
"j  c #0E7326",
"k  c #027A27",
"l  c #0D7B29",
"z  c #067B28",
"x  c #117B29",
"c  c #177425",
"v  c #247928",
"b  c #227F25",
"n  c #3D7027",
"m  c #67451D",
"M  c #73411F",
"N  c #4E5C38",
"B  c #6B4D21",
"V  c #734220",
"C  c #794E24",
"Z  c #655222",
"A  c #7E5132",
"S  c #725839",
"D  c #416F27",
"F  c #6A6623",
"G  c #34506F",
"H  c #4B4D73",
"J  c #634762",
"K  c #6E786A",
"L  c #74667F",
"P  c #735051",
"I  c #84611F",
"U  c #947B1D",
"Y  c #865A2C",
"T  c #855C3C",
"R  c #8B6834",
"E  c #956B33",
"W  c #966D38",
"Q  c #9A7438",
"!  c #8A682C",
"~  c #A27B3D",
"^  c #A17A3B",
"/  c #9F7B40",
"(  c #846D52",
")  c #957254",
"_  c #9B785B",
"`  c #A47B41",
"'  c #A97F42",
"]  c #91736A",
"[  c #1C8229",
"{  c #238629",
"}  c #2B8D29",
"|  c #2C8029",
" . c #3D9B26",
".. c #369829",
"X. c #3B9C29",
"o. c #359729",
"O. c #3FA329",
"+. c #488727",
"@. c #5A9F2E",
"#. c #549B2D",
"$. c #4B9C2A",
"%. c #41A429",
"&. c #4CA22B",
"*. c #7AB526",
"=. c #6CAB29",
"-. c #9B823E",
";. c #AD8A3F",
":. c #AB883A",
">. c #B5973C",
",. c #B3843E",
"<. c #BDA439",
"1. c #CBB636",
"2. c #C1A938",
"3. c #D2CB13",
"4. c #FFFE01",
"5. c #FBF90A",
"6. c #EDE81E",
"7. c #EDE71F",
"8. c #F9F616",
"9. c #EDEA12",
"0. c #D8CB2D",
"q. c #DED429",
"w. c #D2C231",
"e. c #ECD43E",
"r. c #E4D42F",
"t. c #E9E224",
"y. c #F6EB2B",
"u. c #FDFE27",
"i. c #F2E135",
"p. c #EBE730",
"a. c #A78040",
"s. c #AA8341",
"d. c #B58A45",
"f. c #AC8656",
"g. c #B0935B",
"h. c #A88766",
"j. c #B69165",
"k. c #B99874",
"l. c #A69368",
"z. c #BCA87C",
"x. c #D4A34E",
"c. c #DEAC52",
"v. c #D7A650",
"b. c #CEA04C",
"n. c #E3BC4B",
"m. c #C7A57B",
"M. c #CD9E4D",
"N. c #E7C547",
"B. c #30529C",
"V. c #00719D",
"C. c #27769C",
"Z. c #7E7A92",
"A. c #00BAFF",
"S. c #27BCFD",
"D. c #72BAE9",
"F. c #87A68A",
"G. c #8D94B6",
"H. c #8D8BA5",
"J. c #B8ABA9",
"K. c #A9A5B3",
"L. c #8F8795",
"P. c #CAAA84",
"I. c #D0AF87",
"U. c #CFB38E",
"Y. c #D5B48B",
"T. c #D2B187",
"R. c #DBBC94",
"E. c #D4B894",
"W. c #C0BCBA",
"Q. c #DEC29C",
"!. c #DEC097",
"~. c #E4C79E",
"^. c #C9C0BD",
"/. c #E9CDA4",
"(. c #EDD2A9",
"). c #F2D7AE",
"_. c #ECD7B7",
"`. c #F6DCB4",
"'. c #F9DFB7",
"]. c #FFE6BD",
"[. c #FFE8BF",
"{. c #C8C8C8",
"}. c #E9DED5",
"|. c #EFE2D2",
" X c #FFECD0",
".X c #FFF1DC",
"XX c #D6D9E4",
"oX c #EAEAEA",
"OX c #F0EEED",
"+X c #FFF5E4",
"@X c #FDFDFD",
/* pixels */
"                                                                                                    ",
"                                                                                                    ",
"                                                                                                    ",
"                                . . h x l x x x x x h . .                                           ",
"                                s f { } } } } } } } b f s                                           ",
"                            . . h x ..%.%.%.%.%.%.%...x h . .                                       ",
"                            d s j x } ..............} x j s s                                       ",
"                        . . j x x x x x x x x x x x x x x x j . .                                   ",
"                        < < b { { { { { { { { { { { { { { { b < <                                   ",
"                    . . x x X.%.%.%.%.%.%.%.%.O.%.%.%.%.%.%.X.x x . .                               ",
"                    . . x { #.@.*.*.*.*.=.@.@.@.=.*.=.@.@.@.#.[ x X .                               ",
"                    . . O.O.-.` 6.4.4.4.w.` ` ` w.4.t.~ ` ` -.%.X.. .                               ",
"                    @ @ $.&.Q ` 6.4.5.5.w.;.s.` w.4.t.d.s.` -.&.$.@ @                               ",
"                . o x l ` ` ` ` 6.4.1.` q.4.0.` w.4.4.4.6.` ` ` / l x o .                           ",
"                X # x x / ` ~ ~ 7.4.1.:.q.5.0.a.w.4.4.4.7.' :.` ` x x # X                           ",
"        ` f.Y.I.M V V V v.c.u.4.N.c.y.5.w.a.0.4.i.c.b.~ 2.4.6.` ^ V V V e T.Y.f.`                   ",
"        ~ f.T.I.M i i i v.c.8.4.N.c.y.4.1.~ 0.4.i.c.b.~ 2.4.8.^ ` i i e e I.T.f.`                   ",
"        C ) ].].'.'.` ` 8.8.<.d.t.8.1.;.` ` 0.4.q.s.j.I.m.,.>.5.8.Q ` '.'.].].) C                   ",
"        e ) [.[.].].' ` 5.4.>.` 7.4.1.~ ` ` 0.4.q.~ j.Y.m.` >.4.5.` ' ].].].[.) V                   ",
"            ) _ R.R.A C >.>.b.v.y.4.8.8.e.v.>.U g.I.!.'./.~ d.n.n.` ` R.R._ )                       ",
"            V A Y.T.V i ~ ` v.c.y.4.4.4.N.c.,.e f.Y.~.].(.~ s.c.v.~ ` Y.Y.A V                       ",
"                D.D.t.9.I Y x.c.N.N.1.2.:.E h.m.R.).`.].`.m.m.E Q 7.p.D.D.                          ",
"                A.S.u.4.I e x.c.c.c.d.` ! V h.Y./. X X].`.Y.P.e I 4.u.S.A.                          ",
"                V.C.8.4.-.W R ! s.d.^ Y f.k.R.)./.!.E.k.h.( ( E :.4.8.C.V.                          ",
"                . 2 4.4.;.` 8 . R ^ Y i j.Y./.].).Y.k.V u . 8 ` :.4.4.2 .                           ",
"                . 2 e.e.E Y W.{.L.Z.P V P.(.`.].~._ ] H Z.{.W.Y E e.e.% .                           ",
"                . % c.c.C 0 OX@XG.B.J i E.].].].R.V J B.G.@XOX0 Y c.c.% .                           ",
"                . % ~ ~ w 5 |..XH.B.K.{._.].].]._.^.K.B.G.+X|.5 9 ~ ~ % .                           ",
"                    . . . . ).].H.B.XX@X.X].].]..X@XXXB.H.].(.. . . .                               ",
"                    . . . . U.Q.J.J.}.+X X].]. X X+X}.J.W.R.Y.. . . .                               ",
"                        . . W ` (.]. X].].].].].].]. X].(.` Q . .                                   ",
"                        s s R E U.Q./.).).).).).).(.(.R.U.W R s s                                   ",
"                    . . j l B M e V k.Y.Y.Y.Y.Y.Y.Y.k.e V V B l l . .                               ",
"                    3 3 F.F.S m Z Z l.z.z.z.z.z.z.z.l.Z Z m S F.F.+ &                               ",
"                . O G G @X@XK d j l z k z k k k k k z l h p K @XOX7 r . .                           ",
"                * - G H oXoXK g c x l x x x x x x x x x c g K OXoXt t - *                           ",
"            . + V V M e . . q e n x l x x [ x x x l x x n V q . X V i i V + .                       ",
"            . & A A T T % o m B D c v v +.+.+.+.+.v v c D B m o * T T Y A & .                       ",
"            . 4 Y.Y.].].N , %.%.F V V V 3.4.4.4.3.V V V F %.X.p N  X].Y.Y.4 .                       ",
"            . 4 Y.Y.].].N >  .%.F V V V 3.4.4.4.3.V V V F %. ., N ].'.T.T.4 .                       ",
"                $ $ 1 1 O . c x  .%.} c v | | | v c } %. .x j . O 1 1 $ =                           ",
"                . . . . . . j l X.%.} l x x x x x x } %...x j . . . . . .                           ",
"                        . . @ @ c x o.O.O.O.O.O.%.O...x c @ @ . .                                   ",
"                        . . . . h l ..%.%.%.%.%.%.%...x h . . . .                                   ",
"                    . . q q 7 7 1 > , a a a a a a a a > 1 4 7 q q . .                               ",
"                    . . q M t r & . . . . . . . . . . . & r t M q . .                               ",
"                    . . q V u u 7 7 = . .       . . & 7 7 i i V i . .                               ",
"                    . . V V i V t r = .           . = r y V V V M . .                               ",
"                        6 6 6 6 - = +               + = - 6 6 6 6                                   ",
"                        . . . . . .                   . . . . . .                                   "
};
