/* XPM */
static char *Col1666883686[] = {
/* columns rows colors chars-per-pixel */
"50 50 227 2 ",
"   c None",
".  c #002964",
"X  c #012E69",
"o  c #01336E",
"O  c #013C76",
"+  c #17366F",
"@  c #007943",
"#  c #006B54",
"$  c #004D65",
"%  c #00417B",
"&  c #085073",
"*  c #057C61",
"=  c #247870",
"-  c #178D57",
";  c #138A52",
":  c #288A54",
">  c #1B8E6E",
",  c #309A6D",
"<  c #39A574",
"1  c #3CA26D",
"2  c #51934E",
"3  c #4EA979",
"4  c #67A162",
"5  c #C9B303",
"6  c #DCC500",
"7  c #DFC91E",
"8  c #E3CC03",
"9  c #F4D600",
"0  c #F6DA00",
"q  c #F9DE00",
"w  c #E9D200",
"e  c #FCE300",
"r  c #FFE800",
"t  c #F7E000",
"y  c #FEE617",
"u  c #D9C83A",
"i  c #F5DC38",
"p  c #F4D738",
"a  c #EDD932",
"s  c #F8E137",
"d  c #FDE924",
"f  c #B2A55D",
"g  c #A89F68",
"h  c #C1BA71",
"j  c #F5DE44",
"k  c #ECD551",
"l  c #FBE754",
"z  c #E8DA68",
"x  c #EDDB77",
"c  c #F7E567",
"v  c #EBE67C",
"b  c #EFE770",
"n  c #F6E476",
"m  c #EFE164",
"M  c #D7C768",
"N  c #004781",
"B  c #014C87",
"V  c #01568C",
"C  c #025992",
"Z  c #145399",
"A  c #104886",
"S  c #24579B",
"D  c #2B4D86",
"F  c #00629B",
"G  c #0B6A94",
"H  c #177797",
"J  c #086FB0",
"K  c #3471AB",
"L  c #2D5FA6",
"P  c #48659F",
"I  c #677395",
"U  c #4D72B0",
"Y  c #6D7FA5",
"T  c #3B75C2",
"R  c #3C7BC5",
"E  c #477AC5",
"W  c #0483B8",
"Q  c #1187BC",
"!  c #308DAE",
"~  c #3FBCB6",
"^  c #298997",
"/  c #59AF81",
"(  c #5BB586",
")  c #4DAEAD",
"_  c #62ADB3",
"`  c #5BA9A5",
"'  c #6DC3A6",
"]  c #62C59C",
"[  c #008CC2",
"{  c #0497CC",
"}  c #009ED4",
"|  c #1592C5",
" . c #3B83C9",
".. c #2799C7",
"X. c #2895C9",
"o. c #00ACC7",
"O. c #0DA7D5",
"+. c #34A5D6",
"@. c #00ADE5",
"#. c #00B3EC",
"$. c #00B0E7",
"%. c #00B6F0",
"&. c #03BAF4",
"*. c #0BBEF6",
"=. c #17BDF4",
"-. c #14B2E9",
";. c #29B8EB",
":. c #35B5E7",
">. c #39B4E7",
",. c #2EBDF1",
"<. c #2FABE1",
"1. c #5685C9",
"2. c #428ED1",
"3. c #4494D4",
"4. c #4899D7",
"5. c #4D91CC",
"6. c #648DCE",
"7. c #6891D1",
"8. c #6899D4",
"9. c #6698CA",
"0. c #55A7D5",
"q. c #69A5DC",
"w. c #70A8C9",
"e. c #58ACE3",
"r. c #47B8EB",
"t. c #57B6E7",
"y. c #4CAEE5",
"u. c #69B8E6",
"i. c #62A9E0",
"p. c #0FC0F6",
"a. c #14C1F7",
"s. c #1BC2F7",
"d. c #1CC5F8",
"f. c #1ECAFA",
"g. c #14C8F9",
"h. c #36C0EE",
"j. c #22C7F9",
"k. c #24CAFA",
"l. c #2CCBFA",
"z. c #2AC2F6",
"x. c #33CCFB",
"c. c #3CCEFB",
"v. c #3AC5F4",
"b. c #37D0FC",
"n. c #3CD2FD",
"m. c #70CCCE",
"M. c #47C2EE",
"N. c #58C5EB",
"B. c #44CEFB",
"V. c #49CAF5",
"C. c #58C9F3",
"Z. c #44D5FE",
"A. c #4BD3FC",
"S. c #4DD8FF",
"D. c #53D3FC",
"F. c #5CD5FC",
"G. c #50D9FF",
"H. c #5EDAFE",
"J. c #69C8E9",
"K. c #7ED6E9",
"L. c #63D6FC",
"P. c #65DAFE",
"I. c #6CDAFE",
"U. c #6AD5FA",
"Y. c #75DEFF",
"T. c #7CDEFE",
"R. c #77D7F4",
"E. c #75CAEC",
"W. c #A9B8A6",
"Q. c #959F9E",
"!. c #B3D2B5",
"~. c #94CCB9",
"^. c #D7DC97",
"/. c #D4D38D",
"(. c #E1D98D",
"). c #DFE599",
"_. c #FEED8B",
"`. c #E1E697",
"'. c #FDEC98",
"]. c #E5E78E",
"[. c #CAD5AA",
"{. c #C8E2B8",
"}. c #D4E3B2",
"|. c #DAE5A2",
" X c #FDEDA6",
".X c #FBEDBC",
"XX c #FFF2AB",
"oX c #819CCF",
"OX c #93AACE",
"+X c #A9B5D2",
"@X c #ABBDE3",
"#X c #8DCACC",
"$X c #A9D5C5",
"%X c #A6DBD2",
"&X c #B5CCCE",
"*X c #94DCE1",
"=X c #84DDFC",
"-X c #8EDCFA",
";X c #90D2F0",
":X c #B6C6E5",
">X c #A7C8ED",
",X c #84E1FF",
"<X c #8BE2FF",
"1X c #94E4FE",
"2X c #9AE3FA",
"3X c #ABE1E3",
"4X c #A3E9FF",
"5X c #A9E7FF",
"6X c #B3EAFE",
"7X c #BCEDFE",
"8X c #B0E4FC",
"9X c #B0E3E0",
"0X c #C8D6C9",
"qX c #C9D3D7",
"wX c #C2E5D5",
"eX c #FDF3CA",
"rX c #FEF6D8",
"tX c #C1D0EE",
"yX c #CBD6F0",
"uX c #D4DDF3",
"iX c #C4EEFF",
"pX c #CCF1FF",
"aX c #C6F0FE",
"sX c #D7F3FE",
"dX c #FEF9E5",
"fX c #E7F8FF",
"gX c #FFFCF3",
/* pixels */
"                                                                                                    ",
"                                  wX}.`.v b d b ].`.wX9X1X<X                                        ",
"                              ].`.v v v r r l _.'.XX'.y l }.2X<X                                    ",
"                            =XD.S.G.G.G.G.*X{.c r r '.rXeXn d }.1X<X                                ",
"                        G.Y.8XpXsXfXsXaX4XP.G.G.%Xm r r _.dXeXc m 3X<X                              ",
"                    G.G.<X1XY.G.G.G.T.5XpXfXpXT.G.F.{.r r e XXgX Xi 3X<X                            ",
"                  G.G.G.G.G.G.G.G.G.G.G.G.H.5XsX7XH.G.%Xs e e c gXeXi %X<X                          ",
"                v.,.V.G.G.G.G.G.G.G.G.G.G.G.G.I.aXpXT.G.*Xs e e s dXeXm 2X                          ",
"              h.v.D.M.S.G.G.G.G.G.G.G.G.G.G.G.G.S.2XpX<XG.*Xr e q i dX.X^.<X                        ",
"              ;.O.} O.B.G.G.G.G.G.G.G.G.G.G.G.G.G.G.1XaX<XG.$Xe q q j gXn 9X                        ",
"            0.} } } O.V.G.G.G.G.G.G.G.G.G.G.G.G.G.G.G.1X7XY.G.].q q q n rX(.-X                      ",
"            ..| +.{ { v.G.P.G.G.G.G.G.G.G.G.G.G.G.G.G.G.1X6XP.R.i q q q .Xn 3X                      ",
"          ' ..] 3 ' { { N.<XY.G.G.S.V.V.S.G.G.G.G.G.S.S.G.4X4XS.$Xe q 0 i .X[.                      ",
"          ' ` 2 : 1 5.[ J.<XY.S.S.V.R  .S.S.S.G.G.S.S.S.G.H.5X,XH.z 0 0 0  Xk                   7.  ",
"          ] 4 j u 2 ` J K.<XY.S.Z. .1.K S.S.S.S.S.S.S.S.S.S.Y.4XL.%Xq 0 0 i n 0X              7.7.  ",
"          ( 4 W.4 2 / J =X<XH.Z.>.T 1.E Z.Z.Z.Z.S.P.Z.S.Z.Z.S.<X<XA.z 0 0 9 m (.              7.    ",
"        ( 1 1 > , 1 ^ ! <X<XZ.Z.R T 1.3.Z.Z.Z.Z.Z.Y.Z.Z.Z.Z.Z.G.1XI.%X9 9 9 p 9             8.q.    ",
"        ( - < ~ ~ 1 Q 5.<X=XZ.>.R T E 2.n.n.n.n.Z.P.Z.n.n.n.n.Z.Y.,XZ.z 0 9 9 9           7.C.8.    ",
"        3 - , , , ^ J 0.<X=Xn.3.T T 1.+.n.n.Z.n.n.n.n.n.n.n.n.n.Z.<XP.$X9 9 9 9           e.R.      ",
"        / - - , H F F 0.<XT.v.3.E T 1.y.c.x.P.x.x.n.x.n.n.D.x.n.n.P.,XD.k 9 9 9         OX8Xu.      ",
"        ( - - G C F F 9.<X=X>.4.2.T 1.:.x.x.P.A.x.x.x.x.c.S.x.x.x.c.T.L.%X9 9         M u.sXe.      ",
"      3 < - ^ C C C V K <X-Xy.4.2.R 6.:.x.c.L.l.n.l.A.x.F.l.x.x.x.x.D.Y.c./.9         W.-X4X1.      ",
"      ( ; ; V V V V V V -XR.t.4.3. .7.,.l.A.x.l.L.l.L.l.D.l.l.l.x.l.l.F.P.C.        r w.<X-XU       ",
"      / ; ; B B B B B Z ;XY.t.y.4. .7.,.l.B.l.l.F.l.c.l.x.S.l.l.D.l.l.l.F.A.l.    r j y.L.E.        ",
"    ; < @ & B B N N A S @XK.C.y.y. .7.,.k.k.k.k.A.k.k.k.k.D.x.j.D.k.k.k.k.k.k.k.[.t M M.F.i.        ",
"  # < : @ O % % % % S A tX#XJ.t.y.4.8.f.f.j.f.k.l.j.j.f.j.A.j.j.B.j.k.j.j.j.f.f./.9 h h.D.+.        ",
"  U , @ $ O O O o O L Y 0X!.E.N.y.8.6.d.d.d.f.f.l.A.s.f.f.x.j.d.s.j.f.j.j.M.N.#Xu w f ,.F.X.        ",
"  o $ $ o o o o X P D &Xa ^.#XN.y.e.8.d.d.d.d.g.s.B.d.f.d.d.s.s.j.c.d.d.J.u 6 6 8 8 f z.B.Q         ",
"  + X . o X X o S D OXtX(.z ~.J.r.i.q.d.a.g.g.a.j.x.d.a.a.d.a.d.=.A.a.a.#X5 5 5 5 6 f a.x.Q         ",
"  P I . . . + & I @XtXtXqXw {.#Xt.t.i.=.=.a.=.=.=.p.a.=.a.g.a.a.d.x.a.a.,.W.h 6 6 6 g p.a.Q         ",
"  Z +X:XOXQ.OX@XtXtXtXtXtX7 ^.#Xt.t.<.=.*.a.*.p.=.*.d.*.a.g.*.*.a.a.p.=.*.s.F.`.r 0 ` -.z.W         ",
"  Z P uXuXyXtXtXtXtXtXtXyXh !.#XJ.r.,.*.*.g.*.*.*.*.x.*.*.p.*.*.*.*.*.*.z.I.Y.|.r r oX-.*.W         ",
"        uXuXyXtXtXtXtXtXtX[.y.&.&.*.&.*.&.g.*.*.&.*.l.*.*.*.&.*.*.*.*.z.Y.Y.      x 8.P.=.[         ",
"        uXuXuXyXtXtXtXtXtX@X&.&.&.&.&.&.&.*.&.&.&.&.s.&.&.&.&.&.&.&.v.Y.Y.          7.E.L.| .       ",
"          uXuXuXyX@XOX@X7.<.&.&.&.&.&.&.%.&.%.&.&.&.&.%.&.&.%.&.%.V.Y.Y.              8.Y.J.+       ",
"            uXuX@X1.J J J } %.%.%.#.#.#.%.%.%.%.&.%.%.%.%.%.%.%.V.Y.Y.Y.                q.Y.8.      ",
"            uXyX7.7.1.T J o.#.#.#.#.#.#.#.#.#.#.#.#.#.#.#.#.;.L.Y.Y.Y.                    q.u.      ",
"              :X7.7.7.7.` | @.@.@.@.@.@.@.$.@.$.@.@.@.#.-.C.Y.Y.Y.Y.                        8.7.    ",
"                7.7.7.7._ m.C.>.@.@.@.@.@.@.@.@.@.@.;.C.I.Y.Y.Y.Y.Y.                          7.    ",
"                  7.7.6._ ] Y.Y.R.C.M.>.:.:.:.N.C.U.R.Y.Y.Y.Y.Y.Y.                                  ",
"                    7.7.9.%XR.Y.Y.Y.Y.Y.Y.Y.Y.Y.Y.Y.Y.Y.Y.Y.Y.Y.                                    ",
"                        8.wXpX1XY.Y.Y.Y.Y.Y.Y.Y.Y.Y.Y.Y.Y.Y.                                        ",
"                            fXfXiXY.Y.Y.Y.Y.Y.Y.Y.Y.Y.Y.Y.                                          ",
"                            aXaXpXiXY.Y.Y.Y.Y.Y.Y.Y.                                                ",
"                              6X6X7X7X                                                              ",
"                                5X6X6X                                                              ",
"                                7X5X6X6X                                                            ",
"                                  iX6X6X                                                            ",
"                                      6X                                                            ",
"                                                                                                    "
};
