/* XPM */
static char *Trap1667226967[] = {
/* columns rows colors chars-per-pixel */
"50 50 5 1 ",
"  c None",
". c black",
"X c #000100",
"o c #010100",
"O c #010200",
/* pixels */
"                                    .             ",
"                                   .O             ",
"                                   .O             ",
"                               .                  ",
"                               .                  ",
"         .              .     ..      ..          ",
"         ..    ..       .     ..     ...          ",
"         ..    ...      .    ..     ...           ",
"          .     ..     ..    ..   ....            ",
"      ..        ...    ..   .........             ",
"..    ...       ...   ..............              ",
"...    ...      ..... .............  ..           ",
" ...    ...  .   ......................           ",
"         .............................            ",
"          ...........................             ",
"           ........................               ",
"           ........................               ",
"       ..   .......................    ..         ",
"        .................................         ",
"         ...............................          ",
"           ..........................             ",
"     ...   ..........................             ",
"   .................................              ",
"   .................................              ",
"        ............................              ",
"          ...........................             ",
"         ...............................          ",
"         .................................        ",
"         .......................... ........      ",
"        ...........................     ....      ",
"       ....  ......................               ",
"            ........................              ",
"           ........................               ",
"           ..........................             ",
"          ............................            ",
"         ... ....................  ....           ",
"             .....................                ",
"             .... ................                ",
"       .      ..  ................                ",
"      .       ..  ......... . ...                 ",
"              .   .....O...    ...                ",
"                  .. .. ...                       ",
"              .   .. ..  .O                       ",
"             ..       .  ...                      ",
"             .O          ...                      ",
"                         ...                      ",
"          .               ..                      ",
"          .                                       ",
"         ..                                       ",
"                                                  "
};
