/* XPM */
static char *wall1666884036[] = {
/* columns rows colors chars-per-pixel */
"50 50 105 2 ",
"   c None",
".  c #606060",
"X  c gray38",
"o  c #626262",
"O  c gray39",
"+  c #646464",
"@  c #656565",
"#  c gray40",
"$  c #676767",
"%  c #686868",
"&  c DimGray",
"*  c #6A6A6A",
"=  c gray42",
"-  c #6C6C6C",
";  c #6D6D6D",
":  c gray43",
">  c #6F6F6F",
",  c gray44",
"<  c #717171",
"1  c #727272",
"2  c gray45",
"3  c #747474",
"4  c gray46",
"5  c #767676",
"6  c #777777",
"7  c gray47",
"8  c #797979",
"9  c gray48",
"0  c #7B7B7B",
"q  c #7C7C7C",
"w  c gray49",
"e  c #7E7E7E",
"r  c gray50",
"t  c #808080",
"y  c #818181",
"u  c gray51",
"i  c #838383",
"p  c #848484",
"a  c gray52",
"s  c #868686",
"d  c gray53",
"f  c #888888",
"g  c #898989",
"h  c gray54",
"j  c #8B8B8B",
"k  c gray55",
"l  c #8D8D8D",
"z  c #8E8E8E",
"x  c gray56",
"c  c #909090",
"v  c gray57",
"b  c #929292",
"n  c #939393",
"m  c gray58",
"M  c #959595",
"N  c gray59",
"B  c #979797",
"V  c #989898",
"C  c gray60",
"Z  c #9A9A9A",
"A  c #9B9B9B",
"S  c gray61",
"D  c #9D9D9D",
"F  c gray62",
"G  c #9F9F9F",
"H  c #A0A0A0",
"J  c gray63",
"K  c #A2A2A2",
"L  c gray64",
"P  c #A4A4A4",
"I  c #A5A5A5",
"U  c gray65",
"Y  c #A7A7A7",
"T  c gray66",
"R  c #A9A9A9",
"E  c #AAAAAA",
"W  c gray67",
"Q  c #ACACAC",
"!  c gray68",
"~  c #AEAEAE",
"^  c #AFAFAF",
"/  c gray69",
"(  c #B1B1B1",
")  c #B2B2B2",
"_  c gray70",
"`  c #B4B4B4",
"'  c gray71",
"]  c #B6B6B6",
"[  c #B7B7B7",
"{  c gray72",
"}  c #B9B9B9",
"|  c gray73",
" . c #BBBBBB",
".. c #BCBCBC",
"X. c gray74",
"o. c gray",
"O. c gray75",
"+. c #C0C0C0",
"@. c #C1C1C1",
"#. c gray76",
"$. c #C3C3C3",
"%. c gray77",
"&. c #C5C5C5",
"*. c #C6C6C6",
"=. c gray78",
/* pixels */
"                                    b t a N ! ' G k e t                                             ",
"                              b a A W ! ' } ' / ' / G e > f                                         ",
"                          k A / } / } ..' ' / } } } / / ! A e t                                     ",
"                      k 5 W ' *...#...*.' / } / } } W G / ' / W e f                                 ",
"                    A . K *...*.A K =.*.*...#.*.*.*.A . t / ' / ' a b                               ",
"                    > k } #.' b = } =.=.*.=.#.*.*.=...A . P ' ' P 8 +                               ",
"                  a > ' *.*./ + k =.=.=.*...#.=.*.*.*.#.5 > P ' / > . e                             ",
"                P + ! #.*.*.G . ' *.=.=.*.*.*.*.*.*.*...P . t ' ' P . .                             ",
"                8 G *.*.=...2 a #.=.=.*.*.*.*.*.*.*.#./ ' k = P / ' k . a                           ",
"              k e / #.*.*.P . P *.*.#.#.....} #.*.*.*...} ' ' W } / ' f =                           ",
"              e K / ' *.*.K a #.=.=.*.#.} *.#.*.*.#.' ' ' } ..*.' ' K f e f                         ",
"              t / K ' *.*.' } ..=.=.*.*.../ #.*.*...} / #.' #.*.#.' ' a . .                         ",
"            e K A t ' *.*.=.=.*.=.=.*.} / } } *.*.#.} ' ' #.#.#.*./ ' ' a . e                       ",
"          a > ' a k ..=.#.=.#.....*.*.=.} } } *.=.*.#.' / ' #.*.#.' / ' ' 5 .                       ",
"        b . G / + } *.=.*.#.#.*.*.*.*.#.#./ } =.*.*.=.' ' ' ' #...' / ' } ! . k                     ",
"        e ' } f 8 ' *.=.*.=.} } *.*.#.} / } ' ' *.*...' ..' ..' ' } } ' } ' b 5                     ",
"      k f *.' . A } #.*.*.*.} ..} *.*.*.' ' #.*...*.} } #.} #.' ' } / / ! / / = f                   ",
"    N = ! ' N = / ' ..*.*.*.} ' ..#.*.*...' ' *.*...#.' ' ..*.*.} } } W a W ! b 8                   ",
"    . N *.W A } ..#.*.*...*.......*...*.#.' / #.*.*.} ' ' #.#.*.#.} } *.K a e f +                   ",
"  a > / } *.....*.#.=.=...*.*...#.=.*...} ' ..} #.#.' / ' ' *.*.*.......} 2 G > + N                 ",
"  = a / } ..=...} } *.*.*.#.' ....=.=.*.} / } #.} *.} / ' } } ..' ' ' } } K 5 K + f                 ",
"k . P ' ' ' ..P *.#.} *...} } ' ..*.=.=.*...} #.#.} #.' ' / #.' ' ' } ' ../ + t G 2                 ",
"a > } #.} #.K b ' ..=.*.#.#.' ..} =.*.*.=.*.} ' ..#.' #.} #.} *...} ' } ..} e . P b e               ",
"e k } ' *.} K f ' #.=.*.*.#.} ' ..} ..' } ' ' } W G #./ ..} } ' #.} ..} #.#.! . N / t b             ",
"8 P } #...*.b a ' ' #.*...#.' ' } #.' ' ' } } #...P t / / ' ' ..} #.*.*.#.*./ k + ! ' a             ",
"e W *...#.*.a k } } ..*.......' } } #.} ' / ' ..#...5 2 / ' } ' ' ' #.*.=.....e + W #.' k           ",
"f b #.#.....= P ' ' ..*.......*.' *.} } / ' / ' ....A . f } ' ....' ' ' ..*...#.k N } ..' b         ",
"A 8 #.*.*.! . P } ..#.*.=.....' ....} ' ' / ' } ' ' A . = / #.} #.' / ' *.#.*.} } P ..} #.b 2 G     ",
"A . } ..=.K + ' ' } ..*.#.#.' / } =.=.*.' / ' #.} ' N . . P ' } ' ' / / ' *.....' ..' ' ! ! > 5     ",
"N = W } ..t 5 ..} ' ' } #...' ' } =.*.*.*.' ..' #.#./ > > K ' } ..' ' ' ' } *.' ' } #.} a + K + e   ",
"N f N #...> k ' ' / / ..' ..' ..' *.*.*.*.} ' *.' #.! e . K #.' } ' / ' / ' } #./ ' ' ' = . ' k . b ",
"N b K =.} a k #.' ..#.../ } ' ' ....*.*.../ ' ' } / A . . G ..*.' ' ' / ' ' / ' ' / *.} k . b K . e ",
"N 8 P *.} 5 W ' } #.*.*...' / ' ' } ..*.#.' } } ' } G . + N ..#.*.' / ' / ' *.' / ' } *.G + + P . 5 ",
"G . W =...k ! ' ' #.=.=.=.*.' ' / ' *.} ' ' } #.} ' W . + G #.#.} ..' / ' ' / } ' / ....#.W e = = > ",
"G . ' } *.} #...' ' ..=.*.*.*.} ' #...*.} ' ' *.=.} / . a } #.*...' ..! ' / ' ' b G / ..} ..! . . > ",
"  = ' ..*...*.*...' ..*.*.*.*.*...' *.#.} ' / #.=.*.' f W / #.*.*.' ' ' ' ' / ' W > / ....' A 8 . 2 ",
"  . f ! *.*.*.#.*.*.*.*.} #.....#...} #.' ' ' ..*.*.#./ / ' / #.*.' ' } #.' ' / / 2 K ' / P > e . a ",
"  > W e ' #.*.} / f ..' ' } ..' } #...' ' ' ' } #.*.*.} / ' } / } } / ' ....' } W . K } ' / 2 . =   ",
"  5 ' 5 ' #.*.} P > ' *.} #.#.*.#.*.=.../ ' / *.#.#.' ' } ' ' ' ' ' ..' ' } *./ K . / } ' P f . f   ",
"  8 / 8 / ....} P . K *.*.} #.} *.*.*.#.} ' ' #.*.#.' / ..} ' / ..' } ..' ' ..G . f / ' N f + +     ",
"  e ! f k *...' ! + G #.*.#./ ..} *.*.......' ..*.*.../ / ..#.' ' ' ' ' ..' ' A . P / P k + . a     ",
"  k G 8 . A ' } G . K ..#.*./ ' #.#.*.*...} ../ ..} ..' ' ' ..*.*.' } ' } *.' 5 e ' A a b . . A     ",
"    > N = G ' ' ! + t } *.#.} / ' *.#.*.} ' ..#.} ..' ' ..} #.*.*.} ' ' ' #.} b ! / a 2 + . t       ",
"    5 = b A ' ' ! > t ..*...' } } } *.#.#.' #.*.*.} *.#.*.*.=.....#./ ' } ' } ! b ! k = . t         ",
"      8 a N / ' / P = ' #.*./ ' } *.*.=.....' *.*.*.' *.#.#.*.*.' } / ' } / #.b + t . = k           ",
"        a + f / ' ! K #.#...' / ' *.*.#.=.' } #.#.} } / ' } =.=.=.} } ' K + b . . = a               ",
"            e 5 W / ' ..} / ' / ' } #.*.#.#.} *.../ ' / ' } *.=.=.! k A 5 8 5 t                     ",
"                8 N / ..#.#...#...#.#.*.} / } *.*./ ! } } G N P k e f                               ",
"                  k f A ! ..*.*.*...#./ f 5 / ! k = t N f 2 = 5                                     ",
"                        f 8 f b N a 8 e 5 5 5 e f                                                   "
};
