/* XPM */
static char *Exit_closed1666883956[] = {
/* columns rows colors chars-per-pixel */
"50 50 208 2 ",
"   c #010101",
".  c #090101",
"X  c #01030B",
"o  c #020A0C",
"O  c #080708",
"+  c #110300",
"@  c #1A0000",
"#  c #000513",
"$  c #020B13",
"%  c #00091B",
"&  c #03051C",
"*  c #001119",
"=  c #181717",
"-  c #121303",
";  c #29211E",
":  c #362A1E",
">  c #3A2706",
",  c #000922",
"<  c #0F2A3B",
"1  c #2C2C2C",
"2  c #2B2725",
"3  c #3C3C3C",
"4  c #363535",
"5  c #392B25",
"6  c #43352C",
"7  c #57410F",
"8  c #47413D",
"9  c #674E2F",
"0  c #74562D",
"q  c #795C34",
"w  c #71662E",
"e  c #112E40",
"r  c #12354F",
"t  c #0A3953",
"y  c #1B3D54",
"u  c #183C59",
"i  c #3B3E43",
"p  c #0A3E65",
"a  c #1E3F6A",
"s  c #1C445E",
"d  c #17435E",
"f  c #3B4146",
"g  c #3F444A",
"h  c #24465C",
"j  c #0B466B",
"k  c #194565",
"l  c #1C4B6A",
"z  c #154669",
"x  c #0F4571",
"c  c #134674",
"v  c #154D73",
"b  c #194D73",
"n  c #114678",
"m  c #1C5176",
"M  c #16537D",
"N  c #1B527A",
"B  c #1A557A",
"V  c #264661",
"C  c #204C70",
"Z  c #235173",
"A  c #22557A",
"S  c #265A7B",
"D  c #444443",
"F  c #4C4B4B",
"G  c #4A4645",
"H  c #534C4B",
"J  c #54514E",
"K  c #5C534E",
"L  c #494D51",
"P  c #545353",
"I  c #595554",
"U  c #545855",
"Y  c #5B5856",
"T  c #595758",
"R  c #5C5B5C",
"E  c #4D5057",
"W  c #655E5C",
"Q  c #62615F",
"!  c #7D6445",
"~  c #555A60",
"^  c #5D646A",
"/  c #656465",
"(  c #696764",
")  c #6C6C6C",
"_  c #666869",
"`  c #786C65",
"'  c #75716E",
"]  c #676C73",
"[  c #697277",
"{  c #737373",
"}  c #767A7C",
"|  c #7D7D7D",
" . c #777777",
".. c #87693D",
"X. c #9C6A35",
"o. c #886E48",
"O. c #8D7149",
"+. c #9A744B",
"@. c #987643",
"#. c #9D7E50",
"$. c #926D43",
"%. c #A26F40",
"&. c #A67B4B",
"*. c #827E7B",
"=. c #947F64",
"-. c #7D817C",
";. c #958352",
":. c #A08140",
">. c #BD9358",
",. c #82817E",
"<. c #8A867D",
"1. c #D59F5D",
"2. c #C5985F",
"3. c #CCA45F",
"4. c #D7A15C",
"5. c #D0A556",
"6. c #DEB75A",
"7. c #EAB45D",
"8. c #E0A45C",
"9. c #CE9D64",
"0. c #C59B6B",
"q. c #D99E64",
"w. c #CEA966",
"e. c #D7A667",
"r. c #D3AB70",
"t. c #D7B474",
"y. c #E3AA63",
"u. c #E7B769",
"i. c #F4BA6B",
"p. c #EAB974",
"a. c #F3BE77",
"s. c #E2C05F",
"d. c #E9C06A",
"f. c #EFC27F",
"g. c #145683",
"h. c #1E5D8B",
"j. c #1C5781",
"k. c #1B5E92",
"l. c #245983",
"z. c #245E8A",
"x. c #345F81",
"c. c #2A5F91",
"v. c #1D6494",
"b. c #1D649B",
"n. c #1E6B9B",
"m. c #196A87",
"M. c #22618E",
"N. c #2A628E",
"B. c #226494",
"V. c #22669B",
"C. c #22699C",
"Z. c #2B6D9C",
"A. c #276691",
"S. c #2B719C",
"D. c #1E6CA2",
"F. c #1B7CB5",
"G. c #1C78B6",
"H. c #236CA2",
"J. c #2A6EA3",
"K. c #266FA9",
"L. c #2574A5",
"P. c #2B74A5",
"I. c #2673AC",
"U. c #2A73AA",
"Y. c #2C7AAD",
"T. c #297AA7",
"R. c #3277AC",
"E. c #327CAE",
"W. c #3777A9",
"Q. c #2374B2",
"!. c #257CB4",
"~. c #2C7DB5",
"^. c #247DBB",
"/. c #2B7EBA",
"(. c #2C76B4",
"). c #317DB4",
"_. c #317DB9",
"`. c #757C83",
"'. c #7B7E82",
"]. c #1D7DC4",
"[. c #247EC2",
"{. c #2E7FC1",
"}. c #2878CD",
"|. c #347CC4",
" X c #807B81",
".X c #2683B3",
"XX c #2B81B5",
"oX c #2681BA",
"OX c #2C81BB",
"+X c #2A89B5",
"@X c #3381B5",
"#X c #3182BC",
"$X c #3289BF",
"%X c #3B82B1",
"&X c #2A80A3",
"*X c #7D8183",
"=X c #7B838A",
"-X c #788684",
";X c #1F82C5",
":X c #2581C2",
">X c #2C82C3",
",X c #2C85C8",
"<X c #3484C1",
"1X c #828283",
"2X c #82858A",
"3X c #8A8A89",
"4X c #8A8685",
"5X c #828691",
/* pixels */
"u #   . .     X   X X     . .       X X X         . .     X     . . . X                     X . , r ",
"  . : 8 3 g f f J I H P J J I P H I J P U P I H P P J P P P J J J J F P U J J J T F T P J H I 4 . . ",
"  O 3 _ ] ^ ) ( |  X2X'.=X2X`.'.=X'.-.-.-.| -X2X=X`.=X'.| | *X2X-X-X*X*X*X*X*X2X*X'.-X,. X2X=XE O   ",
"O   3 _ G . 5 =.4XJ . Y *.| D = _ -.*.5 ; ' ,.{ ; 2  .4X( ; 4  .<.Q = 8 <.| Y   I *. .K . W *.I     ",
"    G ( ~ 4 ~ ^ `._ T ) 1X1X( H ' *X2XT E } ,.-.I P =X|  .P ^ '.1X' I W  .-.{ P _ } 1XW T { 1XF   . ",
"X X 4 _ ( / ] [ =X*X' 1X2X} 1X .*.| } -X*X} | *.,.| } *X,.<.} =X X'. X X1X} | } *.| 2X1X{ =X2XP   X ",
".   X o   . X   . . + .   X o   X     .   .   X   o X   . . . . O   O X X O . . . .   X $ X         ",
"  X r l N N N N y % # h b j.v A M m h # # V m M S v M A h # % y v S v B m l k & & u Z b v A l t     ",
"    m /././.~./.v.    I.XX/.~././.~.H.    U.~./.~.~.{./.I.    V.).oXoXXXR.>XU.    N.OXOX).).>XM     ",
"    N /.XX/.).~.B.    I.~.OX~./.~./.H.    U./.~.~.~./.~.I.    C.).[./.@XY.:X~.  X M.!.^.~.).OXB     ",
"    N OX~./.~./.B.    I.XX/.~./././.H.    U.~././.~.OX/.I.    C.).[.(.<XXXoXL.    M.OXoX/.(.!.m     ",
"    m /.~.~.~./.B.    I.~.OX).OX~._.H.    U./.~.~.XX/./.I.    C./.,X_._.!.F.T.  X N.(.^.OX<XOXN     ",
"    N /.XX/.).~.v.    U.XX/.~././._.H.    U.~./.~.~./.~.I.    C.!.OX(./.XX.XZ.X X l.%X~././.!.v     ",
"    N OX~./.~./.B.    I.XX/.~./.~./.H.    U.~./././././.I.    V..XOXY./.@X@XJ.* $ h.%XOX/.{.[.A     ",
"    N /.~./.)./.v.    I.~.OX~././.~.H.    U.)./.~.~././.I.    C.~.|.@X^.(.~.>XS x./.!.!.~.#X/.v     ",
"    m /.OX/.~.~.B.    I.OX~.~./.~./.H.    U././.XX~./.~.I.    C._./.XXoX#XOX;XA.V.].oXOX~.~.^.m     ",
". . Z >X!.#XT.#XA.X   P.(.~.@X/._..XD..   L..X~.~.~././.I.    V.~.OX~.OX~./.L.    v.~.~././.~.N     ",
"X   c >XoX>XoX^.m.    I.@X:XG.~.{.!.n.. . H.!.>X~.~./.~.I.    C.~.{.~.oX/./.T.    v./.~./.XX~.N     ",
"X $ u z.A.c.M.B.C   . l.N.b.U.+X/..XL.X X T.~._.~.).OX/.I.    C.~./.).^._./.L.    v./.~./.~.).M     ",
"              X X X . X     . (._.Y.D.X X I.Y._.~./.OX/.I.    C.~./.~..X~./.L.    v./.~./.~.(.N     ",
"  . o.0.2.3.e.5.q.r.5.w.o.O O [._.Y.H.O X P.Y./.~.~./.~.I.    C.~./.~.oX_.^.T.  . v./.~./.~.~.N     ",
"    o.4.5.y.a.p.i.6.u.i.X.  X #X].#XZ.. . S.XX;X/./././.I.    V././.~.OX~./.L.    v.~././.~.~.M     ",
"  X ..e.r.;.9 > q >.u.i.+.X   .XoX#Xn.# X K./.oX~.~././.I.    C.~./.~.OX_./.L.    v.~.~./.!.~.N     ",
". X ..e.0   = f     ;.i.+.. + }.E.(.[.Z Z ,X(.E.XX~./.~.I.    C.~./.~.^.(./.T.  . v..X/././.~.N     ",
"X . X.e.- X H ) 5 o q p.:.  X k x l d x n d z x l c j k z     u k c k d h z p X X r l x x k k <     ",
"    $.e.=.+ @ & # : 1.u.@.    o       X X     . @ X $ .   . . X X X   o   X * @ . o   . .   # X     ",
"    o.e.3.t.7   w 7.u.p.&.  $ W.>XF.!.W.W..XF.>X]./.Y.XXI.X   Z.)./.~.(.).#XH.X # l._.:X:XXXY.Z     ",
".   o.1.y.e.0 o ;.7.7.d.%.X X T.I.$XZ.  X S.$X(.[./.~.OXQ.    H.~.OXOXoX~./.J.o X N.OX^.!.#X/.m     ",
"  . ..y.4.i.>.q 9.p.f.7.&.  X |.>X:XC.. . C.:X/.W.Y.@X%XH.X X V.@X^.I.OX_./.Z.  X h.Y.E.).%XOXM     ",
"X . O.r.w.u.p.u.i.u.6.u.@.    XX_./.D.X X I.^._.].$XXXG.Q.+ . V.Y.,X#X/.!.>XR.  . B.,X:X!.^./.b     ",
"              . . X . X .   X /.E.~.H.    L.).).#X~.OXOXU.    Z.!.oXY.#XOX^.Z.  O z.^.XX).~.>XA     ",
"  X < z z m j v t X . k n v l.!.>XXXD.  . L.XX>X)./.oXY.P.  X C.OXOXY.~./.[.H.X   B.[.XX).~.:Xv     ",
"    N ^.^./.@X/.V.    I./.OX~././.OXK.    U.OX/./.~.OX~.I.    V..X{.~.^././.U.X   v..X/.{.!.~.N     ",
"    m /.~.OX~.~.B.    I.~.~.~./.~.~.C..   U.~.!./.~.XX~.I.    V.@X_.~.^._./.P.  . v.XXXX{.~.XXN     ",
"    m ~.~.!.).^.M..   L.~.~.~./.~.~.V.  . J.~.~./.~.OX(.K.    B.Y./.~.OX).!.S.    v.XX)./.~.~.N     ",
"  . m XX~./.#XOXB.    I.~././.OXOX/.H.    U././.OX/.OXXXU.    B.~./.~.oX/.!.T.    v.OX)././.XXN     ",
"    N !.~.^.~.^.B.    I./.!./.^.!./.H.    I./.!./.!.^./.I.X X C.!././.^.~.oXL.X X b.~.~./.^.~.M     ",
"    b /.OXOXXX/.v.    I.#X/.~.>X/._.D.X   U././.>X~.OXOXI.    C.~.>X~.oX~.^.T.    v.XX_.|././.N     ",
"X . m ~.(./.).~.v..   L.Y.).).).).).n.    J.Y.).).E.~.Y.J.    v.Y./.).OX).!.S.. O B.Y.E.).~.Y.N     ",
"    k b.v.v.A.v.M   . k.v.v.B.v.v.b.g.. . h.v.v.k.B.B.v.k.. . g.C.b.C.Y.R.b.h.. . M B.B.V.v.B.p     ",
"                                                                    = } L X             O           ",
"    4 R ^ T T / { {  .) { ' { {  .{ { { {  . .{ {  .)  .{ { { { { [ `.*X} } ) ' ) { | { ) ' | G     ",
"    D Q / ) / ) '.1X| 2X1X1X| 1X,.| ,.1X1X| | 1X1X1X1X| | 1X1X1X| 1X X*X=X} *.3X1X| | 1X1X1X*XF     ",
"    D / / ( / ) | *.| 1X| | | 1X1X1X1X} } ,.1X| *.} 1X1X1X| | ,.*.| | 1X2X1X1X{ 1X1X| | | -.| T     ",
"    D _ ) / ) / 1X1X| *.1X1X1X-.*X| *.*X1X1X| *.1X1X1X| | 3X*.'.| 1X1X| } 4X,.,.1X,.*X| 2X1X| P     ",
"    3 _ U 4 P ) | ) F } | | R J { | | T P { ,.1XP P 1X|  .P Q '.,. .G / 1X1X( P ) ,.} ) G  .-.P     ",
"O   D ) G = 4 { 3XF O T | 3XG = / 3X| 4 1 ) 1X} 1 1  .1X{ = 4 } ,./ = D *.1XU O P 1X| P = Q 1XP     ",
"    D Q _ / ) ) | 1X1X,.1X} 2X'.1X| 1X| | 1X| | 1X| 1X1X| 3X| 1X*X*X| 3X} ,.2X X1X| 1X|  X| 1XP     ",
", . 2 D 6 f 8 D P P P P P P P P P P P P P P P P P P P P P P P P P P P P P P P P P P P J P P G 3 @ $ ",
"y .     X X                                                                               X     $ p "
};
