/* XPM */
static char *Exit_open1666883784[] = {
/* columns rows colors chars-per-pixel */
"50 50 244 2 ",
"   c None",
".  c #249E0D",
"X  c #259E10",
"o  c #26A10E",
"O  c #2CAB0C",
"+  c #2AA60D",
"@  c #33AD09",
"#  c #32B50C",
"$  c #35BB0C",
"%  c #38BC0A",
"&  c #2AA412",
"*  c #2DAC11",
"=  c #2BA316",
"-  c #32AC15",
";  c #36AD1B",
":  c #3BB315",
">  c #36BD11",
",  c #3ABE14",
"<  c #3CBC1B",
"1  c #35B41A",
"2  c #3CA828",
"3  c #3CB424",
"4  c #3EBC23",
"5  c #46BB1A",
"6  c #45BC2C",
"7  c #47B826",
"8  c #52BC2D",
"9  c #49AC38",
"0  c #58BC38",
"q  c #4CB234",
"w  c #3BC40B",
"e  c #3ECB0C",
"r  c #3BC312",
"t  c #3DC615",
"y  c #3FC022",
"u  c #41CD0A",
"i  c #43D40B",
"p  c #46D90A",
"a  c #48DE0A",
"s  c #46C71A",
"d  c #4BD718",
"f  c #52DA1B",
"g  c #56C21A",
"h  c #70D01E",
"j  c #4CE409",
"k  c #4EE909",
"l  c #53F10B",
"z  c #55E818",
"x  c #5CF91B",
"c  c #49C627",
"v  c #54CC2C",
"b  c #57C627",
"n  c #52D323",
"m  c #58D929",
"M  c #4DC732",
"N  c #54C533",
"B  c #52CC34",
"V  c #59CA39",
"C  c #53D333",
"Z  c #5CD33C",
"A  c #5BDB3B",
"S  c #5BD733",
"D  c #4DD32A",
"F  c #64C929",
"G  c #62D82F",
"H  c #68C938",
"J  c #64D933",
"K  c #62DB3C",
"L  c #67D73A",
"P  c #77D43B",
"I  c #72D12E",
"U  c #5DEB25",
"Y  c #5AE527",
"T  c #5CE736",
"R  c #5EF329",
"E  c #63EA2C",
"W  c #64F428",
"Q  c #64EB34",
"!  c #6CE43B",
"~  c #67E639",
"^  c #6CF43C",
"/  c #67F235",
"(  c #73F53B",
")  c #75E93F",
"_  c #5BB945",
"`  c #64BC4A",
"'  c #64B955",
"]  c #75BD67",
"[  c #5DD742",
"{  c #5EC842",
"}  c #68C747",
"|  c #74CC48",
" . c #68DC47",
".. c #7BD442",
"X. c #7DD24D",
"o. c #76D848",
"O. c #6BC653",
"+. c #7DD354",
"@. c #79D858",
"#. c #74CC57",
"$. c #65E443",
"%. c #6BE543",
"&. c #6BEB44",
"*. c #6AE74A",
"=. c #74E546",
"-. c #73E44C",
";. c #75EB48",
":. c #6CF442",
">. c #6CF942",
",. c #73F443",
"<. c #74F44B",
"1. c #7CFD4B",
"2. c #77FA48",
"3. c #75E152",
"4. c #7BE856",
"5. c #7BF455",
"6. c #7BF756",
"7. c #7AC963",
"8. c #7BD964",
"9. c #7FEB66",
"0. c #83DC35",
"q. c #97E536",
"w. c #8DE22E",
"e. c #ADF52F",
"r. c #AEF534",
"t. c #ADF439",
"y. c #B0F53D",
"u. c #A1ED2E",
"i. c #84DA4B",
"p. c #84D845",
"a. c #84D553",
"s. c #8ADA5A",
"d. c #93DD5D",
"f. c #89D753",
"g. c #97E548",
"h. c #81FD4C",
"j. c #82F54F",
"k. c #84E959",
"l. c #91E253",
"z. c #98E65A",
"x. c #86F859",
"c. c #ABF349",
"v. c #B3F544",
"b. c #B4F54C",
"n. c #A3E959",
"m. c #B6F552",
"M. c #B9F65A",
"N. c #B6F558",
"B. c #A7EE50",
"V. c #85CB6A",
"C. c #85DC63",
"Z. c #8CDA62",
"A. c #8BDD6C",
"S. c #88D667",
"D. c #94DD68",
"F. c #87CC72",
"G. c #8CD674",
"H. c #98DB77",
"J. c #91CE76",
"K. c #A1DF79",
"L. c #8AEC63",
"P. c #89E768",
"I. c #99E567",
"U. c #8BFC64",
"Y. c #8AF767",
"T. c #92FA6B",
"R. c #94F869",
"E. c #8DE574",
"W. c #98E676",
"Q. c #94F374",
"!. c #9AFA77",
"~. c #A6E868",
"^. c #BCF562",
"/. c #BEF864",
"(. c #BEF46C",
"). c #B3F960",
"_. c #A4E472",
"`. c #AAE27C",
"'. c #A8E777",
"]. c #B6EB7A",
"[. c #A6F679",
"{. c #B8F378",
"}. c #B0EF68",
"|. c #C1F56B",
" X c #C4F476",
".X c #C4F57B",
"XX c #C6F87A",
"oX c #9CDB83",
"OX c #97CC84",
"+X c #A8DD89",
"@X c #A7D992",
"#X c #B1DC9E",
"$X c #9BE585",
"%X c #9EF488",
"&X c #ACE484",
"*X c #A7E788",
"=X c #B5E68B",
"-X c #B4EC8B",
";X c #BBEB8A",
":X c #B8E987",
">X c #A9F88A",
",X c #ABE998",
"<X c #B8E797",
"1X c #B9F798",
"2X c #B3F38F",
"3X c #B8DDA6",
"4X c #BBE4A6",
"5X c #BCF6A8",
"6X c #CBF585",
"7X c #CCF48B",
"8X c #C5F588",
"9X c #C3EC9C",
"0X c #C5EB9A",
"qX c #CEF592",
"wX c #C6F598",
"eX c #D2F594",
"rX c #D4F49C",
"tX c #C9EF91",
"yX c #C8E9A7",
"uX c #CAF3A6",
"iX c #D5F5A2",
"pX c #D8F4AA",
"aX c #C3E3B1",
"sX c #CBEAB4",
"dX c #D3EBB4",
"fX c #D4EABC",
"gX c #DBF3B3",
"hX c #D9F5B9",
"jX c #CBF1AB",
"kX c #E1F3B8",
"lX c #C1DFAC",
"zX c #DCEDC5",
"xX c #D8EBC6",
"cX c #DAF4C5",
"vX c #D7EAC8",
"bX c #E3EECA",
"nX c #E3F3C1",
"mX c #E9F1CC",
"MX c #EBF1D5",
"NX c #F1F0DC",
"BX c #E5EED5",
"VX c #F4EFE7",
"CX c #F3F1E4",
"ZX c #EEF0E0",
/* pixels */
"                                             X(.6XrX6X(.N.                                          ",
"                              M.v.r.e.|..X6X6XrXkXnXmXmXnXkXrX Xt.e.e.                              ",
"                        XX/.eXpXeX|.6XXX8XtX8X{.{.}.'.<XdXbXbXnXrXN.e.e.e.                          ",
"                    e.qXNXMXmX7X{.:X`.~.i.0.d.l.l._.f...H s.aXbXdXbXpX{.m.r.e.                      ",
"                  |.kXVXVXbXfX<XI._.I.z.X.H a.I...F ....I P P K.sXfX3XgXjXqX|.b.m.v.                ",
"                  gXVXVXxXsX:Xz.n.{.&XZ.Z.*X1XwXwX1X&XK.a...i.P ..<XzXyXuXhXkXrX6Xb.b.              ",
"                  gXVXzXdX;X_.}.}.| V H =.2.1.1.1.5.L.Q.-X2XZ.| I F | yXjX'.<XcXkXN.e.e.            ",
"                  iXkXhX&Xi.p.H s t ~ ,.2.1.1.h.1.h.T.x.E.@.I.[.W.X.I H J.yX{.<XpXkXm.e.e.          ",
"                M.gXMX`.d.P 8 H o.=.=.! K m n n S | S.A.W.^ T C l.>XH.) g.Z.dXwX=XuXrXv.e.          ",
"              m.6XnX;X'.a.N b ,.<.6.4.v s v } J.oXE.s.3.W.4.^ ^ G J R.[.h.k.H.yXtX9XqX6Xv.r.        ",
"          e.m.b.iXtX~...5 b x.!.6.2.,.m N 7.Z.k.=.1.,.x j.E.z E ) ! m i.[.<.I.&XuX<XjXeXXXy.b.      ",
"          m.M.gXrX~.g.F | [.x.2.T.x.G S f.3.;.=.;.k./ x 1.*XV f z G f n L k.K l.<XiX;XkX|.rXXXy.    ",
"          r.e.6X:Xg.f.H K.2X>X1X!.! G J J ! =.P.P.~ ^ >.x L.J.1 5 f G f G k.L.*.I.9XuXjXhXmXrXy.    ",
"          /.M.eX~.F H =X<X=XuX*X .G =.[.*X*XoXJ.F.V.s.L.x./ 7 0 @ @ g J G ! [.x.@.&XuXuXMXNXkXM.e.  ",
"          qXiX;Xp.g f.<X<X2XC.v Q Q.aX1XQ.6.:.:.^ &.[ M { Y.A # q 5 7 5 L S j.T.x.Z.`.gXbXCXmXrXe.  ",
"        eX XqX`.F 5 _.<X-X@.L k.-X4X6.Q ~ K A T $.&.^ ^ &.C *.7 5 5 u 5 0 5 J !.x.P.P sXcXZXNXkXy.  ",
"        v.e.g.~.h P <X*X+.J R.*XQ./ C M 3 3 # # # 1 6 A / <.$.c @ @ % % 8 7 : k.T.T.@.<XmXBXCXhXv.  ",
"        |.b.:Xq.q._.&XZ.V P.W.Y.~ M 3 * > t , t y t e $ 6 T ^ $.8 @ @ u % ` } | [.x.L.@XBXBXmXb.e.  ",
"        m.N.B.g.l.=XW.H L E.T.$.c & # < M B B M 6 y 3 r r t R :.-.@ @ % a g V.` 1Xx.Y.@XsXpXpX(.e.  ",
"        e.e.u.n.'.K.D.b k.!.4.M = # 3 [ M ; . + o . . + r e n R <.Z # e j p } 7.W.6.T.,X<XwXwX(.e.  ",
"      M..XgXv._.`.W.b J Q.^ B = # ; [ 4 1 e j k a r o o o r # Y / &.t d p j 0 7.N 2.U.,X+X{.rX/.e.  ",
"      r.e.m.b.I.K.Z.b ;.Y.A 3 # o [ c w k i # + w j e & o * r d R <.Y n u i b ` 5 :.U.*.&X_.iXc.e.  ",
"      e.e. XjX`.I.L G U./ B & # 3 [ $ k # . . . . . e e . & e r l >.E f @ u d 0 8 :.T.&.-Xl.).e.e.  ",
"      e.e. X0X<XI.b ~ T.&.3 # - V 4 e e . 2 . . . . # j . o e # k / ~ N @ 7 m ` 7 >.T.) *Xi.N.e.e.  ",
"      e.6X(.w.&Xs.s ,.R.S 2 # - [ % k @ 9 ` . . . . r a . & e r i R / { + ` f ` N &.U.%.E...XX^.N.  ",
"        eX^.'.K.+.s h.x.C ; # - Z i a + 9 2 q . o w a e X * t e r k %.7 @ } u O.0 %.!.4.<Xi.{.qXXX  ",
"        7XtX;X`.o.s 1.h.M o > ; A p p O & 0 _ . & # r + * t r e O e J # @ : u O.q 5.Q.o.<XD.c.b.M.  ",
"        e.e.0X+X=.G 2.( B o < * A d p $ V w 9 X . . . o r e e * + p e % @ @ s ` _ x.x.D.s.D.B.v.e.  ",
"        e. XdX=X4.o.2.W [ X t * $.f j e ;.K w # # y y e t e t X o e e e r % #.2 @.U.-.W.L l.B.e.e.  ",
"          eXdX:Xo.E.1.W A 2 > < [ T l p U L.d D t w e e p { * X o e e n s s F.7 L.6.$._.F l.8Xt.e.  ",
"          iXzX`.m <X>.( T 3 $ < 6 *.z k l U [ 7.7.< y _ _ 2 X X . $ e s p G._ #.x.&.C.l.F l.qXm.e.  ",
"          kXBX;Xb 5X5.2.U  .* y r [ T l z k i 7.' & X X X . X X . w % e  .V.1 P.5.K *Xf.H h w.e.e.  ",
"          mXyX0XH 2X$X1.W -.M > 4 < $.$.Y U r O.@X6 X X . . . . O # w d V.- @.Y.$XG.'.i.0 I w.e.e.  ",
"            0X~.+.4.cX2.^ ~ Z c c t 4 *.*.>.[ $X,X$X2 X . . X & + # f 9.6 #.x.%.G.<Xd.P H h q.e.b.  ",
"            8X0.s.D cXE.1.E @.7.8.V r 4 $.9.Y.%X%X*.O.9 9 _ ' _ 7 n C.[ @.U.$.Z s.D.0.5 J.lXdXiXkX  ",
"            ^.w.z.H 1X5Xj.^ / #.J.$XV.c r c @.E.8.6 1 1 * * * ; v P. .P.x.&.Z H Z.n.V.@XfXdXCXNXnX  ",
"              q.I.Z.*.cXQ.h.E &.V q 3.E.S.Z N ; X X X X . * > c P.E.Y.~ *. .b o.=XdXfX@XlXdXNXNXgX  ",
"              t.`.=XA.%XcXT.h.E Q Z 4 M %.P.P.A.8.M t t M  .E.>X[.;.@.k.} 8 } &X3XlXOX` ~.}.6XmX    ",
"              r.w.d.:XP.5XsXT.h.R E T B 4 6 S ;.9.9.T.Y.Y.L.6.E.$XP.3.V N C.k.S.a.8 8 ~.].^.y.      ",
"                u.n.I.<XQ.sX4XT.h.R Y Y A C C M C [ 8.E.W.>X>XQ.5.C B N } P L +.p.8 V.0Xn.^.b.      ",
"                e.n.D.a.+X;.fXsXW.x.2.U Y E T C c c B C C m z m m N 5 s ) ,.Q X.` ` 9X`.m.y.        ",
"                  q.8X+X+XH.5.4XvXoXx.x.<.Y m Y / Q U z U x U ^ <.n n m / ;.$X+XV.6Xg. X/.^.        ",
"                  v..X:XW.+XoX<.9.vXaXG.k.Y.h.5.&. .S m ~ 3.<.^ E n n *.$X4X4XA.n.'.]./.y.v.        ",
"                    m.yX`.`.K.H.4.&.$XvX4XoXA.4.k.k.L.4.4.&.~ -.P.S.+XaXaX+X| ..'.rXM.r.e.          ",
"                    e.|.jX=X=X_.f.J.-.~ G.4X4X4X4XW.A.C.C.P.V.oX#X4X#XF.P +.Z.;X8X Xv.e.            ",
"                      y.|.pX;X=X`.D.X.a.4.3.C F.4XaX#X4XaXsXcX3XOX| H F F o.~.gXeXt.r.              ",
"                        r..XeXtX0X0X]._.s...a.l.D.<X@Xs.P ..D.Z.....i.~.2X(.b./.v.b.                ",
"                            y.m. XeXiXgX9X;X:X0.g.`.=X=X:XtX{.n.g.}.8X{.m.v.|././.gX                ",
"                                  |.v.XXXXeXpXpXkXmXnXnXgXfXiX.X(.(.XX8Xy.e.m.                      ",
"                                              NX  eXrXkXnXkX          iXpX                          "
};
