/* XPM */
static char *Hero_21666883400[] = {
/* columns rows colors chars-per-pixel */
"50 50 115 2 ",
"   c None",
".  c #5497CC",
"X  c #5599D1",
"o  c #5699D2",
"O  c #569AD3",
"+  c #579AD4",
"@  c #579BD4",
"#  c #599DD8",
"$  c #599DD9",
"%  c #5A9DD9",
"&  c #5A9EDA",
"*  c #5B9EDB",
"=  c #5B9FDB",
"-  c #5B9FDC",
";  c #5CA0D7",
":  c #5DA0D7",
">  c #5DA1D9",
",  c #5EA1D9",
"<  c #5EA2DA",
"1  c #5FA2DA",
"2  c #5FA2DB",
"3  c #5CA0DC",
"4  c #5DA1DC",
"5  c #5CA0DD",
"6  c #5FA3DC",
"7  c #5CA0DE",
"8  c #5DA0DE",
"9  c #5DA1DE",
"0  c #5DA1DF",
"q  c #5DA2DF",
"w  c #5EA2DF",
"e  c #5FA3DF",
"r  c #60A3DC",
"t  c #60A4DD",
"y  c #60A4DE",
"u  c #61A4DE",
"i  c #60A5DE",
"p  c #61A5DF",
"a  c #5DA1E0",
"s  c #5EA1E0",
"d  c #5EA2E0",
"f  c #5FA3E0",
"g  c #5EA2E1",
"h  c #5FA3E2",
"j  c #5FA3E3",
"k  c #60A4E1",
"l  c #61A5E1",
"z  c #62A5E0",
"x  c #62A6E0",
"c  c #63A6E1",
"v  c #60A4E2",
"b  c #60A4E3",
"n  c #62A6E2",
"m  c #63A7E2",
"M  c #64A7E3",
"N  c #60A4E4",
"B  c #60A4E5",
"V  c #61A5E5",
"C  c #61A5E6",
"Z  c #61A5E7",
"A  c #62A6E6",
"S  c #62A6E7",
"D  c #64A8E3",
"F  c #64A8E4",
"G  c #65A8E5",
"H  c #65A9E6",
"J  c #64A8E7",
"K  c #65A9E7",
"L  c #66AAE7",
"P  c #62A6E8",
"I  c #63A7E8",
"U  c #63A7E9",
"Y  c #64A8E9",
"T  c #64A9E9",
"R  c #67AAE8",
"E  c #67ABE8",
"W  c #67ABE9",
"Q  c #64A8EA",
"!  c #65A8EA",
"~  c #65A9EA",
"^  c #65A9EB",
"/  c #66AAEB",
"(  c #67ACEB",
")  c #67ABEC",
"_  c #68ACEA",
"`  c #68ACEB",
"'  c #69ACEB",
"]  c #68ADEB",
"[  c #68ABEC",
"{  c #68ACEC",
"}  c #69ADEC",
"|  c #68ACED",
" . c #69ADED",
".. c #6AADED",
"X. c #69AEEC",
"o. c #69AFEC",
"O. c #6AAEED",
"+. c #69ADEE",
"@. c #6AAEEE",
"#. c #6BAFEE",
"$. c #6BAFEF",
"%. c #6CB0EF",
"&. c #6CB0F0",
"*. c #6DB1F0",
"=. c #6FB4F1",
"-. c #71B7F2",
";. c #71B9F1",
":. c #72B9F3",
">. c #76BFF5",
",. c #76C0F4",
"<. c #78C0F6",
"1. c #78C1F6",
"2. c #7BC6F7",
"3. c #7ECAF9",
"4. c #82CFFC",
/* pixels */
"                                                                                                    ",
"                                                                                                    ",
"                                                                                                    ",
"                                                $.                                                  ",
"                                              $.$.$.$.                                              ",
"                                              Q $.$.$.$.                                            ",
"                                              P ) $.$.$.$.                                          ",
"                                              P N $.$.$.$.$.                                        ",
"        * -                                     P ) $.$.$.%.    % p :                               ",
"        N                                       P P $.$.v D $.%.$.$.%.$.%.v                         ",
"      5 Q                                       P P v F $.$.$.$.$.$.$.$.%.$.$.p                     ",
"      P [                                         v &.$.$.$.$.$.$.$.$.$.%.$.$.$.v                   ",
"    5 ) [                                     , _ $.$.$.$.$.$.$.$.$.$.$.$.$.$.$.%.c                 ",
"    g ) $.                                  F &.$.$.$.$.$.$.$.$.$.$.$.$.$.$.$.$.%._                 ",
"    N $.$.                            , F $.$.$.$.$.$.$.$.$.$.$.$.$.$.$.$.$.$.$.$.$.F               ",
"    P $.)                         v _ &.$.$.$.$.$.$.$.$.$.$.$.$.$.$.$.$.$.$.$.$.$.$.$.              ",
"    P $.$.                    r _ $.$.$.$.$.$.$.$.$.$.$.$.$.$.$.$.$.$.$.$.$.$.$.$.$.$.v             ",
"    ) $.)                 5 _ $.%.$.$.$.$.$.$.$.$.$.$.$.$.$.$.$.$.$.$.$.$.$.$.$.$.$.%.$.            ",
"  5 $.$.J             , _ &.$.$.$.$.$.$.$.$.$.$.$.$.$.$.$.$.$.$.$.$.$.$.$.$.$.$.$.$.$.$.$.r         ",
", &.$.$.v         p _ $.$.%.$.$.$.$.$.$.$.$.$.$.$.$.$.$.$.$.$.$.$.$.$.$.$.$.$.$.$.$.$.$.$.$.&.F ,   ",
"( $.$.Q .   p D $.$.$.$.$.$.$.$.$.$.$.$.$.$.$.$.$.$.$.%.$.$.$.R Q %.%.$.$.$.$.$.$.$.$.$.$.$.$.$.&.p ",
"$.$.$.%.R %.$.$.$.$.$.$.$.$.$.$.$.$.$.$.$.$.$.$.$.$.$.%._ v 5 v f %.%.%.$.$.$.$.$.$.$.$.$.$.$.$.&.$.",
"%.v _ $.Q %.$.$.$.$.$.$.$.$.$.$.$.$.$.$.$.$.$.$.$.$.v p v P P P N %.$.$.$.$.$.$.$.$.$.$.$.$.$.$.$.$.",
", F $.$.$._ $.$.$.$.$.$.$.$.$.$.$.$.$.$.$.$.$._ v 5 N $.:.,.2.3.4.Q $.$.$.$.$.$.$.$.$.$.$.$.$.( Q g ",
"  Q $.$.$.$.$.$.$.$.$.$.$.$.$.$.$.$.$.$.$.$.&.F f 5 P P P Q $.( $.F &.$.$.$.$.$.$.$.%.%.Q P P P 5   ",
"  5 $.$.$.$.$.$.$.$.$.$.$.$.$.$.$.$.$.$.$.$.$.$.%.%.D v 5 5 N N j &.&.%.$.$.$.$.$.$.$.Q Q P g o     ",
"  g %.$.$.F $.$.$.$.$.$.$.$.$.$.$.$.$.$.$.$.$.$.%.$.$.$.$.$.( F v &.$.$.$.$.$.$.$.$.( P N *         ",
"  Q $.$.$._ $.$.$.$.$.$.$.$.$.$.$.$.$.$.$.$.$.$.$.$.$.$.$.%.%.%.$.$.$.$.$.$.$.$.$.$.Q P 5           ",
"  P $.$.$.  v $.$.$.$.$.$.$.$.$.$.$.$.$.$.$.$.$.$.$.$.$.$.$.$.$.$.$.$.$.$.$.$.$.$.| P j             ",
"  v Q $.$.      N $.$.$.$.$.$.$.$.$.$.$.$.$.$.$.$.$.$.$.$.$.$.$.$.$.$.$.$.$.$.$.$.P P 3             ",
"  g Q %.$.        g P $.$.$.$.$.$.$.$.$.$.$.$.$.$.$.$.$.$.$.$.$.$.$.$.$.$.$.$.$.) P j               ",
"    N $.$.          * P Q $.$.$.$.$.$.$.$.$.$.$.$.$.$.$.$.$.$.$.$.$.$.$.$.$.$.&.P P 3               ",
"    * Q $.              g P Q $.&.$.$.$.$.$.$.$.$.$.$.$.$.$.$.$.$.$.$.$.$.$.$.Q P N                 ",
"      5 $.                o g N P | $.$.$.$.$.$.$.$.$.$.$.$.$.$.$.$.$.$.$.$.Q P P                   ",
"        N                     + g P P Q ) $.$.$.$.$.$.$.$.$.$.$.$.&.$.$.$.Q P P 5                   ",
"                                  o g P P P N ) ) ) $.[ | $.| $.) Q Q P P P P j                     ",
"                                        g P P P P P P P P P P P P P P P P P f                       ",
"                                          + f P P P P P P P P Q P P P P P 5                         ",
"                                              + - P P P P P P N P P P * o                           ",
"                                                  * - f 5 5 p g o                                   ",
"                                                  N Q $.$.>.-.                                      ",
"                                                  Q Q $.=.<.$.                                      ",
"                                                Q P $.$.<.&.                                        ",
"                                                Q Q %.:.&.                                          ",
"                                                Q $.$.%.                                            ",
"                                                $.$.$.                                              ",
"                                                                                                    ",
"                                                                                                    ",
"                                                                                                    ",
"                                                                                                    "
};
