/* XPM */
static char *_591b1f74e2149f9acea05b699d16a1eaQiM1WXgSgGuCcpb[] = {
/* columns rows colors chars-per-pixel */
"50 50 240 2 ",
"   c #2A3B0A",
".  c #273F04",
"X  c #323D0E",
"o  c #393809",
"O  c #2D3D19",
"+  c #323C12",
"@  c #343B17",
"#  c #2E3D20",
"$  c #313E20",
"%  c #473D1D",
"&  c #58361D",
"*  c #512E2C",
"=  c #4C3D2C",
"-  c #493924",
";  c #543623",
":  c #543B22",
">  c #543B2C",
",  c #593829",
"<  c #5A3434",
"1  c #4C3732",
"2  c #6C3631",
"3  c #244504",
"4  c #2C4503",
"5  c #244C03",
"6  c #2C4B03",
"7  c #2C440B",
"8  c #234A0B",
"9  c #2D4C0B",
"0  c #21430E",
"q  c #324405",
"w  c #3A4503",
"e  c #334C04",
"r  c #3B4D04",
"t  c #32440C",
"y  c #3A470F",
"u  c #334C0C",
"i  c #394D0C",
"p  c #2D5203",
"a  c #25540A",
"s  c #2D530C",
"d  c #2B5806",
"f  c #345105",
"g  c #3A5303",
"h  c #375A06",
"j  c #395C03",
"k  c #34530C",
"l  c #3B540B",
"z  c #345B0B",
"x  c #3B5E0C",
"c  c #244511",
"v  c #2D4513",
"b  c #264B10",
"n  c #2E4D12",
"m  c #2F471B",
"M  c #2F4B1B",
"N  c #26491A",
"B  c #334413",
"V  c #3A4314",
"C  c #334B13",
"Z  c #3A4C14",
"A  c #33441B",
"S  c #39441A",
"D  c #344B1A",
"F  c #3B4C1C",
"G  c #275213",
"H  c #2E5516",
"J  c #345114",
"K  c #395313",
"L  c #345913",
"P  c #3B5A10",
"I  c #3A521A",
"U  c #355019",
"Y  c #3B6403",
"T  c #3E6B03",
"R  c #3D650C",
"E  c #3D6B0C",
"W  c #36650B",
"Q  c #3D6514",
"!  c #3B6B11",
"~  c #3F6C1A",
"^  c #376719",
"/  c #3D7E08",
"(  c #344322",
")  c #334B22",
"_  c #3D4823",
"`  c #2E5421",
"'  c #325321",
"]  c #3C5422",
"[  c #2C4B21",
"{  c #3B6920",
"}  c #41490E",
"|  c #415A0B",
" . c #444818",
".. c #425C13",
"X. c #465719",
"o. c #426404",
"O. c #436A03",
"+. c #43650D",
"@. c #4A630D",
"#. c #436A0C",
"$. c #4C6A0D",
"%. c #4A6506",
"&. c #51680B",
"*. c #4A7504",
"=. c #4D7B03",
"-. c #43720D",
";. c #4B750D",
":. c #447D0B",
">. c #4C7C0C",
",. c #467800",
"<. c #547B07",
"1. c #53750C",
"2. c #527B0C",
"3. c #597805",
"4. c #436513",
"5. c #4A6415",
"6. c #446A13",
"7. c #496B14",
"8. c #43641A",
"9. c #4B651B",
"0. c #46691A",
"q. c #4A691C",
"w. c #536C15",
"e. c #55681A",
"r. c #457413",
"t. c #4C7514",
"y. c #4E7B12",
"u. c #4D741B",
"i. c #4D7A1B",
"p. c #457D15",
"a. c #527614",
"s. c #527C13",
"d. c #52751B",
"f. c #5A7619",
"g. c #537B1B",
"h. c #597A1A",
"j. c #597711",
"k. c #626F1F",
"l. c #607415",
"z. c #4B4322",
"x. c #424B21",
"c. c #45422A",
"v. c #4B4228",
"b. c #524225",
"n. c #53472B",
"m. c #415123",
"M. c #4C4132",
"N. c #564837",
"B. c #5D5723",
"V. c #67512B",
"C. c #694531",
"Z. c #6E443A",
"A. c #664938",
"S. c #714434",
"D. c #774838",
"F. c #6C5332",
"G. c #6E462D",
"H. c #486A26",
"J. c #4A7424",
"K. c #547C23",
"L. c #567928",
"P. c #5E4541",
"I. c #764F44",
"U. c #62554F",
"Y. c #6B4C4A",
"T. c #873D32",
"R. c #8B5F3D",
"E. c #834746",
"W. c #935D46",
"Q. c #8B6348",
"!. c #906352",
"~. c #8D6953",
"^. c #48810B",
"/. c #578708",
"(. c #5F9403",
"). c #5E910D",
"_. c #5B9A0B",
"`. c #4D8416",
"'. c #548115",
"]. c #5D8E13",
"[. c #54801B",
"{. c #5B8315",
"}. c #5C9313",
"|. c #57921C",
" X c #608F0E",
".X c #649405",
"XX c #629B01",
"oX c #64940C",
"OX c #669B0C",
"+X c #6B9C0D",
"@X c #6C9509",
"#X c #72990C",
"$X c #648E1C",
"%X c #6A8C1C",
"&X c #639413",
"*X c #699413",
"=X c #669A13",
"-X c #6A9B13",
";X c #64931B",
":X c #6A951B",
">X c #65991A",
",X c #6A9A1B",
"<X c #71921A",
"1X c #759D19",
"2X c #70A404",
"3X c #6BA010",
"4X c #70A21D",
"5X c #6CA109",
"6X c #598222",
"7X c #649223",
"8X c #6A9422",
"9X c #6C9B22",
"0X c #6B9929",
"qX c #679229",
"wX c #709722",
"eX c #72A32D",
"rX c #F3FFE3",
"tX c #FAFEE5",
"yX c #F5FCED",
"uX c #FCFFED",
"iX c #EDFCF9",
"pX c #F4F6F2",
"aX c #F9F6F7",
"sX c #F5FEF4",
"dX c #FCFEF5",
"fX c #F5F5FC",
"gX c #FBF6FE",
"hX c #F6FFFF",
"jX c #F5FEFC",
"kX c #FBFFFA",
"lX c #FFFFFB",
"zX c #FEFEF9",
"xX c #FDFAFF",
"cX c #FAFEFE",
"vX c #FFFDFF",
"bX c #FFFEFF",
"nX s None c None",
"mX c #FEFFFF",
"MX c #FDFEFE",
"NX c #FEFEFE",
/* pixels */
"nXnXnXnXnXnXnXnXnXnXnXnXkXnXnXnXzXaXnXnXnXgXnXnXnXuXnXzXxXuXdXgXnXkXkXdXxXnXnXdXnXnXnXnXnXnXnXnXnXnX",
"nXnXnXnXnXnXnXnXnXnXnXpXdXdXaXnXzXnXjXyXcXnXdXuXyXdXnXxXzXcXjXnXgXnXnXnXtXxXnXcXnXnXnXnXnXnXnXnXnXnX",
"nXnXnXnXnXnXnXnXzXzXnXnXnXxXnXxXcXrXL.3.1.sXcX1.f.cXcXjX3.2.u.;.dXxXgXnXnXgXaXdXnXnXnXnXnXnXnXnXnXnX",
"nXnXnXnXnXnXnXnXdXdXgXnXgXxXnXzXjXwXoX2.*X*Xq.d.e.sX1XoX.Xd.^./.jXzXcXkXnXdXnXcXnXnXnXnXnXnXnXnXnXnX",
"nXnXnXnXnXnXnXnXcXnXzXzXnXdXyXuX8XoXOX=X=X;X;.=.>.(.7X7X5XJ.i.>.OX.X:XrXnXgXdXzXnXnXnXnXnXnXnXnXnXnX",
"nXnXnXnXnXnXnXnXnXxXzXdXgXfXnXcX%X+X=X}.(.=X,X>X>X>X}.3X>X2.=.qX7X=X>XC cXnXaXnXnXnXnXnXnXnXnXnXnXnX",
"nXnXnXnXnXnXnXnXnXnXaXnXnXnXcXkXjX;.-X;X9X&XoX.XXX>X&X;.t.;.s.:X>X&Xg...dXnXxXdXnXnXnXnXnXnXnXnXnXnX",
"nXnXnXnXnXnXnXnXzXzXnXaXzXtXe.:X;X'.].=X,X=XoX0X&X9XoX>X+X2.>.*.2.4.6.+.r nXnXcXnXnXnXnXnXnXnXnXnXnX",
"nXnXnXnXnXnXnXnXnXnXnXiX,X=X).+X*X>XoX-X;X>X=X>X;X+X).oX,Xa.>X=Xg.a.+.=.u.H.jXnXnXnXnXnXnXnXnXnXnXnX",
"nXnXnXnXnXnXnXnXxXnX3.t.*X}.eX;X=X+X;X;X@XOX;X&X;XoX4XoX&X|.>X*Xy.*.y.L.>.R %.zXnXnXnXnXnXnXnXnXnXnX",
"nXnXnXnXnXnXnXnXcXsX&.{.K.XX(.&X}.oXOX-X;X;.=.,X>X}.oXoX=X*X&X=.^.y.:.K.,.=.9.kXnXnXnXnXnXnXnXnXnXnX",
"nXnXnXnXnXnXnXnXsXjXjX;.].}.;X,X0X;X-XoX! 6.;X>XoX9XoX>X&X(.0X7X>.t.s.Y s.a.O nXnXnXnXnXnXnXnXnXnXnX",
"nXnXnXnXnXnXnXnX9.+.t.[.3X;X2X).&XOX).qXqX2.;.=X.X*XoX&X,XOX#.T E 2.h.k K 7 t dXnXnXnXnXnXnXnXnXnXnX",
"nXnXnXnXnXnXnXnX@.+._.,.t.2.OX>XoX+X=X*X=.2.,XOX*X,X&X8X8X*.2.qX$X*X$X8X6 Z uXdXnXnXnXnXnXnXnXnXnXnX",
"nXnXnXnXnXnXnXnXdX8X.XOXu..X-X7X*X:XoX*X#.y.&X=X8X&X=.8XqXT ;X>X-XoX>X*Xz P jXxXnXnXnXnXnXnXnXnXnXnX",
"nXnXnXnXnXnXnXnXcX@X9X}.K.d.:X(.>X;X+.0.j s.g.;.i.=.s.=.#.+.-XoX}.+X:Xs 6 u K xXnXnXnXnXnXnXnXnXnXnX",
"dXxXnXdXnXuXdXzX0..._.#Xt >.'.;.,X>X#.Q z 6 6.d.s.6.y.t.y.1.g.:.=XoX>.<.n I J jXgXnXnXuXjXnXnXxXnXnX",
"dXnXnXnXxXdXnXxX5.Y ~ Z ` %X$X/.t.#.Y ;.h.g.$.+.9 9 >.#X>X'.).-X;X,X>XO.x 7 4 dXuXr t jXZ r dXzXnXnX",
"xXnXzXzXnXxXtXsXuXQ e g =X*X*X}.;X2.2.y.g.u.4.#.H.<.s.@X|.&X-X(.y.;X$X4.o.K Z x.7 g u ] I r jXcXnXnX",
"nXdXnXdXcXjXw.a.h.R N.G <XXXXX,X,X=.*.g.t.p f 6.o.2.J.=.f.&X;X9Xz O.5.0.+.5.z.C 4 ) u 6 K jXdXcXnXnX",
"tXgXnXnXaX@.h.=.u.6X* H.| / qX:Xu.g.'.*.<.2.g.E q.Q y./ > #XoXM 9 O...Q +.4.> 4 m 6 J g u _ zXzXnXnX",
"dXnXxXaXdX4.R '.=.:.: I.:.`.u.2.[.;.;.s.'.;.g.t.7.L -.~ < o.p I 8.0...J.o.s I.J 7 P 4 A j t zXnXnXnX",
"xXnXnXuXcXsXK.r.g.^.<.2 3.L.;.>.=.*.'.g.r.g.g.a.L.1.e.A.M.q.W +.4.P @.^ O.0.2 J 4 B D . B S nXnXnXnX",
"zXzXgXxXxXdXg.;.5.p.t.I.A.O.s.:.i.6.g.;.T s.;.>.e l N.T.#.J.>.2.#.7.5.T +.! D.z K u D 6 q kXcXdXnXnX",
"nXxXnXdXcXr ) #.o.#.i I V.5.t.u.8.6.6.+.R s.a.k u Z.V.E ! 1.i.y.i.6.u.:.i < n.q.+.e k u   q dXnXnXnX",
"nXgXgXnXyXk 5 g.d.y.7.m.B.q.+.z h j +.0.R s.d.k s D.k.;.7.r.d.=.=.*.[.^.g ,  .#.4.H.+.7 e O kXnXnXnX",
"zXxXnXxXy K {.;.s.:.;.7.w.a.$.R +.7.+.8.6.#.h u ! F.f.u.2.-.2.s.2.s.K.r.l 1 V f 0.8.#.9 v dXgXzXnXnX",
"pXnXzXnXi k ,.y.g.^.^.a.s.^.j.0.4.4.k f 0.R x ..-.X.@.i.s.2.>.t.;.y.x z C v.I k #.j k C jXzXnXdXnXnX",
"dXxXzXzXm.u L.i.5.i.p.f.:.:.g.4.4.4 7 k 4.+.u.6.W 4.1.`.J.s.g.2.'.[.r p 9  .6.+.#.y.8.7 iXnXnXdXnXnX",
"zXaXnXzXyXZ k p g s.;.j.:.^.'.@.6.s C J 5.Q 4.+.E w.p.*.P :.w.E 7.i.i K k Z #.x 7 4.+.C m.cXaXnXnXnX",
"nXdXnXzXnXuXX.6.Y j.;.&.t.;.6.X.R 8.C e 0.8.f 4.#...! l e T @.L f z B D C C z I U l r u K dXdXgXnXnX",
"nXuXgXzXcXjX5.6.~ 4.z B K Z 9 z.O.9.9 6 f P 9 5.9.s T 8.8.0.+.8.#.Y X.i 6 k p Z J f D k S uXdXnXnXnX",
"nXxXxXdXuXF J +.#.W 6.+.p k e 1 , 0 6 H I e i K w 8 { 9.k R o.0.4.E l ) : n a } U f u l tXnXdXnXnXnX",
"dXnXnXpXF ( 9 6 8.Z 4.8.Z k 9 % & E.| #.n e.q.f 9 I r w J { 0...9 k 9 _ : n s t n l C 7 O xXnXxXnXnX",
"zXaXdX] r f 7 7 t ; u 9 V k s t N I.Q E ~ +.E ..#.6 I Z e u...n.@ 9 @ : : n } 8 v 4 n B ( nXzXxXnXnX",
"zXaXcXZ J 6 I v e : 1 n 4 D 5 4 5 Z.D.f W %.W 7.%.~ k s k 4 7 : ; ) % & B t y 3 7 C 7 7 rXsXkXnXnXnX",
"dXnXnXjXu D k e z   < S 3 Z a t r U C.~.5.4.n 5.+.~ 5 C } e M N , > % B t   a t e 7 9 7 B ( dXnXnXnX",
"xXxXdXZ e k u l 5 _ - v. .f S u U a V !.t B n.j ..q c z.. 8 G.D.% ; A B 7 9 C i 4 D Z 7 7   dXnXnXnX",
"nXzXyXi X.e F p M o 9 = F.t  .z , o 4 !.Q.0 > u n.9 6 R.W.D.D.u y  .c w 5 v Z J u C u n t 7 dXnXnXnX",
"nXxXzXnXkXjX) f dX6 t @ S.A.H r > b.6 N W.s & O * B W.!.b b D l d D 7 4 6 o b i u D 9 . u t kXnXnXnX",
"nXnXnXnXnXnXnXnXdX+ X e w N.xXv e = < 4 A.B ; , c.Z R.b B u J B u f m 7 6 7 4 t 4 e 7 B A dXnXnXnXnX",
"nXnXnXnXnXnXnXnXcXzXdXO S U.aX4 v B > > D.7 S > V   G.M t 6 f t K F c e 7 v Z sXB O yXdXnXnXzXzXnXnX",
"nXnXnXnXnXnXnXnXdXpXnXkXzXxXuXt + 4 3 - S.u 8 < o A C.B B B C 4 7 7 4 C 4   cXcXzXzXaXnXnXaXnXgXnXnX",
"nXnXnXnXnXnXnXnXdXnXnXsXnXdXF 4 e ( n t G.+ p - nXuXF.3 B dXsXB 4 D q 7 t V aXkXxXnXnXzXzXxXnXnXnXnX",
"nXnXnXnXnXnXnXnXdXxXdXuXaXkXO B 3 jX+ _ 2 dX_ O dXdXP.zXnXxXdXt B yXB A dXuXdXnXdXgXnXnXxXnXcXpXnXnX",
"nXnXnXnXnXnXnXnXzXxXzXdXnXjXcXjXkXcXdXpXY.nXaXzXcXxXgXzXaXnXgXnXdXcXkXxXjXaXnXaXdXzXzXpXnXcXnXnXnXnX",
"nXnXnXnXnXnXnXnXnXxXcXxXxXjXdXnXxXkXnXnXkXkXnXgXnXgXnXnXdXdXgXnXnXyXxXxXnXnXgXzXnXnXaXdXdXdXcXnXnXnX",
"nXnXnXnXnXnXnXnXdXkXzXxXxXjXkXxXkXnXgXtXiXdXdXjXjXdXdXxXcXdXdXjXxXzXgXuXzXnXdXnXnXaXnXxXnXnXnXaXnXnX",
"nXnXnXnXnXnXnXnXnXnXnXnXnXnXnXnXnXnXnXnXnXnXnXnXnXnXnXnXnXnXnXnXnXnXnXnXnXnXnXnXnXnXnXnXnXnXnXnXnXnX",
"nXnXnXnXnXnXnXnXnXnXnXnXnXnXnXnXnXnXnXnXnXnXnXnXnXnXnXnXnXnXnXnXnXnXnXnXnXnXnXnXnXnXnXnXnXnXnXnXnXnX"
};
