/* XPM */
static char *_b90c6c7eded4f3f862e934c1614bad2N6CD2tuLIx93u4He[] = {
/* columns rows colors chars-per-pixel */
"50 50 116 2 ",
"   c #2E6C01",
".  c #2D6F01",
"X  c #2F6D02",
"o  c #2D6F03",
"O  c #2F6E05",
"+  c #316F02",
"@  c #306E03",
"#  c #306F04",
"$  c #316F04",
"%  c #2E7100",
"&  c #2E7201",
"*  c #2F7201",
"=  c #2E7002",
"-  c #2F7103",
";  c #2E7004",
":  c #2F7105",
">  c #2E7006",
",  c #2F7107",
"<  c #307000",
"1  c #317101",
"2  c #307300",
"3  c #327200",
"4  c #337301",
"5  c #307002",
"6  c #317103",
"7  c #307302",
"8  c #327202",
"9  c #337303",
"0  c #317400",
"q  c #307500",
"w  c #317401",
"e  c #307501",
"r  c #327501",
"t  c #317601",
"y  c #307701",
"u  c #327700",
"i  c #337700",
"p  c #307403",
"a  c #317403",
"s  c #327502",
"d  c #317602",
"f  c #337602",
"g  c #327702",
"h  c #337603",
"j  c #327703",
"k  c #347402",
"l  c #347703",
"z  c #317005",
"x  c #327005",
"c  c #307204",
"v  c #317305",
"b  c #327204",
"n  c #337305",
"m  c #327106",
"M  c #307206",
"N  c #317307",
"B  c #337207",
"V  c #347205",
"C  c #357306",
"Z  c #347207",
"A  c #317504",
"S  c #327504",
"D  c #327605",
"F  c #337605",
"G  c #327406",
"H  c #337507",
"J  c #337706",
"K  c #347404",
"L  c #357505",
"P  c #347704",
"I  c #367604",
"U  c #347406",
"Y  c #357507",
"T  c #347706",
"R  c #367606",
"E  c #377707",
"W  c #337801",
"Q  c #337803",
"!  c #327903",
"~  c #347801",
"^  c #347902",
"/  c #357902",
"(  c #337804",
")  c #357804",
"_  c #347904",
"`  c #357805",
"'  c #347905",
"]  c #367905",
"[  c #357A05",
"{  c #377B04",
"}  c #347807",
"|  c #357807",
" . c #367906",
".. c #357A06",
"X. c #377A07",
"o. c #367B07",
"O. c #307208",
"+. c #337209",
"@. c #347308",
"#. c #357308",
"$. c #327408",
"%. c #337509",
"&. c #347608",
"*. c #357709",
"=. c #367608",
"-. c #34760A",
";. c #367908",
":. c #377A09",
">. c #36780A",
",. c #37790B",
"<. c #377C08",
"1. c #397909",
"2. c #387B08",
"3. c #387B0A",
"4. c #3A7A0A",
"5. c #397C09",
/* pixels */
"O.M M G G M G a a ~ ` ` G a E ! = = a a a a a a a ! ` G E M M V , M $.M G G a a a ~ &.E $., G $.G a ",
"M M = o o 7 7 G ! G a a a a a a G ` X.5.` a a E a a G a 7 # # # $.- - o = = M M a a G G - - - $.G ! ",
"&.M 7 o M M M $.a a a a ` ` G a a ` <.5.` a = G a ~ G a = + V M G G 7 = = G O.$.a G G - - O 7 a G G ",
"a a 7 &.&.&.$.M E G ! G ` :.<.X.~ k ~ k a & - $.a a a a o + M #.a a G G :.$.$.M a G G M - = 7 a G G ",
"a a a ` E G M = a a a a a ` ` 5.` ~ k ~ a G G $.k E 7 M 7 7 M V & & a ` &.$.- - ! G M M M 7 a G 7 = ",
"a G a a 7 M M = G G ` a a a ~ ` ~ a a ~ ` ~ a G E V V 7 M M M E E G a a a M - = a G G M 7 M ~ a M 7 ",
"` &.a a & & a ` G G a G k ! k ~ a a a ` ` k a a V E 7 M G G G G &.&.a a = a a ` G M M M M M a a E G ",
"- G G a a = E ` G G G E ` ~ ! a E a ~ ~ ~ ~ ` ` V M E M & G G G 7 G G a a & ~ ` 7 M M G M E a k a a ",
"G a & G G ~ ! a a M k E a k a k G ! a a G ~ ! a M 7 a 7 a a E G E E 7 a a k ! a G G ` a a G a a a G ",
"G ! & ! G ! ! a E M G a E a a ~ G G & ! ! a ! ! G G ! k a a a G k k 7 a ~ ~ ` a G a a a a k ~ ~ a a ",
"G G G G G ! ~ a E G G G M 7 7 7 G G a a G ` k a O.O.G G G a a a a a a G E ` ! ! a G G = a a X.X.1.` ",
"a G G a a E G a M M M 7 7 + V V & G G G a G ! G - , M G a a E ! G G G & & G G a ! ` ! E ~ ` <.5.&.E ",
"= G M E a a G a a a a 7 M M V O.G G G G G a E a - - G G E ` ` <.E a = a 7 7 G M 7 ` ` ` ` ` 1.` k 7 ",
"= G G G G a a 7 ! a G a E V #.#.= G G G V 7 a a G G G G a G ` ` ! E a a G a E &.= a ! ! ~ ~ ! a 1.1.",
"M V V M M V V E ! ~ a ` V M $ + # $ G G 7 M 7 E ! a a a a a a ~ ~ ! a a a a k k a ! ` G ! ! ! a ` ` ",
"M M V E E 7 k E ~ ! ~ a 7 + + @ V M 7 E E V V E ~ ~ a a E ~ a ~ ~ ! ! E ~ k 7 = ` ` ! ! a ! a ! ! ! ",
"$.- , G G G a G a k G E V $ M V O.M O.M M G a a k E C V V V k ` ~ ` ` G 7 # V #.E E a ` a G ` ` $.G ",
"$., - = = = G , a a ! a V # # V O.M O 7 o 7 M G E a 7 + + k a ! k ! a = # #.V 7 7 a a a M 7 a a G G ",
"$.G - - = G $.$.a a E = M 7 M M E M 7 o M M $.M a k + 7 7 G a a a a a = M V V + ` a a a ` :.` a G ! ",
"a , & G :.&.$.- a ! 7 7 o o V M = a = E &.&.$.M 7 7 7 V ` ` ` ~ a a a = M E M 7 G G G ! ` <.` <.a ! ",
"& a a G E G - - E k a 7 7 M G G a & a G ` $.M o k a a ~ <.<.` ! a ! ! G G G a a a a G a a ~ ` 5.! ~ ",
"` a a a a = = - E M V M = G G G ` a a a & G 7 7 E ` a ! ! ` ` ` a ! :.G a a a a G G ! a a a ` ` ! a ",
"` G ` a = a a E E M V 7 G G G G &.G ` a 7 a a ` E M a a a ! ! ` ! k ! G a k ~ k E G ! k k a ~ ~ k ! ",
"- G G a a a a ` V E V M a G G G M G G a a = a ` 7 7 ! ! ! ! ! G ! ! , & & ` ` ~ G , G G ~ ` k a ` k ",
"! G a a ! ! ! a M E 7 a a a a a ! G a a ! ~ ! a O.E G a ~ ` ! &.E E k k a ~ ! a G G ` G G ` ` k G a ",
"G G , ! G ! ! a E ` G E ` G a G G ! & G G a ! ! M M k a ! k G G 7 E a 7 a ` ! a G G G & a ~ a ! a G ",
"G G a a a G a a a a a a a a a V G G a a E a a a M M M E a a a 7 7 a a a a ` a ! G G a a a a ` ` 5.1.",
", a G a a E ! k a a a = = 7 7 V - G G a G ! a E M M 7 M G G G E G G G a a k G a G ! ` G k ~ 5.` E G ",
"7 a G G ! a a G E a a a V M #.V - - G G E a a a G G G G G ` :.:.` ! G & a G M V G ` ! ` a ` ` ` k 7 ",
"M M G G G G ~ a a ! ! G E E V #.G G G G M 7 G a E a M G G ` ` ` ` a a a a G E &.a k ` a E ` ` ~ :.1.",
"# V M V M 7 E E G ! a G M 7 # # # M G E E 7 7 E a a G a G k ! a ` a a k a a k k a ~ ` a ! ` a a ` ` ",
"# M E V V E V 7 ! ` ~ k M + + + V M V M V M k E ~ ~ ! ` ` ~ ~ ~ ~ ! ! ` ~ k 7 7 ` ` ~ k k ~ ` E ! ! ",
"O.M #.M M G a a a ~ G ! V # V V , O.G M G G a G a 7 V V V V k ~ ` ` ` M # # #.#.k ` ! E G a G ` G G ",
"O.M - = o 7 M G a a E a 7 M # O.G - - o o - M G ` E # 7 7 7 a ` a ~ G 7 M V V M a G a a a a a a G a ",
"G G - o M M $.M a a ! a = + # #.G G = o = M $.M V k + 7 7 a a a a a 7 = 7 V V 7 E a a a ` ` G a ! a ",
"a G = E &.&.$.M a k a M = + M V a a a E :.$.$.M 7 7 k V :.` ` ! a a a M G V M 7 a a ! E ` X.<.<.! k ",
"& a a ` :.G M o E k a M - 7 M G a a a ! :.$.- - k V a ~ <.<.` ! a ! ! $.G G a k a a a a a k ` 5.! ! ",
"` a a a & - 7 7 V E V 7 M M M E G G a a - - - - E E a ! ! ` ` ` a ! ` G a a a a G G ` a a a ~ ` a ! ",
"G G G a 7 a a ` E M V M G G G G &.&.a a = & a ` M E a a ! a ! ~ ! a ! a a G ` k G G G G E ~ ~ ` ! k ",
"G G G a a = a ` E V M 7 a G G G 7 G G a a a ~ ` 7 7 a ! ! ! ! k ~ ! a = & ` ` ! G G G ` a ~ a a G E ",
"E ` k a 7 ! ! a = = = & a a G G E a k a a ~ ! a a G G E ! :.a a G G a ` ` a a a a E a E a ~ ~ k G a ",
"7 k k a k ~ ! a G E E ! ~ a a G k k a a k ~ ` a = a a a G k ~ ` :.G a a ` ~ k ~ G M M E a a a a 7 E ",
"V a a G E ! ` ! , , $.G ` a a a G a a a E ` ! ! G ` a a 7 a ` ` 5.G = = G G k ! E G G M M 7 a a 7 7 ",
"G M M 7 a G a a - , - $.a G ` ` G G G a & G G a E ! ` a a ` X.X.! G a G G ~ a a M M 7 7 7 7 V 7 M 7 ",
"` a a a a 7 M M - - G a G ` :.` ` G a & 7 7 M M G ! E a ` ` ` ` a k ` G $.$.G a a a G = V M V #.V V ",
"` a a a a ! E E $.G G G a ` ` ` ` a a a G a E &.& a ~ ` ` ~ ~ k ` <.:.&.- - G ! a ! a a V &.#.#.M k ",
"~ ! a ~ k G k V ! a a a a a a ~ ~ ! a ` k G k k a k ` a a ~ ~ a <.` ` $.- G ! k ! ~ E G k M # # + M ",
"` ! a ~ k 7 + 7 ~ ~ a G E ~ a ~ { a ! k ~ a 7 7 ~ ` ` a a E ` ~ ~ a G - - G E a ~ ! k k 7 + @ @ 7 M ",
"a ! :.M # &.k 7 E 7 7 k # V ! a ! a 1.M # V 7 7 a G a ! G a a ! G a ~ ! a ` & G G E G E 7 M M #.M M ",
"a ! E M # V 7 7 V 7 V M # # E E a ! &.7 # E k 7 G k k G E a a a G a ` ! ! ` a G ! ` a G V M # #.V M "
};
