/* XPM */
static char *Exit_closed1666800535[] = {
/* columns rows colors chars-per-pixel */
"50 50 87 1 ",
"  c None",
". c #020101",
"X c #0B0201",
"o c #140301",
"O c #1D0501",
"+ c #240601",
"@ c #2A0700",
"# c #260901",
"$ c #2D0A01",
"% c #360E01",
"& c #3C0E00",
"* c #2C1308",
"= c #351404",
"- c #3D1000",
"; c #3D1909",
": c #410E00",
"> c #451300",
", c #4C1600",
"< c #411C00",
"1 c #4E1901",
"2 c #451D0B",
"3 c #501600",
"4 c #511A01",
"5 c #581F00",
"6 c #4B2100",
"7 c #522404",
"8 c #5C2202",
"9 c #552901",
"0 c #5E2E01",
"q c #552508",
"w c #5A250C",
"e c #5C2909",
"r c #462516",
"t c #4E2B1A",
"y c #5C2711",
"u c #5E2811",
"i c #512D1C",
"p c #59311F",
"a c #612701",
"s c #662A05",
"d c #692C03",
"f c #622709",
"g c #642B0B",
"h c #6B2D09",
"j c #623001",
"k c #6E3200",
"l c #6B320E",
"z c #743600",
"x c #773800",
"c c #7C3C01",
"v c #74340D",
"b c #78360E",
"n c #7C390F",
"m c #612A12",
"M c #632E1A",
"N c #6F3510",
"B c #67331E",
"V c #68341F",
"C c #7D3A10",
"Z c #5D3623",
"A c #6D3821",
"S c #673D28",
"D c #743F27",
"F c #723F28",
"G c #754129",
"H c #7C462D",
"J c #803F02",
"K c #833D12",
"L c #854201",
"P c #8B4601",
"I c #8E4801",
"U c #89420F",
"Y c #954D01",
"T c #994F04",
"R c #874012",
"E c #8C4315",
"W c #904615",
"Q c #934817",
"! c #954918",
"~ c #9C4E1A",
"^ c #9F501B",
"/ c #A25317",
"( c #A5531D",
") c #A8551E",
"_ c #834D33",
"` c #875035",
"' c #8D5438",
/* pixels */
"     .............................X........       ",
"     @$%$$%@@@@$@@@$$$$Oo+$$$@@$$$@@$$$%%$@       ",
"    O-,,,,,34444444441>@+>14444444434,,,,,>#..    ",
"   @->4,33sKKKKKKKKKKh1$+>gCKKKKKKKKKh4,,4>-@..   ",
"  X%,145ffK~(((()))(~C4@+>v~))(((((((Kff843,-+X.  ",
"  X%,1fCKE!()))))))))K4@+,b()))))))))~WKKg43,-#X  ",
"  +&,3sQ))()(~())))))K1++>b~)))))(^(()))~h334,%X  ",
".@>,3,s!))))EK!)))))(K4@+,b~)))))~KK()))~v334,%X..",
".$,44sC~)))(EK!()))))K1@+>b^)))))~KK)))(^Kh534>@o.",
".%,,5K~())))^~()))))(K4@#>b^)))))(~~)))))(Kf34>>@.",
".$,,fE))))))))))))))(K4@+>b^)))))())))))))!f,34,$.",
".%,,8E())))))())))))(K4@+,b^))))))))))))))Qh343>$.",
".$,,8E)))))))())))()(K1+#>b^))))))))))))))!f33>%#.",
".%,38E))))))))))))))(K4@+>b^))))))())())))!s,3%O..",
".$,3fE()())))))())))(K1@+,b^))))))))))))))!h3,%X..",
".$,,8E())))))))))))))K4@+>b^))))))()))))))!s33%X..",
".$,,fE))))))))))))))(K4@+>b^))))))))))))))!s3,%X..",
".$,3fK))))))^!!!!~()(K4@+>b^)(~!!!!~(())))!s33%X..",
".%,35W)))))(EhgsgC~)(K4@+>b^)^RhhsgK()))))!s3,%X..",
".$33fK)))))(K,:>:N^)(K4@+,C^)(C>:>>v^)))))!s33%X..",
".$,,fK)))((~C=&,$g!)^K4$@>v~)~N=>>$l~)(())!s33%X..",
".%,38E))~EKCe#->#6vKnh,:&,snKCq#:>#qnKK~))!s33%o..",
".%,,5W))!hqm2+:>@;yMmuyyyyymMu;+>>+;yqgW))!s3,%X..",
".$,3fE))!hMDp*&>@rSHHHHHHHHHHGi#>:+tFAfW))!f,3%X..",
".$,,8E()!hF_S*&,#i_''''''''''`S#:>#Z_GgE))!s3,%X..",
".$,3fE))!hA_S*&>$t_''''''''''_Z@:>#Z_DgE))!h31%X..",
".$,,8K//WsMGp#>>@rFHHHHHHHHHHGi#:>#tFVfR//Wa3,&X..",
".%,,5JTTPdqw2+-,#=wmmuyyyymmmu;#>>#;wwaLTTLs3,%X..",
".$,38JYYIczz7#&>#<kxza,:&,8zxz6#>>+6kzcPYYLa33&X..",
".%,38cYYYYYIk=:,%9LYIz4$@,dLYPj$>>$0PYYYYYLa3,%X..",
".$,35cYYYYYYz<:,>aPTYz1@+>kYYIk<,:>jIYYYYYLa3,%X..",
".%,35JYYYYYYJa080xIYYx4@+,kITYcaaaaxYYYYYYLa31%X..",
".$,38cYYYYYYILLLPPYYIx4$#>zIYYILLLLIYYYYYYLa3,&X..",
".$,38cYYYYYYYYTYYYYYYx4@+>kITYYYYYYYYYYYYYLa31%X..",
".%,,8cYYYYYYYYYYYTYYIx1@#>kIYYYYYYYYYYYYTYLa,,&X..",
".$,35JYYTYYYYYYYYYYYYx1$+>kITYYYYYYYYTYYYYLa31&...",
".$,,8cYYYYYTYYYYYYTTYx4@+,zIYYTYYYTYYYYYYYLa3,-o..",
".$,38cYTYYYYYTYYYYYYIx4@#>kIYYYYYYYYYYYYYYLa33>%O.",
".$,38cYYYYYYYYYYYYYYYx4@+>kIYYYYYYYYYYYYYYLa,44,@.",
".%,,8cYYYYYYYTYYYYYYIx4@+,kIYYYYYYTYYYTYYYLa334,%.",
".$,35xLYTYYYIPYYYYYYYx4@+,kIYYYYYYIIYYYYYIc834,>#.",
".$,148zIYYYYJzLYYYTYYx4@+>kIYYYYYPzcYYYTIca54,-@o.",
".$>,43aLYYTYJzLYYYYYIx1@+>kIYYYYYPzcYYYYPd3341%X..",
"  +&,3aJYYYYIPYYYYYYYx1$+>zITYYYYYIIYYYYLd343,%X  ",
"  X%,48zccLYYYYYYYYYYc4$+>zIYYYYYYYYYPJcc843,-@.  ",
"  X%,,4588zPYYYYIYYYPz1@+,dPYYYYIYYYIc8855,1>OX.  ",
"   @%,4133azcxzxzcczza1$#>azxxxxxxzxzd4,,3,%#X.   ",
"    O&,,,,111141141444>@+>11444344411,,,,,>+..    ",
"     @%$$%$$@$$$$$$$$%@oo#$$$$$$@$$$$$%$%$@       ",
"     ......................................       "
};
