/* XPM */
static char *Hero_11666801603[] = {
/* columns rows colors chars-per-pixel */
"50 50 31 1 ",
"  c None",
". c black",
"X c #081000",
"o c #001821",
"O c gray16",
"+ c #420000",
"@ c #500000",
"# c #182842",
"$ c #29314A",
"% c gray29",
"& c #63697B",
"* c #885818",
"= c #8C5A18",
"- c #8F581F",
"; c #B02860",
": c #B52963",
"> c #FF4070",
", c #FF4273",
"< c #F87068",
"1 c #FF736B",
"2 c #FF706F",
"3 c #9C9442",
"4 c #203088",
"5 c #21318C",
"6 c #20308F",
"7 c #40809F",
"8 c #42849C",
"9 c #DEDEAD",
"0 c #80D8CF",
"q c #84DECE",
"w c #FFD0C0",
/* pixels */
"                                                  ",
"                                                  ",
"                      --*@@@@                     ",
"                    +@-;;;;;;@++                  ",
"                   @@;;::::::;@@@                 ",
"                  @;;:>>>>>>>>:;;@                ",
"                 @;:>>>>>>>>>>>:;;@               ",
"                @;:>>>>>>>>>>>>>>;;@              ",
"                @;:>>>>>>>>>>>>>>:;@              ",
"                @;:>>>>>>>>>>>>>>:;@              ",
"                @;:>>>>>>>>>>>>>>:;@              ",
"                @;:>>>>>>>>>>>>>>:;@              ",
"                @;:>>>>>>>>>>>>>>:;@              ",
"               @@;;>>>>>>>>>>>>>:;@@@             ",
"              -*+@;;:>>>>>>>>>>:;@+O--            ",
"             3<3O+@;;:>>>>>>>>:;@@+%3<3           ",
"            -3w<O+@@;;;;;;;;;;;@@@X%993*          ",
"            -32<O.++@@;;;;;;;;@+++.%<13*          ",
"            --<;+...+++++++++++X...O:<-           ",
"              --+XXX.XXXXXXXXXX.XX.O--            ",
"              ***33%............%3&**             ",
"               *399&OX........XO39<-              ",
"                 <993O........%39<3               ",
"                 -399-+.....X@3993-               ",
"                -=-3<<-+....@;<<3-=-              ",
"               **-;;:<;$;;;%%:<:;;-**             ",
"              -*-:>>:&5&:>>:5&:>>>;**-            ",
"             **-:>>>:&6&:<<&76&,>>>;-**           ",
"            -*@;>>>:&878888887&,>>>>;**-          ",
"            -*@:>>::&880000008&:::>>;@*-          ",
"            -*@;>:;;&8000000008&;::>;**           ",
"              @;::;&800087700008&;::-*            ",
"              @;;;&800q0888000008&;;;             ",
"               45&8000000000000008&5              ",
"                67880000000000008776              ",
"                57888888000088888775              ",
"                57800088000088008875              ",
"                57800008000080000875              ",
"                57800088000080000875              ",
"                57700088800088008755              ",
"                 557888788008888756               ",
"                 65777777788777775                ",
"                 65777775657777775                ",
"                   55555566555555                 ",
"                   %&&&&4444&&&&%                 ",
"                 XO-----%o#%----*O                ",
"                +O**===*@.X*====**O               ",
"                +*******O.X********X              ",
"                XO**@OOO+  O@O@O*O+X              ",
"                ........    ........              "
};
