/* XPM */
static char *Wall1666800296[] = {
/* columns rows colors chars-per-pixel */
"50 50 193 2 ",
"   c None",
".  c #1A0000",
"X  c #2C0000",
"o  c #360000",
"O  c #3B0000",
"+  c #3D0708",
"@  c #3E0909",
"#  c #370909",
"$  c #430000",
"%  c #4D0101",
"&  c #430B0B",
"*  c #4C0B0B",
"=  c #500707",
"-  c #520B0B",
";  c #5C0B0B",
":  c #590102",
">  c #45100F",
",  c #461715",
"<  c #4A1E1B",
"1  c #471917",
"2  c #591514",
"3  c #620404",
"4  c #630B0B",
"5  c #6E0A0A",
"6  c #6B0707",
"7  c #720000",
"8  c #7B0202",
"9  c #730B0A",
"0  c #7B0909",
"q  c #701E16",
"w  c #74221F",
"e  c #4E2320",
"r  c #572B27",
"t  c #772F21",
"y  c #752D29",
"u  c #60332E",
"i  c #633D37",
"p  c #633D38",
"a  c #793D37",
"s  c #6B453F",
"d  c #7D433D",
"f  c #7F5951",
"g  c #840000",
"h  c #940305",
"j  c #990505",
"k  c #920708",
"l  c #AA0304",
"z  c #B70303",
"x  c #BC0403",
"c  c #BD0D0B",
"v  c #AC110F",
"b  c #BC1411",
"n  c #A81210",
"m  c #9A2B27",
"M  c #A83732",
"N  c #BB3E38",
"B  c #C40202",
"V  c #CE0201",
"C  c #CC0A04",
"Z  c #CE0D0A",
"A  c #D40902",
"S  c #CF130E",
"D  c #D71307",
"F  c #DC1608",
"G  c #DF1B0B",
"H  c #D0120F",
"J  c #CE1B14",
"K  c #D71B11",
"L  c #E11906",
"P  c #E11C0C",
"I  c #E51A02",
"U  c #CF261A",
"Y  c #CF291B",
"T  c #E7200C",
"R  c #F92501",
"E  c #F5290D",
"W  c #F9280A",
"Q  c #F42607",
"!  c #EA2411",
"~  c #EE2914",
"^  c #E1271A",
"/  c #E02918",
"(  c #E02212",
")  c #F32D16",
"_  c #F92E15",
"`  c #F8321A",
"'  c #F73119",
"]  c #E3301E",
"[  c #CE2C23",
"{  c #D03127",
"}  c #CA3732",
"|  c #D03D35",
" . c #E73A27",
".. c #F83A23",
"X. c #F53C2B",
"o. c #F93E2C",
"O. c #F33824",
"+. c #CA4235",
"@. c #F5442C",
"#. c #F8462D",
"$. c #F8482F",
"%. c #F84227",
"&. c #E14C36",
"*. c #E54635",
"=. c #F84733",
"-. c #E3513A",
";. c #F8553C",
":. c #F75337",
">. c #81534B",
",. c #9B524B",
"<. c #845E56",
"1. c #876159",
"2. c #886159",
"3. c #986F66",
"4. c #9C7369",
"5. c #B07167",
"6. c #A97D73",
"7. c #B86C63",
"8. c #D84942",
"9. c #CE5A52",
"0. c #EA5945",
"q. c #F65E44",
"w. c #D96449",
"e. c #ED6448",
"r. c #ED6247",
"t. c #F86347",
"y. c #F56A4E",
"u. c #F86D4F",
"i. c #E26255",
"p. c #EA6955",
"a. c #F86E51",
"s. c #F96C5F",
"d. c #F6685A",
"f. c #EB7258",
"g. c #F57454",
"h. c #F87656",
"j. c #F87857",
"k. c #F8795A",
"l. c #C36F65",
"z. c #CD756B",
"x. c #DC7469",
"c. c #EB7766",
"v. c #F87E61",
"b. c #F87965",
"n. c #E17E72",
"m. c #AA8176",
"M. c #C08277",
"N. c #F88063",
"B. c #F88368",
"V. c #E78B7E",
"C. c #F98D74",
"Z. c #F38777",
"A. c #EF907F",
"S. c #F8947D",
"D. c #BA8E82",
"F. c #BA9084",
"G. c #AA9794",
"H. c #C6978A",
"J. c #C99A8D",
"K. c #D89488",
"L. c #F58F81",
"P. c #EB9789",
"I. c #F79582",
"U. c #F99587",
"Y. c #F99A84",
"T. c #FA9B89",
"R. c #DDA99B",
"E. c #DDA799",
"W. c #F9A18E",
"Q. c #E0AC9D",
"!. c #ECAE9E",
"~. c #F9A591",
"^. c #FAAA96",
"/. c #F3AC9D",
"(. c #F9AC99",
"). c #FBB19E",
"_. c #F8AFA0",
"`. c #EFB4A4",
"'. c #EAB7A9",
"]. c #F6B3A2",
"[. c #FAB5A3",
"{. c #F5BBAB",
"}. c #F8BEAF",
"|. c #F5B7A8",
" X c #E4AEA0",
".X c #F8C1B3",
"XX c #F8C6B8",
"oX c #F1DDD8",
"OX c #FAE1DC",
"+X c #FAE7E2",
"@X c #FAE8E4",
"#X c #FCFBFB",
"$X c #FCF5F4",
/* pixels */
"#X#X#X#X#X#X#X#X#X#X#X#X#X#X#X#X#X#X#X$X{.h.      #X#X#X#X#X#X#X#X#X#X#X#X#X#X#X#X#X#X#X$X{.k.      ",
"+X+X+X+X+X+X+X+X+X+X+X+X+X+X+X@X+X+X@XOX).f.    G.oX+X+X+X+X+X+X+X+X+X+X+X+X@X@XOX@X+X@XOX_.f.      ",
"XXXX.X.X.X.X.X.X.X.X.X.X.X.X.X.X.X.X.X.XI.w.t . 1.'.XX.X.X.X.X.X.X.X.X.X.X.X.X.X.X.X.XXX{.Y.w.t o @ ",
"}.(.Y.I.S.Y.Y.I.I.Y.I.Y.I.Y.Y.S.Y.S.Y.S.f.+.q X <.Q.).Y.I.Y.I.I.Y.I.I.Y.I.Y.Y.S.Y.S.I.Y.S.f.+.q + @ ",
"}.~.h.u.g.a.a.a.a.a.a.a.a.a.a.a.g.u.a.u.&.z 5 o <. X~.h.g.g.u.u.a.a.a.a.a.a.a.a.g.g.u.g.y.*.z 5 @ @ ",
"}.U.:.%.#.#.#.#.#.#.#.#.#.#.#.#.#.#.#.@./ z 5 o <. XU.:.%.#.#.#.#.#.#.#.#.#.#.#.#.#.#.#.%./ z 5 & @ ",
"}.U.o.W _ _ _ _ _ _ _ _ _ _ _ _ _ _ _ _ G z 6 o <. XU.o.W _ _ _ _ _ _ _ _ _ _ _ _ _ _ _ ) G z 9 & @ ",
"|.L.@.E _ ) ) ) _ ' ) ) ' ) ) _ ) ) ) ) G z 9 o <.E.I.X.E ) _ _ _ ' ) ) ' ) ) _ _ ) _ ) ) G z 6 & @ ",
"n.i.^ L P P P P P P P P P P P P P P P L D x 5 O a l.i.^ L P P P P P P P P P P P P P P P L D z 9 & @ ",
"b c x x x x x x x x x x x x x x x x x x x l 4 @ 5 v c x x x x x x x x x x x x x x x x x x x l 4 & @ ",
"8 8 0 0 0 0 0 g 0 0 0 0 0 0 0 0 0 0 0 0 0 9 ; & = 7 8 0 0 0 0 0 0 0 0 8 0 0 0 0 0 0 0 0 0 0 9 ; * @ ",
"O O O O O O + $ & & & * O O O O O O O O O O $ O o O O O O O O O O & & & * O O O O O O O O O O $ O # ",
"p p p p p p p u 2 * & @ r p i i p p p p p p p p p p p p p p p p u 2 = & @ e i s p p p p i i p i r ; ",
"J.J.J.J.J.J.J.m.M 7 O 1 3.H.J.J.J.J.J.J.J.J.J.J.J.J.J.J.J.J.J.J.M.M 8 O < 3.H.J.J.J.J.J.J.J.J.H.7.n ",
"}.|.].].].].].P.+.h $ e D.{.|.).].].].].].].].].].).].].].].].].P.+.h O e D.{.[.].].].).].).]./.n.H ",
"}.(.C.C.C.C.C.b.{ j $ e D.|.Y.C.C.C.C.C.C.C.C.C.C.C.C.C.C.C.C.C.c.[ h $ e F.].T.C.C.C.C.C.C.C.C.i.C ",
".XW.k.h.h.h.j.e.U h % e D.].C.h.j.h.h.h.h.h.h.h.h.h.h.h.h.h.h.k.e.Y h % e D.|.C.g.h.h.h.k.h.h.g.-.C ",
"}.W.k.g.h.g.h.r.U j % e D.].C.h.h.h.h.h.h.a.h.h.h.h.a.a.h.h.h.h.r.Y j % e D.].C.g.h.g.h.h.h.h.g.-.C ",
"}.T.q.;.;.;.:.=.J j % e D.].b.;.;.;.;.;.q.:.:.q.q.q.:.q.;.;.;.;.*.K h % e D.].b.:.;.;.;.;.;.;.;. .A ",
".XU.o._ ` ' ` ~ C h % e F._.s.W ` ` ` ` ' ' ' ` _ _ _ ` ` ` ` ` ~ C h % e D._.s.W ' ' ' ' ' ' ' P V ",
"{.U.o.E ) ' ' ~ C j % e m.].s.R _ _ ) ' ' ' ) ' ' _ ' ' _ _ _ _ ! C h % e D._.d.R _ _ _ ) ) _ _ P V ",
"P.c.O.T ! T ! P A j % < 5.V.0.I ! ! ! ! ! ! ! ! ! ! ! ! ! ! ! ! L C j = < 5.V.0.T ! ! ! ! ! ! T F V ",
"} [ C C C C C C B k * * m } J C C C C C C C C C V C V C C V C C C B k * * m } J C C C C C C C C B V ",
"h h h k k h h k k 9 * & 7 h h k h h k h h h h h k k k k k k k k j k 9 * & 7 h h h h j k k k k k k j ",
"% % % % % % = % % % $ O $ % % % % % % % * * - - = = % % % % % = % % % % O $ % % % % % % % = * - - - ",
", , , , , , , , , , 1 , , 1 , , , , , , & & & @ & , 1 1 1 , , , , , , 1 , , , , , , , , , & & & @ & ",
"6.m.m.m.m.m.m.m.m.m.m.m.m.m.m.m.m.m.m.6.,.g * o p 3.6.6.m.6.6.6.m.m.m.m.m.m.m.m.m.m.6.m.6.,.8 * # @ ",
"'.`.`.`.`.`.`.].`.`.`.`.].`.`.`.`.].|.!.x.l 3 X f E.{.'.`.`.`.|.`.`.`.].`.`.`.`.`.|.`.|.!.x.z 3 # & ",
".X).T.T.T.T.T.T.T.T.W.T.T.T.T.T.T.T.W.I.i.z 6 X 1. X[.W.T.T.T.T.W.Y.Y.Y.T.T.T.T.Y.T.T.T.U.i.z 6 @ @ ",
".XW.N.j.j.j.k.k.j.j.j.j.k.k.j.j.j.j.j.h.&.z 5 o <. X~.k.j.j.k.k.k.k.k.k.k.k.j.k.j.j.k.k.g.&.z 5 & @ ",
".XW.j.h.j.j.j.j.j.j.h.j.j.j.h.j.j.j.j.h.&.z 5 o <.Q.W.k.h.j.j.j.h.j.j.h.h.h.j.j.j.j.j.j.g.&.z 5 & @ ",
".XW.y.t.t.t.t.t.t.t.t.t.t.t.t.t.t.t.t.q. .z 5 o 1.Q.W.y.t.t.t.t.t.t.t.t.t.t.t.t.t.t.t.t.r. .z 5 & @ ",
"{.Y.=.` ..................` ............( z 5 o 1.Q.T.=.` ..............................` ( z 5 & @ ",
".XS.o.W _ _ _ _ _ _ _ _ _ _ _ _ _ _ _ _ G z 9 o <.R.T.%.W _ _ _ _ _ _ _ _ _ _ _ _ _ _ _ ) G z 5 & @ ",
"!.Z.O.E ~ ) ~ ) ~ ) ~ ) ) ~ ~ ) ) ~ ~ ~ F z 5 o f K.Z.X.Q ~ ~ ) ) ~ ~ ) ~ ) ) ~ ~ ) ~ ) ) F x 5 & + ",
"9.8.K A D D D D D D D D D D D D D D D D C z 5 O y 9.8.K D D D D D D D D D D D D D D D D D C z 5 & + ",
"l l l l l l l l l l l l l l l l l l l l l j 4 & : j l l l l l l l l l l l l l l l l l l l l j 4 & & ",
"4 4 4 4 4 4 4 4 4 4 4 4 4 4 4 4 4 4 4 4 4 4 - & * ; 4 4 4 4 4 4 4 4 4 4 4 4 4 4 4 4 4 4 4 4 4 - & + ",
"O o o o o o o o # @ & & O o o o o o o o o O O O o o o o o o o o o # @ & & o X o o o o o o o o O o # ",
"<.2.2.2.1.1.1.>.t : @ @ s 1.1.1.1.1.1.1.1.1.1.1.<.1.1.1.2.1.1.1.>.w : + @ f <.1.1.1.2.2.2.2.2.<.f 9 ",
"Q.Q.Q.Q.Q.Q.R.K.N g O < 6.R.Q.Q.Q.Q.Q.Q.Q.Q.Q.Q.Q.Q.Q.Q.Q.Q.Q.Q.K.N g O < 6.R.Q.R.Q.Q.Q.Q.Q.Q.E.z.b ",
".X[.^.^.^.(.(.A.| h O e D.{.).^.^.^.^.^.^.^.^.^.^.^.^.^.^.^.^.^.A.| h $ e D.{.).^.(.^.^.^.^.^.^.c.H ",
".X~.B.N.N.N.N.p.[ h % e D.|.S.v.N.N.N.N.N.N.N.N.N.N.N.N.N.N.N.N.p.Y h % e D.].S.v.N.N.N.N.N.N.k.0.C ",
".XW.k.h.h.h.j.e.U h % e D.].C.h.h.h.j.j.h.h.h.h.h.h.h.j.h.j.h.j.r.Y h % e D._.C.h.h.h.h.j.j.j.h.-.Z ",
".XW.h.y.u.u.u.q.U h % e D.].C.y.a.u.u.a.a.u.u.u.u.u.u.u.u.u.a.a.0.Y h % e D.[.C.y.a.u.u.u.u.u.y.&.A ",
".XS.:.%.$.$.$. .S h % e D.).b.%.$.$.$.$.$.$.$.$.$.$.$.$.#.=.$.$.O.S h % e F.).b.%.$.$.$.$.$.$.$.^ V ",
"}.U.%.W _ _ _ ! C h % e D._.d.R _ _ _ _ _ _ _ _ _ ) _ _ _ _ _ ' E C j % e F.].s.R _ _ _ _ ) _ _ P V ",
"|.S.X.) ) ) _ E C j % e D./.d.R ) ' ) _ ) ) ) ' ) ) _ _ ) ' ) ) ! C j % r m./.d.R _ ' ) ) ) ' ~ P V ",
"n.i.^ L P P P F V l     l.c.8.L L G P P P P P P P P P P P P L P D C l     l.c.&.L G P P P G P G D V ",
"Z Z V V V V V V V       H H V V V V V V V V V V V V V V V V V V V V       H H B V V V V V V V V V V "
};
