/* XPM */
static char *Arrow1666789587[] = {
/* columns rows colors chars-per-pixel */
"50 50 145 2 ",
"   c #1BAAE2",
".  c #1BAAE3",
"X  c #1CAAE2",
"o  c #1EAAE2",
"O  c #22ABE2",
"+  c #2BACE3",
"@  c #2CACE2",
"#  c #31ADE3",
"$  c #33ADE3",
"%  c #39AEE2",
"&  c #39AEE3",
"*  c #41AFE3",
"=  c #43AFE3",
"-  c #47B0E3",
";  c #4DB2E4",
":  c #56B5E5",
">  c #59B4E3",
",  c #5FB5E4",
"<  c #5EB6E4",
"1  c #62B6E4",
"2  c #67B8E4",
"3  c #67B8E5",
"4  c #6BB8E4",
"5  c #74BAE4",
"6  c #74BAE5",
"7  c #75BBE5",
"8  c #76BBE5",
"9  c #73BCE5",
"0  c #77BDE6",
"q  c #78BDE6",
"w  c #79BDE7",
"e  c #79BEE6",
"r  c #7ABEE7",
"t  c #7BBEE7",
"y  c #7CBFE8",
"u  c #8BC3E5",
"i  c #84C3E9",
"p  c #8BC5E9",
"a  c #8CC6E9",
"s  c #9BC9E7",
"d  c #93CAEB",
"f  c #94C8E8",
"g  c #95C8E8",
"h  c #9ACAE8",
"j  c #9FCCE9",
"k  c #A2CBE6",
"l  c #A5CEE9",
"z  c #A5CEEA",
"x  c #ACD2EB",
"c  c #B2D7EE",
"v  c #B5D6EC",
"b  c #BCD6E9",
"n  c #BCD6EA",
"m  c #BFD9EB",
"M  c #BFD9EC",
"N  c #BEDBED",
"B  c #BCDDF1",
"V  c #C5DCEB",
"C  c #C2DBED",
"Z  c #C2DBEE",
"A  c #C3DCEE",
"S  c #C7DEEE",
"D  c #CADEEC",
"F  c #C5DEF0",
"G  c #C6DEF0",
"H  c #C6DFF0",
"J  c #CEE1EF",
"K  c #D3E2EC",
"L  c #D3E3ED",
"P  c #D1E2EF",
"I  c #D2E3EF",
"U  c #D4E3EE",
"Y  c #D3E4EE",
"T  c #D5E4EF",
"R  c #DBE5EB",
"E  c #DDE6EC",
"W  c #DFE8EE",
"Q  c #C4E0F2",
"!  c #C8E1F2",
"~  c #C9E1F2",
"^  c #C9E1F3",
"/  c #CAE2F3",
"(  c #D6E6F1",
")  c #D7E6F1",
"_  c #D8E8F2",
"`  c #D9E8F2",
"'  c #DAE9F3",
"]  c #DDE9F0",
"[  c #DAE9F4",
"{  c #DCEBF5",
"}  c #DFEDF6",
"|  c #E1E7EB",
" . c #E6EAEC",
".. c #EBEEEF",
"X. c gray93",
"o. c #EEEEEE",
"O. c #EFEFEF",
"+. c #E1EBF0",
"@. c #E2EBF0",
"#. c #E3EBF0",
"$. c #E2ECF1",
"%. c #E4ECF1",
"&. c #E7ECF0",
"*. c #E7EDF1",
"=. c #E4EDF3",
"-. c #E4EEF3",
";. c #E5EEF3",
":. c #E1EDF5",
">. c #E1EDF6",
",. c #E8EFF3",
"<. c #EEEFF0",
"1. c #E7F0F6",
"2. c #EBF0F2",
"3. c #EFF0F1",
"4. c #E8F1F6",
"5. c #E8F1F7",
"6. c #E7F2F9",
"7. c #EBF4F9",
"8. c gray94",
"9. c #F1F1F0",
"0. c #F1F1F1",
"q. c #F0F2F3",
"w. c gray95",
"e. c #F3F3F3",
"r. c #F2F3F4",
"t. c #F4F4F4",
"y. c #F5F5F4",
"u. c #F4F5F5",
"i. c gray96",
"p. c #F6F5F5",
"a. c #F6F6F6",
"s. c gray97",
"d. c #F8F7F7",
"f. c #F7F8F9",
"g. c #F4F8FA",
"h. c #F5FAFC",
"j. c #F8F8F8",
"k. c #F9F9F9",
"l. c gray98",
"z. c #FAFBFB",
"x. c #FBFBFB",
"c. c #F9FCFD",
"v. c gray99",
"b. c #FDFDFD",
"n. c #FEFEFE",
/* pixels */
"n.0.a.j.0.n.X.j.e.a.j.8.n.O.j.a.a.j.X.n.0.j.j.0.n.X.x.a.0.v.X.n.0.j.j.0.n.X.n.0.j.j.0.n.X.n.t.0.v.X.",
"n.0.j.j.0.n.0.j.a.a.j.0.n.0.j.a.a.j.8.n.0.s.s.0.n.0.j.a.a.j.X.n.0.a.j.0.v.0.v.t.a.j.0.v.0.j.a.a.j.8.",
"X.j.a.0.n.X.n.0.j.s.0.n.X.n.0.a.j.0.n.X.j.a.a.j.X.n.0.s.s.0.n.X.v.t.a.j.X.n.8.j.a.t.v.X.n.0.a.j.0.n.",
"0.j.a.a.j.0.j.a.s.a.a.j.0.j.a.a.s.t.j.0.j.a.a.f.0.j.e.s.s.a.j.0.j.a.a.j.0.v.0.j.t.a.j.0.j.0.j.a.t.j.",
"n.0.a.a.0.n.X.j.t.a.j.X.n.X.j.a.a.j.X.n.0.a.d.l v...j.t.a.j.X.n.0.j.a.0.n.X.n.t.a.j.8.n.X.j.t.t.j.X.",
"a.a.a.a.a.a.a.j.a.a.s.a.s.a.j.a.a.j.t.j.a.a.a.0 p t.j.a.a.a.a.j.a.a.a.a.a.t.a.a.a.a.a.j.a.j.t.a.j.a.",
"X.j.a.a.j.X.n.0.s.a.0.n.X.n.0.j.j.0.n.X.j.a.t.y   d X.a.a.0.n.X.j.a.a.j.8.n.X.j.a.t.j.X.n.8.a.j.0.n.",
"j.a.a.a.a.a.a.a.a.a.a.a.a.a.a.a.a.a.a.a.a.a.a.q     f a.a.a.a.a.a.a.a.a.a.a.j.a.a.a.a.j.a.a.a.a.a.a.",
"n.0.a.j.0.n.X.j.a.a.j.0.n.X.j.a.a.j.X.n.0.a.a.0       s t.c.X.n.0.j.j.0.n.X.n.0.a.a.0.n.X.j.0.a.j.X.",
"a.a.a.a.j.a.j.a.a.a.a.j.t.f.a.s.a.a.j.t.j.t.a.q         z t.f.t.a.a.a.a.t.j.a.j.a.a.a.a.j.a.a.a.a.j.",
"X.j.0.a.j.X.n.0.j.a.0.n.X.n.0.f.j.0.n.X.j.a.t.y         . x n.X.v.t.a.j.8.n.8.j.a.a.n.X.n.0.a.a.0.n.",
"n.a.a.a.0.n.0.j.a.a.j.0.v.0.j.a.a.j.0.v.0.j.s.8         . . v j.0.d.j.t.j.0.j.t.a.a.0.n.0.j.t.a.j.0.",
"n.0.a.j.0.n. .5.| $.1.E 7.E 1.$. .6.R 7.W 1.%.4         . . X Q 8.j.d.0.n.X.n.0.a.a.0.n.X.j.a.a.n.X.",
"X.j.0.a.j.X.^   . . . . . . . . . . .                   . . X X / t.a.j.0.n.0.j.a.a.j.X.n.0.a.j.0.n.",
"X.n.0.a.n.X./   .                                           X X O V a.j.X.n.X.j.a.a.n.X.n.0.a.a.0.n.",
"n.0.j.a.0.n.b                                                   X @ / 0.n.X.n.0.a.j.0.n.X.j.a.a.j.X.",
"x.e.s.a.e.x.m                                                       # Y j.0.j.a.s.s.e.x.0.j.a.a.j.0.",
"X.x.t.e.x.X./                                                         & U n.3.j.a.e.x.X.n.0.j.j.0.n.",
"e.j.a.a.f.e.F                                                           - } e.f.a.a.s.e.j.a.a.a.a.j.",
"n.0.s.s.0.n.n                                                             - 6.0.a.j.0.n.X.j.0.a.n.X.",
"s.a.a.a.a.a.Z                                                               : $.a.a.a.j.a.a.a.a.a.a.",
"X.x.t.e.x.X./                                                                 < %.e.j.X.n.0.a.a.0.n.",
"a.a.a.a.a.a.Z                                                                   < ,.a.f.a.j.a.a.a.0.",
"n.0.s.s.0.n.n                                                                     2  .n.X.j.a.0.n.X.",
"0.j.a.a.s.e.Q X                                                                     0 ,.j.a.a.a.0.j.",
"X.x.e.a.j.X./ X                                                                     1 | n.0.j.a.0.n.",
"x.e.s.s.e.x.m                                                                     > %.n.0.j.a.a.j.0.",
"n.0.s.s.0.n.b                                                                   : $.0.n.X.j.0.a.n.X.",
"X.x.e.e.x.X./ X                                                               ; W t.j.X.n.0.j.j.0.n.",
"O.j.a.a.j.8./                                                               - >.a.t.j.3.n.0.j.a.0.n.",
"n.0.s.s.0.n.b                                                             & >.e.s.j.0.n.X.j.a.a.j.X.",
"x.e.s.s.e.x.m                                                           $ J j.e.s.f.0.n.0.j.a.a.j.0.",
"X.j.a.a.x.X./                                                         @ D n.X.j.a.a.j.X.n.0.s.s.0.n.",
"a.a.e.a.a.a.S                                                       O S a.s.a.a.a.a.a.a.j.a.a.a.a.j.",
"n.0.a.s.0.n.b X                                                 X X Z 0.n.X.n.0.a.a.0.n.X.j.a.e.j.X.",
"a.a.a.a.a.s.Z X                                                 X N a.s.a.a.a.s.a.a.a.a.a.a.a.a.a.a.",
"X.x.a.e.j.X./ X                     X                           B a.a.j.O.n.O.j.a.0.n.X.n.0.s.s.0.n.",
"a.a.a.a.a.j.%.[ ) ) ' Y { Y ' ) ) { L { U _ ' 2             X c a.a.a.a.a.a.s.a.a.a.a.j.a.a.a.a.a.a.",
"n.0.s.a.0.n.X.x.a.a.j.0.n.3.j.a.a.j.X.n.0.a.d.5             k n.8.s.s.0.n.X.n.e.a.j.0.n.X.n.e.a.j.X.",
"0.j.a.a.j.0.j.a.a.a.a.j.0.j.a.a.a.a.j.0.j.a.a.q           j j.0.j.a.a.s.0.j.0.j.a.a.j.0.j.0.a.a.a.j.",
"X.n.e.a.j.X.n.0.s.a.0.n.X.n.0.a.s.8.n.X.j.a.a.y         g 0.n.X.j.a.a.j.X.n.0.j.a.0.n.X.n.0.j.j.0.n.",
"x.0.a.a.0.n.0.j.a.a.j.0.n.0.j.a.a.v.8.v.0.s.a.7       u t.j.X.n.0.a.a.a.j.0.n.0.j.a.0.n.X.j.a.a.j.0.",
"n.0.a.a.0.n.X.n.0.a.j.0.n.O.j.a.t.j.X.n.0.a.j.5     a 0.t.v.X.n.0.j.j.0.n.X.n.0.a.a.0.n.X.n.0.a.n.X.",
"X.j.a.e.n.X.n.0.j.s.0.n.X.n.0.s.j.0.n.X.n.e.t.y   i ,.s.s.0.n.X.n.a.a.j.0.n.0.j.a.a.j.X.n.0.a.a.0.n.",
"0.j.a.a.j.0.n.0.s.s.a.j.0.j.a.s.a.0.x.0.j.a.a.r q f.0.f.j.0.n.X.j.a.a.j.0.n.0.j.a.a.j.0.j.0.a.a.0.j.",
"n.0.a.j.0.n.X.j.a.a.j.0.n.X.j.a.a.x.X.n.0.s.s.h h.X.x.t.a.j.X.n.0.a.a.0.n.X.n.0.a.j.0.n.X.n.a.a.n.X.",
"j.0.j.a.a.j.0.j.a.a.j.0.j.0.j.a.a.j.0.j.e.s.s.0.j.0.f.a.a.j.0.j.0.a.a.a.j.0.j.a.a.j.a.j.0.j.a.0.j.0.",
"X.n.0.a.j.X.n.0.a.a.e.n.X.n.0.s.j.0.n.X.x.t.e.n.X.n.0.a.a.0.n.X.n.a.a.j.X.n.X.j.a.a.j.X.n.0.j.a.0.n.",
"a.j.a.a.a.a.a.a.a.a.a.j.a.a.a.a.a.a.j.a.a.a.a.a.a.a.a.a.a.a.j.a.a.a.a.a.a.a.a.a.a.a.a.a.j.a.a.a.0.j.",
"n.0.a.j.0.n.X.j.a.a.j.X.n.X.j.a.a.j.X.n.0.a.a.0.n.X.j.a.a.j.X.n.0.a.j.0.n.X.n.0.a.a.0.n.X.j.a.a.j.X."
};
