/* XPM */
static char *Col1666800417[] = {
/* columns rows colors chars-per-pixel */
"50 50 193 2 ",
"   c None",
".  c #000000",
"X  c #080505",
"o  c #110300",
"O  c #1B0500",
"+  c #151515",
"@  c #000A16",
"#  c #2E0C01",
"$  c #230800",
"%  c #330C00",
"&  c #331202",
"*  c #381E05",
"=  c #341904",
"-  c gray18",
";  c #343435",
":  c #312A26",
">  c #571C02",
",  c #4C1601",
"<  c #652605",
"1  c #782C04",
"2  c #663B12",
"3  c #713F12",
"4  c #6D380D",
"5  c #45362E",
"6  c #754415",
"7  c #7B4716",
"8  c #7A491B",
"9  c #75430E",
"0  c #764B2A",
"q  c #434444",
"w  c #575858",
"e  c #695347",
"r  c #736259",
"t  c #646160",
"y  c #7B7B7C",
"u  c #893406",
"i  c #863608",
"p  c #993D09",
"a  c #923706",
"s  c #A43C05",
"d  c #9D410C",
"f  c #894714",
"g  c #904E17",
"h  c #974611",
"j  c #93561C",
"k  c #965619",
"l  c #AB450C",
"z  c #A5440C",
"x  c #B6490C",
"c  c #A54C13",
"v  c #B74F11",
"b  c #A45217",
"n  c #B45815",
"m  c #AA641D",
"M  c #B8641C",
"N  c #82502D",
"B  c #A7582C",
"V  c #AB6220",
"C  c #B66C26",
"Z  c #B86D24",
"A  c #B26220",
"S  c #B9702F",
"D  c #C64E0D",
"F  c #C55513",
"G  c #CD5F19",
"H  c #C85613",
"J  c #D35D17",
"K  c #DA5B16",
"L  c #E85F13",
"P  c #CF611A",
"I  c #D96813",
"U  c #D7691F",
"Y  c #DC671A",
"T  c #E36100",
"R  c #E76A00",
"E  c #E6790F",
"W  c #E7671A",
"Q  c #E36B1C",
"!  c #E96518",
"~  c #E77A11",
"^  c #EB7C1B",
"/  c #D95D21",
"(  c #CE6C23",
")  c #D06424",
"_  c #CB7428",
"`  c #D57F2E",
"'  c #D27726",
"]  c #D76333",
"[  c #E86E21",
"{  c #E56B24",
"}  c #E37324",
"|  c #EB7522",
" . c #ED7E2A",
".. c #EB7A27",
"X. c #F17B26",
"o. c #F17D28",
"O. c #E06834",
"+. c #E16733",
"@. c #9A6B57",
"#. c #B07751",
"$. c #D86E49",
"%. c #D66F53",
"&. c #D27356",
"*. c #D77559",
"=. c #D37F6A",
"-. c #CC7764",
";. c #FC941A",
":. c #D7812E",
">. c #D9822E",
",. c #DC8126",
"<. c #ED8321",
"1. c #E3842D",
"2. c #EC872B",
"3. c #F08026",
"4. c #F4842C",
"5. c #F3892E",
"6. c #FC9526",
"7. c #FC962D",
"8. c #F3912D",
"9. c #EB8E34",
"0. c #F48C31",
"q. c #F88D32",
"w. c #EB903E",
"e. c #F79537",
"r. c #FB9635",
"t. c #FC9836",
"y. c #FB9738",
"u. c #FC9838",
"i. c #FC9B44",
"p. c #FC9D4D",
"a. c #FD9F51",
"s. c #FDA25C",
"d. c #FCA055",
"f. c #D88876",
"g. c #D8976E",
"h. c #EA9F6B",
"j. c #FCA564",
"k. c #FAA76C",
"l. c #FCAB73",
"z. c #FCAE7A",
"x. c #7B8183",
"c. c #898887",
"v. c #938781",
"b. c #B4968A",
"n. c #A9A4A1",
"m. c #B7A9A6",
"M. c #AFB1B2",
"N. c #BAB9B8",
"B. c #DD9D93",
"V. c #D3A799",
"C. c #FEB485",
"Z. c #FCB88E",
"A. c #FCBB93",
"S. c #FDBF9B",
"D. c #DFAAA1",
"F. c #C3BBB7",
"G. c #E1AFA5",
"H. c #E1B3AC",
"J. c #EDBCA2",
"K. c #E3BFBB",
"L. c #FDC09D",
"P. c #C7C1BF",
"I. c #DBC6BD",
"U. c #FCC6A9",
"Y. c #FCC6A8",
"T. c #E3C1BD",
"R. c #FBCBB2",
"E. c #F5CCB7",
"W. c #FCD1BC",
"Q. c #BCBFC0",
"!. c #BDC0C1",
"~. c #D8CFCC",
"^. c #E7C9C5",
"/. c #EECEC2",
"(. c #E8CECB",
"). c #E4CFCC",
"_. c #EBD1C8",
"`. c #FBDACA",
"'. c #F8D6C7",
"]. c #E9D9D5",
"[. c #F7DFD4",
"{. c #FCE1D3",
"}. c #FCE4D9",
"|. c #F6E4DF",
" X c #F5E9E7",
".X c #FCEBE4",
"XX c #F5EBE9",
"oX c #FAEEE9",
"OX c #FCF1EC",
"+X c #FCF6F4",
"@X c #FCF8F7",
"#X c #FCFDFD",
"$X c #EDE8E6",
/* pixels */
"                                                                                                    ",
"                                                                                                    ",
"                          @X+X+X@X@X@X@X@X@X@X@X@X+X$XN.y q q q ; + . . . . . .                     ",
"                  #X#X@X{.'.W.W.W.W.R.W.W.R.W.W.W.W.E.T.P.!.!.M.c.q . . . . . . .                   ",
"              OXOXOXOX}.R.l.p.i.p.p.p.p.p.p.p.p.i.i.l.R.}.oXoX].N.c.w ; + . . . . . .               ",
"            OX`.U.L.S.A.l.p.7.7.7.7.7.7.7.7.7.7.7.7.p.z.A.L.Y.U./.~.N.y - . . . . . . .             ",
"          #XOX'.l.7.7.t.u.u.u.u.r.u.u.u.u.u.u.u.u.u.t.t.t.7.7.j.U.`.I.v.: . . . . . . . .           ",
"          #XoXW.l.7.7.r.t.r.u.u.r.u.t.r.u.r.u.t.u.e.t.t.t.t.t.i.j.l.g.@.5 @ X . . . . . .           ",
"        .X{.W.A.j.t.t.r.e.4.3.^ ~ E E ~ E E E ~ ^ <.4.q.u.u.u.t.6.u.h.V.n.x.q . . . . . . .         ",
"      @X{.Y.j.i.u.u.r.q.o.{ +.$.&.&.&.&.&.&.&.&.$.] { o.q.y.y.u.7.p.A.`.].M.t . . . . . . . .       ",
"    #X#X}.L.i.;.r.r.4.| T / f.H.^.(.(.(.)._._.^.H.f./ T | 4.e.r.t.i.l.A.J.b.e . . . . . . . . .     ",
"      @X}.L.d.6.r.0.| +.%.f.H.[.+X+XoX.X.X.XoX|.'.H.f.&.] ' 5.r.u.u.u.i.w.C 6 . . . . . . . . .     ",
"      @X}.S.p.6.r.3.I *.G._.XX+XOX{.Y.A.L.Z.Z.L.U.[._.m.@.n } t.u.u.t.t.2.Z 2 . . . . . . . . . . . ",
"    .X{.R.C.p.7.r.<.I =.T.oX+X.X`.L.s.6.6.7.6.u.C.W.E.m.r k ,.e.u.u.u.u.e.' c 1 , O . . . . . . . . ",
"#XOX'.Z.j.p.u.u.r.<.I -.T.XX.XR.l.a.i.t.e.t.t.u.a.j.h.#.0 j :.e.u.u.u.u.e...Y x 1 # . . . . . . . . ",
"#XOXW.k.6.6.u.u.r.<.I f.T.XX{.S.i.;.r.u.u.u.t.t.t.7.<.m 9 j :.e.u.u.u.u.e.o.W D u % . . . . . . . . ",
"#XOXW.l.t.7.u.u.r.<.I *.T. X}.L.a.6.t.u.u.u.u.u.u.t.9.C 6 j :.e.u.u.u.u.e.4.{ H i % . . . . . . . . ",
"#XOXW.l.7.t.u.u.r.<.I f.T. X}.L.a.6.t.y.u.u.u.u.u.u.9.C 6 j :.e.u.u.u.u.y.r.4.' g * . . . . . . . . ",
"#XOXW.l.t.6.u.u.e.<.I -.T. X}.L.p.6.t.u.u.u.e.u.u.u.9.C 6 j :.e.u.u.u.u.y.u.e.` j * . . . . . . . . ",
"#XOXW.l.e.7.u.u.e.<.I f.T. X}.L.a.6.r.u.u.u.u.u.u.u.9.C 6 j ` e.u.u.u.u.u.u.y.` j * . . . . . . . . ",
"#XOXW.l.7.7.u.u.t.<.I f.T. X}.L.p.7.t.u.u.e.r.u.u.u.9.C 6 j ` e.u.u.u.u.u.u.e.:.j * . . . . . . . . ",
"#XOXW.l.t.7.u.u.e.<.T f.T. X}.L.p.6.t.u.u.u.u.u.u.e.9.C 6 j ` e.u.u.u.u.u.u.e.>.j * . . . . . . . . ",
"#XOXW.l.t.7.t.t.8.<.I -.T. X}.L.p.6.t.t.u.u.u.u.u.u.9.C 6 j ` e.u.u.u.u.u.u.e.:.j * X . . . . . . . ",
"#XOXW.l.r.7.u.t.e.<.I f.T. X}.L.p.7.t.t.u.u.u.u.u.u.9.C 6 j ` e.u.u.u.u.u.u.e.:.j * . . . . . . . . ",
"#XOX'.l.r.7.u.u.e.<.I -.T. X}.L.d.6.t.u.u.u.e.u.u.u.9.C 6 j :.e.u.u.u.u.u.u.e.:.j * . . . . . . . . ",
"#XOXW.l.7.7.u.u.t.<.I f.T. X}.L.p.6.t.u.u.u.u.u.u.u.9.C 6 j :.e.u.u.u.u.u.u.e.>.j * . . . . . . . . ",
"#XOXW.l.r.r.u.u.e.<.I *.T. X{.L.p.6.t.u.u.u.u.t.u.u.9.C 6 j :.e.u.u.u.u.u.u.y.:.j * . . . . . . . . ",
"#XOXW.l.7.7.u.u.e.<.I f.T. X}.L.p.6.t.e.u.u.u.u.u.u.9.Z 6 j :.e.u.u.u.u.u.u.e.:.j * . . . . . . . . ",
"#XOXW.l.r.7.t.t.r.<.I -.I. X}.L.d.6.e.t.u.u.u.u.u.u.9.C 6 j :.e.u.u.u.u.u.u.e.:.j * . . . . . . . . ",
"#XOXW.l.t.7.u.u.r.<.I f.T. X}.L.p.6.t.u.t.u.u.u.u.t.9.C 6 j :.e.u.u.u.u.u.u.e.:.j * . . . . . . . . ",
"#XOXW.l.t.7.u.u.r.<.I -.T. X}.L.p.6.t.u.u.u.u.u.u.u.9.C 6 j :.e.u.u.u.u.u.u.y.:.j * . . . . . . . . ",
"#XOXW.l.t.7.u.u.r.<.I f.T. X}.L.d.6.t.u.u.u.u.t.u.u.w.V 6 j :.e.u.u.u.u.u.u.y.>.j * . . . . . . . . ",
"#XOXW.l.r.7.t.u.t.<.I f.K. X{.L.p.6.t.u.u.u.u.u.t.u.9.C 6 j ` e.t.u.u.t.u.u.y.` j * . . . . . . . . ",
"#XOXW.l.t.7.t.u.t.<.I =.K.$X}.L.a.6.t.u.u.u.y.u.u.u.9.C 6 j ` e.u.u.u.u.u.r.e.` j * . . . . . . . . ",
"#XOXW.l.r.7.u.u.u.<.I -.T. X}.L.p.6.t.u.u.u.u.u.u.u.9.C 6 j :.e.u.u.u.y.r.q.4.( h = . . . . . . . . ",
"#XOXW.l.t.7.u.u.t.<.I f.T. X}.L.a.6.t.t.u.t.y.u.u.u.9.C 6 j ` e.u.u.u.u.e.4.Q D u % . . . . . . . . ",
"#XOXW.l.7.6.u.u.e.<.T f.T. X}.L.p.6.r.t.u.u.u.u.u.u.9.C 6 j :.e.u.u.u.u.r.4.W D u % . . . . . . . . ",
"#XOX`.L.z.s.u.r.r.<.I -.T. X}.L.p.6.r.t.u.u.u.u.r.r.1.A 3 j :.e.u.u.u.u.e...G l 1 # . . . . . . . . ",
"    OX.X`.Z.p.7.r.<.I f.K..X}.L.d.7.u.u.y.u.u.r.q.X.U z 4 N >.r.u.u.u.u.9._ f > % o . . . . . . . . ",
"      #X}.L.p.6.r.2.Q %.B.T./.E.Y.C.s.t.t.r.q.5...G x s z P 1.r.u.u.u.u.9.C 2 . . . . . . . . . . . ",
"      @X}.S.p.6.r.0.| { ] -.B._.].U.k.9.8.9.2.Q F p u x J | 0.r.u.u.u.u.9.S 2 . . . . . . . . .     ",
"    #X@X}.S.a.6.r.r.q.X.R K -.V.n.b.#.m m b b d s l v ) o.q.q.u.u.u.q.4.} n < . . . . . . . . .     ",
"      @X[.A.p.6.t.u.u.e.4.{ ) B N 0 8 7 7 7 8 7 b P [ 4.e.u.u.u.u.u.0.' H p > . . . . . . . .       ",
"        U.k.u.t.t.t.u.r.r.q.2.` ,.>.>.>.>.>.:.>.1.5.q.e.u.u.u.u.u.y.1.M 1 > % . . . . . . .         ",
"          Y.A.z.p.t.r.u.u.u.u.u.u.u.u.u.u.u.u.r.u.u.r.u.u.u.u.u.r.0.' g = . . . . . . . .           ",
"          OX{.R.k.t.t.u.u.u.u.r.u.u.u.r.u.u.u.u.u.u.u.u.u.u.u.q.4.{ F i & . . . . . . . .           ",
"            .XU.s.t.r.r.u.u.u.u.u.u.r.u.u.u.u.u.u.u.u.u.u.r.q...U v a < $ . . . . . . .             ",
"                u.u.r.u.u.u.u.u.u.u.u.u.u.u.r.r.e.e.e.e.9.2.{ J z < # o . . . . . .                 ",
"                        u.u.u.u.u.u.u.u.u.e.4.o.X.| | ( A k h u < % . . . . . . .                   ",
"                        u.u.u.u.u.u.r.u.u.e.4.W ! L K l < X . o o . . . . . . .                     "
};
