/* XPM */
static char *Exit_open1666800637[] = {
/* columns rows colors chars-per-pixel */
"50 50 186 2 ",
"   c None",
".  c #130C0E",
"X  c #4B1503",
"o  c #621F07",
"O  c #64330D",
"+  c #53322E",
"@  c #744214",
"#  c #4A4C4F",
"$  c #665D59",
"%  c #8B0000",
"&  c #811100",
"*  c #9B1700",
"=  c #BF0F1B",
"-  c #D70000",
";  c #D70800",
":  c #D71E00",
">  c #D81D00",
",  c #C21D1D",
"<  c #C11414",
"1  c #CE2500",
"2  c #D72300",
"3  c #D82400",
"4  c #D72804",
"5  c #D82800",
"6  c #D8320B",
"7  c #DB3808",
"8  c #CF2B1E",
"9  c #C42E1C",
"0  c #D22514",
"q  c #D32A14",
"w  c #D12B1A",
"e  c #D53215",
"r  c #C22323",
"t  c #CB2C24",
"y  c #C32D2C",
"u  c #C92E29",
"i  c #C42929",
"p  c #C6382A",
"a  c #D83927",
"s  c #C22E30",
"d  c #C23030",
"f  c #B36934",
"g  c #C7410F",
"h  c #D6491B",
"j  c #E15217",
"k  c #E35B1C",
"l  c #C9402D",
"z  c #C84D2E",
"x  c #D84D22",
"c  c #D95628",
"v  c #D95E2E",
"b  c #DB5625",
"n  c #C64534",
"m  c #C74B36",
"M  c #C94E36",
"N  c #D84133",
"B  c #CC5837",
"V  c #D15733",
"C  c #D25E35",
"Z  c #E15F23",
"A  c #DC622D",
"S  c #CE643C",
"D  c #D96432",
"F  c #D16A3E",
"G  c #D36F36",
"H  c #DF733D",
"J  c #E66621",
"K  c #E86922",
"L  c #EB7226",
"P  c #ED7D2C",
"I  c #E6772A",
"U  c #F07E2C",
"Y  c #E67B35",
"T  c #E97D31",
"R  c #C44D4D",
"E  c #C7595B",
"W  c #D65950",
"Q  c #D47441",
"!  c #DA7E42",
"~  c #DA7C49",
"^  c #D9625B",
"/  c #D06656",
"(  c #DB7B57",
")  c #C76565",
"_  c #C86F6F",
"`  c #C76D6D",
"'  c #D9726C",
"]  c #CB7575",
"[  c #DA7570",
"{  c #DA7F7B",
"}  c #DD8530",
"|  c #EF8328",
" . c #F2822E",
".. c #FB952C",
"X. c #EA8234",
"o. c #E4873C",
"O. c #ED8E3E",
"+. c #E68832",
"@. c #F48933",
"#. c #EF903E",
"$. c #F39135",
"%. c #FB9635",
"&. c #FD9837",
"*. c #F3923B",
"=. c #FA9639",
"-. c #FC9938",
";. c #DB8244",
":. c #DA824A",
">. c #C98352",
",. c #DB8B5D",
"<. c #DB8651",
"1. c #E28643",
"2. c #E58942",
"3. c #EA8C40",
"4. c #E08D49",
"5. c #FB9A43",
"6. c #F6994E",
"7. c #E4915C",
"8. c #FCA25C",
"9. c #FCA057",
"0. c #D1806B",
"q. c #DB8E7C",
"w. c #D78378",
"e. c #DF9670",
"r. c #FCA565",
"t. c #F8A56B",
"y. c #FDAA6F",
"u. c #EFA272",
"i. c #FBAC76",
"p. c #F6AB7A",
"a. c #F9AD7C",
"s. c #D58F89",
"d. c #D5918A",
"f. c #CF9898",
"g. c #D59697",
"h. c #E28A86",
"j. c #E49794",
"k. c #E2A181",
"l. c #F0AB81",
"z. c #FCB386",
"x. c #F7B48B",
"c. c #FCBC97",
"v. c #D1A4A4",
"b. c #D9ADAC",
"n. c #C0BBBC",
"m. c #D5B6B7",
"M. c #DBBCB3",
"N. c #D5BABA",
"B. c #DFB6B6",
"V. c #E1B2AD",
"C. c #EAB7B5",
"Z. c #EAB8B6",
"A. c #E4B8B4",
"S. c #DDC2B8",
"D. c #EEC0AC",
"F. c #FCC4A6",
"G. c #F7C6AF",
"H. c #EAC6B7",
"J. c #FBCEB8",
"K. c #FBD1BC",
"L. c #D6C1C1",
"P. c #D9D0CF",
"I. c #DED6D4",
"U. c #DED8D7",
"Y. c #DFDEDE",
"T. c #E9CBC8",
"R. c #E7D2C8",
"E. c #F1D1CE",
"W. c #E3DDDB",
"Q. c #E4D7D5",
"!. c #F5DAD5",
"~. c #FCE2D5",
"^. c #FCE4D9",
"/. c #DFE1E1",
"(. c #E1E2E2",
"). c #ECECEC",
"_. c #E9E7E6",
"`. c #F5E5E2",
"'. c #FCEDE5",
"]. c #FCEFE9",
"[. c #FCF1ED",
"{. c #EFF0F0",
"}. c #F4F4F4",
"|. c #FAF6F4",
" X c #FCF9F7",
".X c #FCFCFC",
/* pixels */
"                              -.          -.=.        =.                                            ",
"                              -.3.      -.*.2.=.    =.2.                                            ",
"                              -.2.O.3.3.-.*.;.1.;.;.1.;.                                            ",
"                              -.2.#.O.3.-.*.;.:.;.;.~ v                                             ",
"                      5     5 k b J v C D D c c c c c 6 t d                                         ",
"                      5 5 5 5 3 2 2 0 u i 0 3 3 3 3 3 5 u d d d                                     ",
"                      5 5 5 5 5 3 5 5 w u 5 5 5 5 5 5 w y d d d d                                   ",
"                        w 4 5 5 5 5 q u u 0 5 5 5 w w d d d d d d d                                 ",
"                        d w w w w w u n m u w w w s s u u d d d d d                                 ",
"                          d d d d n M F Q m d y d M M e 3 8 u d d d d                               ",
"                            d y u C H ;.~ G i p V ;.;.c 6 5 t d d d d                               ",
"                              4 1 W ( 1.1.( / h +.=.2.! x 3 t d d d d                               ",
"                              5 % m.G.....c.P.+ @ $.=.2.x 3 t d d d d d                             ",
"                              5 o # ( &.&.;.$ . O @.=.=.k 2 t d d d d d                             ",
"                                X * I %.&.#.f o g %.=.&.k 3 t d d d d d                             ",
"                                } +.$.%.&.%.O.+.@.=.&.K 7 5 t d d d d d                             ",
"                                &.-.&.-.&.%.=.-.-.-.&.j 2 w s s d d d d d                           ",
"                                K @. .J J P -.-.&.-.&.j w y d d d d d d d                           ",
"                                > P @.L L  .-.-.=.&.O.h u d d d d d d d d                           ",
"                              5 q A Y @.-.-.-.=.=.#.;.D p s d d d d d d d                           ",
"                              w u s s V X.T P *.O.;.;.:.M , , i y d d d d                           ",
"                              d d d d y r E d.:.;.;.;.;.s.g.g.] y d d d d                           ",
"                              d d d s p / b.E.<.;.;.;.u.`..X[.V.p d d d d                           ",
"                              d d d s ( J.^.6.2.;.:.p.'..X|.G.;.F s d d d                           ",
"                            d d d y 9 V. X~.=.&.5.i.'..X|.F.5.O.F s d d d                           ",
"                            d d d y H K.~.8.5.9.i.'. X.XF.5.&.#.F s d d d                           ",
"                            d d d d A. X~.5.z.].[..X.X.Xc...=.O.F s d d d d                         ",
"                            d d y B.|..X|.'.]..X.X.X.X.Xc...#.;.F s d d d d                         ",
"                              d r R..X.X.X.X.X.X.X.X.X.Xc...#.F n s d d d d d                       ",
"                              d i T..X.X.X.X.X.X.X.X.XK.r.%.O.S s d d d d d d d                     ",
"                              d s s.Q.{.}..X.X.X X).).p...&.3.S s d d d d d d d d                   ",
"                              s s = q.R._.{.{.{.)./.W.p.&.*.;.S y d d d d d d d d                   ",
"                              d s V | l.M.L./.Y.Y././.a.*.;.Q M d d d d d d d                       ",
"                              d s Y -.#.G w.R._._.H.H.t.} ;.C i d d d d                             ",
"                                s T -.*.! G z. X^.8.-.-.O.;.0.) i s d d d                           ",
"                                  %.%.o.( q.F.].r.y.5.-.%.+.S.m.` _                                 ",
"                                  y.u.e.H. X.X[.x.R.t.%.o.,.S.Y.U.Y.                                ",
"                                   X|.|.|..X.X XY.Y.p.7.,.S.Y.Y.Y./.Y./.                            ",
"                              .X.X.X.X.X.X X.X.X}./.W.I.I.Y.Y.Y./././././.                          ",
"                            .X.X.X.X.X.X.X.X.X.X X(.Y.Y./.Y.Y.Y._. X{././.W.                        ",
"                          .X.X.X.X.X.X.X.X.X.X.X X(.Y././.Y.Y.Y.)..X.X{.(.Y.                        ",
"                          .X.X.X.X.X.X.X.X.X.X.X.X}././.Y.Y./.Y.)..X.X X(.Y./.                      ",
"                          .X.X.X.X.X.X.X.X.X.X.X.X.X_././././.Y./.{..X X(.Y.Y.                      ",
"                        .X.X.X.X.X.X.X`.Z.Z.Z.Z.Z.A.v.v.v.v.v.v.L._.).)./.Y.Y.Y.                    ",
"                        .X.X.X.X.X^.T.j.- ; ; ; ; ; 9 , r , r < ] m.N.Y./././.(.                    ",
"                        E.E.E.E.E.h.- > 5 5 5 5 4 4 t s d s s d s = ) m.m.N.N.N.                    ",
"                        2 2 2 2 3 3 5 5 5 5 3 5 > > > r s s d d d d d d y s y y                     ",
"                        5 5 5 3 5 5 5 5 5 3 3 a ' [ [ ] R y s s d d d d d d d d                     ",
"                      5 5 5 5 5 5 5 5 5 3 N ^ s.U.Y.U.U.f.) R s d d d d d d d d d                   ",
"                      5 5 5 5 5 5 5 5 5 > { Q.Q.Y.Y./.Y.U.Y.f.r d d d d d d d d d                   "
};
