/* XPM */
static char *Hero_31666801391[] = {
/* columns rows colors chars-per-pixel */
"50 50 35 1 ",
"  c None",
". c black",
"X c #081000",
"o c #001821",
"O c gray16",
"+ c #420000",
"@ c #500000",
"# c #29314A",
"$ c gray29",
"% c #63697B",
"& c #885818",
"* c #8C5A18",
"= c #8F581F",
"- c #B02860",
"; c #B52963",
": c #FF4070",
"> c #F87068",
", c #FF736B",
"< c #FF706F",
"1 c #DFA03F",
"2 c #9C9442",
"3 c #F8D870",
"4 c #203088",
"5 c #21318C",
"6 c #20308F",
"7 c #40809F",
"8 c #42849C",
"9 c #DEDEAD",
"0 c #80D8CF",
"q c #84DECE",
"w c #FFD0C0",
"e c #FFD6C6",
"r c #F8F8F8",
"t c #FFF8FF",
"y c white",
/* pixels */
"                     =&&@@@@@                     ",
"                     -;22==--                     ",
"                  @@@;>331>>;@@@                  ",
"                 @--;>,weew,>;--@                 ",
"                @--;:>1erre1>:;--@                ",
"               @--;;-=229922=-;;--@               ",
"              @@-;:-@XOOOOOOX@-:;-@@              ",
"              @@---@+........+@---@@              ",
"              @@--+............+--@@              ",
"              @@@+XoOOOOXXOOOOoX+@@@              ",
"              @+...%0092--2900%...+@              ",
"              @@++$9rrew>>werr9$++@@              ",
"             >=@->>err9wwww9rre>>-@=>             ",
"            >>==><wer9%9ww9%9rew<>==>>            ",
"           >>;&=<wwrr0%9ww9%0rrww<=&;>>           ",
"           >>=@$9wwee929ww929eeww9$@=>>           ",
"           >>=@O%2wwww9wwww9wwww2%O@=>>           ",
"           >>=&$%29>><wwwwww<>>92%$&=>>           ",
"            >>=%99%$=><<<<<<>=$%99%=>>            ",
"             >=299$.+=;;;;;;=+.$992=>             ",
"              *299%OX+@@OO@@+XO%992*              ",
"               2>992O........O299>2               ",
"                =29>=@$$$$$$@=>92=                ",
"             &&&&22>>>>>>>>>>>>22&&&&             ",
"            22222*==>>>>>>>>>>==*22222            ",
"           29er92*==============*29re92           ",
"           29ryr9222==%====%==2229ryr92           ",
"           29ryr22e92%%%--%%%29e22ryr92           ",
"           29ryr29re2%8%--%8%2er92ryr92           ",
"           29rte99e9200%$$%0029e99etr92           ",
"           29re99999000088000099999er92           ",
"           29e929e90qq000000qq09e929e92           ",
"            222229errqq0000qqrre922222            ",
"             ==$$9rtrrq0000qrrtr9$$==             ",
"              %550rtrrq0000qrrtr055%              ",
"              65509rrq000000qrr90565              ",
"              65780qqq000000qqq08756              ",
"              6578000000000000008756              ",
"              6578000000000000008756              ",
"               55780000088000008755               ",
"                657800087780008756                ",
"                657888875578888756                ",
"                 5777775665777775                 ",
"                  55555566555555                  ",
"                 #$%%%$4444$%%%$#                 ",
"                $$=====$oo$=====$$                ",
"               %222***&@..@&***222%               ",
"              .%992&&&&O..O&&&&299%.              ",
"              .$%%$@O@O+  +O@O@$%%$.              ",
"              ..XX.....    .....XX..              "
};
