/* XPM */
static char *Hero_41666801498[] = {
/* columns rows colors chars-per-pixel */
"50 50 35 1 ",
"  c None",
". c black",
"X c #081000",
"o c gray16",
"O c #420000",
"+ c #500000",
"@ c #29314A",
"# c gray29",
"$ c #63697B",
"% c #885818",
"& c #8C5A18",
"* c #8F581F",
"= c #B02860",
"- c #B52963",
"; c #FF4070",
": c #FF4273",
"> c #F87068",
", c #FF736B",
"< c #FF706F",
"1 c #D8A038",
"2 c #DFA03F",
"3 c #9C9442",
"4 c #F8D870",
"5 c #FFD870",
"6 c #203088",
"7 c #21318C",
"8 c #20308F",
"9 c #40809F",
"0 c #42849C",
"q c #DEDEAD",
"w c #80D8CF",
"e c #FFD0C0",
"r c #FFD6C6",
"t c #F8F8F8",
"y c #FFF8FF",
/* pixels */
"                                                  ",
"                                                  ",
"                   +++%%++++                      ",
"                  ==--12>--=+O                    ",
"                 O=;;<54,:;-=++                   ",
"                 ++-<re52>;--;-=                  ",
"                 O+=qqq213=-;;;==                 ",
"                .XOo#$$%%%o=---;-+                ",
"               ............+===--==               ",
"              .............XOO+=-;-+              ",
"              ................O+=--=+             ",
"              ....#$$$$*$$$$*+..#===++            ",
"               ...$qrrq>erre>*X.+=-==+            ",
"                ..$ttreeettr<-*o+=->-=            ",
"                   tq$qe3wtr<>>*.#>e<>            ",
"                  tyq$qq$$tre<>*.oqe,>>           ",
"                3qrtq$qe3$tte<>*.o>e>*><          ",
"                3qrreqe<><rre>*+.o><3*><          ",
"                3qeeee<<>>qeeq$oO*>>>>>           ",
"                *><<<<<>>*$qeeq$*>>>>>            ",
"               %%=---->-*+X$qee>>>>>>>            ",
"              .XOo+++++oOo##$><>>>-#+o            ",
"               ..........#3q>><<>-*..             ",
"                XOo#%%%%%3eee<<>-#..              ",
"                 %*>>>>>>><<<<>>*O.               ",
"                  *>>>>>>>>>>>>*%O                ",
"                   3333****=--=*+                 ",
"                  3qqqqq$+===---=                 ",
"                 3qtttttq3===-;;-=+               ",
"                3qrtyyytrq3=-;;;;==+              ",
"                3ryyyyyyyr3-;;;;;-=+              ",
"                3ryyyyyyyr3-;;;--==+              ",
"                3qrtyyyttq3-;;;-===@              ",
"                 3qtytytq3=-;--==#@6              ",
"                 qqqqqqq3+==--===@67              ",
"                 tr33333$#o====#@778              ",
"                 ww$0wwww0#+++#@7978              ",
"                 8790wwwww$$$##79997              ",
"                 8790wwwwwwww0999997              ",
"                  790wwwwwwww0999977              ",
"                   79999wwww0999977               ",
"                   879770w00999997                ",
"                   779779999999997                ",
"                    7777777777777                 ",
"                    @$666$$$$$$$$                 ",
"                   o#*###********                 ",
"                  *33%33*&&&&&%%%                 ",
"                 .*21%323%%%%%%oX                 ",
"                 .#3*o*3%++oo%oX.                 ",
"                 ..XX.XXX........                 "
};
