/* XPM */
static char *Hero_21666801546[] = {
/* columns rows colors chars-per-pixel */
"50 50 36 1 ",
"  c None",
". c black",
"X c #081000",
"o c gray16",
"O c #420000",
"+ c #500000",
"@ c #29314A",
"# c gray29",
"$ c #63697B",
"% c #885818",
"& c #8C5A18",
"* c #8F581F",
"= c #B02860",
"- c #B52963",
"; c #FF4070",
": c #FF4273",
"> c #F87068",
", c #FF736B",
"< c #FF706F",
"1 c #D8A038",
"2 c #DFA03F",
"3 c #9C9442",
"4 c #F8D870",
"5 c #FFD870",
"6 c #FFDE73",
"7 c #203088",
"8 c #21318C",
"9 c #20308F",
"0 c #40809F",
"q c #42849C",
"w c #DEDEAD",
"e c #80D8CF",
"r c #FFD0C0",
"t c #FFD6C6",
"y c #F8F8F8",
"u c #FFF8FF",
/* pixels */
"                                                  ",
"                                                  ",
"                        +++%%++++                 ",
"                      O+=--21>--=+                ",
"                     *+=-;>,45<;-+                ",
"                   +=-;-->>46tr<=+                ",
"                   =-;;;==314ww$=+O               ",
"                 +=-;--==o%%*$$#OO..              ",
"                 =-;-===O............             ",
"                =-;-=+OOX.............            ",
"              +==--=+X................            ",
"              +==-=+.X+#$$$$*$$$$o....            ",
"              +====+.O=>rttw>rttw#...             ",
"              =>>-=Oo=><tytrrrtyt$..              ",
"              ><r3OO*>><tt$>r3$yy                 ",
"             >>rr3..=<<ryt$3r3$tut                ",
"            <>3>r3..*>rtyt$>r3$tyt>*              ",
"            <>*><3..+=wrtr>><wwttrw*              ",
"            <>>>>-%o#$wrrw>><rrrrr>*              ",
"              >>>>-*$wrr3**><<<<<<>*              ",
"              >>>>>->rw>#X%*->----*%+             ",
"              +o*>>><<>##ooO+++++ooOX.            ",
"               .O*-><<>ww3#..........             ",
"                .X*>><rrrw*+%%%%#oX.              ",
"                 .o*><<<<<>>>>>>-*%               ",
"                  O%=>>>>>>>>>>>>*                ",
"                   +=---=***33333                 ",
"                  ==--===+%3wwwww                 ",
"                 +=;;;-===3wyyyyt33               ",
"                +==;;;;-=3wyuuuuytw*              ",
"                +=-;;;;;=wyuuuuuuyw3              ",
"                +=--;;;;=wyuuuuuuyw3              ",
"                #===-;;;-3wyuuuuytw*              ",
"                7@===-;;-=3wyuyytw3               ",
"                87@===--=+%3wwwwww                ",
"                987@====+##$3333wt                ",
"                8007#=+++$qeeee$$e                ",
"                80008#$$$qeeeeeq08                ",
"                80000qqeeeeeeeeq08                ",
"                80000qqeeeeeeee008                ",
"                 88000qqeeeq00008                 ",
"                 980000qqeqq80088                 ",
"                 9800000000080089                 ",
"                   888888888888                   ",
"                   $$$$$$$$777#                   ",
"                   ********###*#o                 ",
"                   %%&&&&&&33**33%                ",
"                   X%%%%%%*123*22#                ",
"                   .O+%oo+%*3%#3*o                ",
"                   ........XXX.XX.                "
};
