/* XPM */
static char *Trap1667227278[] = {
/* columns rows colors chars-per-pixel */
"50 50 123 2 ",
"   c None",
".  c #010101",
"X  c #070B07",
"o  c #060A08",
"O  c #0A0D0B",
"+  c #1D1F1C",
"@  c #1E201D",
"#  c #1F2420",
"$  c #212321",
"%  c #242926",
"&  c #262B29",
"*  c #2A2D2C",
"=  c #2B312F",
"-  c #263334",
";  c #2D3533",
":  c #2B363A",
">  c #2D393D",
",  c #323432",
"<  c #333936",
"1  c #323C3D",
"2  c #3A3C3B",
"3  c #650709",
"4  c #4B2423",
"5  c #552D2A",
"6  c #5A3431",
"7  c #3B413E",
"8  c #2F3C40",
"9  c #323D41",
"0  c #354245",
"q  c #3C4543",
"w  c #3F4A46",
"e  c #374348",
"r  c #394649",
"t  c #3A484A",
"y  c #424444",
"u  c #424946",
"i  c #464C4A",
"p  c #4B4D4D",
"a  c #46504B",
"s  c #4B514E",
"d  c #4C5452",
"f  c #4E5954",
"g  c #535454",
"h  c #525A56",
"j  c #545658",
"k  c #545D5A",
"l  c #5A5C5B",
"z  c #615151",
"x  c #725C5C",
"c  c #56625E",
"v  c #5A635E",
"b  c #5B6662",
"n  c #5E6964",
"m  c #636463",
"M  c #616B66",
"N  c #686768",
"B  c #636E6A",
"V  c #6B6B6C",
"C  c #65726C",
"Z  c #69746E",
"A  c #677470",
"S  c #6A7571",
"D  c #6D7A74",
"F  c #6F7D78",
"G  c #747474",
"H  c #737C77",
"J  c #787778",
"K  c #727E78",
"L  c #7B7B7B",
"P  c #A31215",
"I  c #75827B",
"U  c #7C827E",
"Y  c #7A887F",
"T  c #7B8580",
"R  c #7D8B84",
"E  c #828383",
"W  c #838A87",
"Q  c #888788",
"!  c #828D88",
"~  c #8B8B8B",
"^  c #84918A",
"/  c #8C928F",
"(  c #8D9491",
")  c #8E9B95",
"_  c #929493",
"`  c #909B96",
"'  c #939D99",
"]  c #9B9C9B",
"[  c #AC9797",
"{  c #A89A9B",
"}  c #96A39D",
"|  c #9EA09F",
" . c #9DA5A2",
".. c #A2A4A3",
"X. c #A6ADAB",
"o. c #A9A9A9",
"O. c #AAB0AC",
"+. c #AEB6B3",
"@. c #B4B4B4",
"#. c #B0B8B5",
"$. c #B6BEBB",
"%. c #BBBBBB",
"&. c #DC9C9B",
"*. c #EBBCBC",
"=. c #BAC1BE",
"-. c #BCC3C1",
";. c #BFC8C6",
":. c #C4C3C4",
">. c #C1C9C7",
",. c #C6CECC",
"<. c #CACBCB",
"1. c #CBD2CF",
"2. c #CED7D5",
"3. c #D4D6D5",
"4. c #D2D8D6",
"5. c #D6DFDD",
"6. c #DDDBDB",
"7. c #D9E1DF",
"8. c #DDE5E2",
"9. c #DFE8E5",
"0. c #E5E4E5",
"q. c #E4EBE9",
"w. c #F3F3F3",
/* pixels */
"                                3.                                3.                                ",
"                              @.-.o.            %.@.            @.%...                              ",
"                              ~ _ ~ ~         ~ _ _ ~         ~ ~ _ ~                               ",
"                            E E Q E E L     E L E E E L     E E E Q E E                             ",
"                          G G J L L J G V G G G L L J G V G G G J L L J G                           ",
"        <.o./ Q         b m l m V V N m m m l m V V V m N m l l M V V m m l           ~ o.<.        ",
"        %.] ~ E U L V g p y q p j l j g g p y p j l j g g p y p g j j g g g s N J L E ~ ] @.        ",
"        _ ~ Q E L G N b l t e 0 0 9 9 e r e 0 9 r 0 r 0 0 e 0 9 0 e 0 0 0 f I D G L E ~ ~ _         ",
"        Q Q U L L M b n f 8 0 8 : : 7 - 0 0 7 : : 1 8 8 0 0 > : > 7 > > > : B I G J L U E Q         ",
"          L G G N c n C D I I D I I C 0 : : > - - - > > : : > C Y I I I I A n S S Z G G U           ",
"          J V m n n S R R R R R R R R I b n b n M C n n n n D R R R R R R R R D H M m N J           ",
"          V m l n n F R I F I ^ R T I I T I I R R R R T Y Y F I I R ^ I D I R I n A b m V           ",
"          l h l b n F R D ^ ) ^ R } R I S I S C I I S D D D F R } ( ^ ) ^ D Y I k D v j l           ",
"            d g b b D I R I f c c c R R I S I I S D I D D D T ( h c c f I R I D a D v d j           ",
"        J V l l b b D I A n C D I n f R I I I I S I D I D I ^ f n D D C n C I D u C M l V J         ",
"      E L V j h c b S F C A M F I I I c R A C S A A D S D R b C I I D C Z Z H Z y Z M g V L E       ",
"  %._ E L G m l c c S D Z Z S D I I A t D I S S S S S D I I q C Y I S S C Z D D q n S b G L Q _ @.  ",
"3.<...~ E L N v c b S S C S S D I 0 O X & Y Z Z A S C C I ; . O q D D S A C S Z 7 b Z V J E Q | <.3.",
"    { ! U J V m n n n Z C Z D D h X . . . s I B C C n I l X . . X s D D Z C A n 7 n D N J U ~ ]     ",
"      Q U J m v b n C A C Z S S 7 . @ / Q @ I R I I R I + U _ = . ; S S Z Z A C i D Z m J U Q       ",
"          G V b c n C C C A A A = . ~ 0.w.%.= I ) } Y , O.w.0.] . % A S A C C C v Y C N G L         ",
"          N v v n n C C C C A F M 7 U 3.*.&.x , v M < g &.*.6.Q < n F S C M C C I Z M l N           ",
"        L V j h n n C Z M C Z S D T C { P 3 4 s c f d 4 3 P [ Z R D S A C C A C M n v g V L         ",
"    ~ E L V l c c n C C C B C C C C D I 6 @ s H Z A D f @ 5 J H B C C B A M C C C C n l V L E ~     ",
"  :.] Q U J m v v n C C B B Z I D C C S Y Y I Z C C Z I Y Y D M V D I Z M C M C M C M m G U Q _ -.  ",
"  <...~ E L V m v n C B B C C s s v C Z N M C C C C C C M C Z Z b d p C C C C C n M M V L E ~ | <.  ",
"    ] Q U G N v n v B C B M D ( _ S C v M D I Y R Y Y I D M c M S ( ( K n M C n M A M N G U Q ]     ",
"        U J N b n n B B B f ! =.4.O.,.=. .S G M B M C Z S  .$.<.O.4.-./ s C M C b b l N L L         ",
"          V N M n C C B B u = u ~ U ,.7.5.X.9.8.>.$.8.9.#.4.5.1.E ( p * q C M B q , 7 N V           ",
"          V z l C C n n N 7 % O . . . . . % p v l j v p * . . . . . X % 9 n n B u < 2 l V           ",
"      E L N k b C M n n n q % X . . . . . . . . . . . . . . . . . . X % 7 b n B p y 6 d N L Q       ",
"    _ E L G m b B C n n v 7 $ 7 L M $.,.,.] 5.8.,.=.8.7. .>.,.=.Z L y # 2 v n m p 9 y v G L Q ~     ",
"  <...~ E J V m M M n n n d ' <.q.X.8.2.;.(  .` ^ ^ `  .) -.2.8.X.q.1. .h B n n s i p V J E Q | <.3.",
"  :...Q U L V M M M b n C C X.+.$.! R S A n f s i i s k b A S T R $.+.X.Z C v n g p g V J U W { :.  ",
"      Q U J m b C C n b c I I U F n k w i a d d f d f d w a w k n D T I I c v n g s g m G E Q       ",
"        L J V m M B n b i C R D k i k b b b n n n b n b b b b k i h D T A i b n g g g N J L         ",
"            g m B B n v h u 7 a k b b b b b b b b b b b b c b b b k a w w h v n l g p g l           ",
"            h v B B v v c c c c b b b b n n c b n n n c n n b b b b c c c c n v g p p g h           ",
"          V m b B B c B C n n n b k n b b b c c b b b c b n n n v c b n n C M c p y p m V           ",
"          G N M C C v v C B B M n n n k d d d d f d d d f t c n M n M M B Z v f y y p V J           ",
"          U G G B C C n k b b b b c h 9 > : 8 : : : : 8 : : > h k b b b v l d y 6 1 V G L           ",
"        ~ E L U Z n C C k 8 > : > 9 9 9 9 8 9 9 8 8 8 9 : > > 1 9 9 > : : < , , , p L U E Q         ",
"        _ ~ Q E I S Z B b 0 r 0 9 e t e e 9 r 9 9 e r 9 9 9 9 e t e 9 e 0 , % 2 k G E Q ~ _         ",
"        @.] ~ E U J V x i p u i g j d d s p u p s g g p d p u i g j g d s d p V J U E ~ ] @.        ",
"        <.o.~ Q           m l b V V N N l m v z N V V m m m l l M V V m m l         Q ~ ..<.        ",
"                          G G G L J J V   G G G L L J J V G G G J L L J G                           ",
"                            E E Q E E       E E E E E U     E E E E E E                             ",
"                              ~ / ~ Q         ~ _ / ~         ~ ~ _ ~                               ",
"                                %.o.            %.@.            %.%.]                               ",
"                                3.                                3.                                "
};
